<?xml version="1.0" encoding="utf-8"?>
<!-- Generator: Adobe Illustrator 24.0.3, SVG Export Plug-In . SVG Version: 6.00 Build 0)  -->
<svg version="1.1" id="Capa_1" xmlns="http://www.w3.org/2000/svg" xmlns:xlink="http://www.w3.org/1999/xlink" x="0px" y="0px"
	 viewBox="0 0 133.1 134.1" style="enable-background:new 0 0 133.1 134.1;" xml:space="preserve">
<style type="text/css">
	.st0{fill:#24135F;}
	.st1{fill:#44257D;}
	.st2{fill:#FFFFFF;}
	.st3{fill:none;}
	.st4{font-family:'LucidaBright-Demi';}
	.st5{font-size:7.9794px;}
</style>
<g id="Capa_1_2_">
	<g id="Capa_1_1_">
	</g>
</g>
<g id="_x3C_Capa_x3E_">
	<g>
		<circle class="st0" cx="66.4" cy="66.4" r="63.8"/>
		<path class="st1" d="M96.2,57.6c-0.4,0.3-0.8,0.6-1.3,0.7c-0.5,0.2-1,0.3-1.6,0.3c-1.1,0-2-0.4-2.8-1.2c-0.8-0.8-1.2-1.8-1.2-3
			h9.5c0-1.4-0.4-2.6-1.2-3.6c-1.1-1.4-2.5-2-4.3-2c-1.8,0-3.1,0.7-4.2,2c-0.8,1-1.2,2.2-1.2,3.6c0,1.4,0.5,2.7,1.5,3.8
			s2.3,1.7,4,1.7c0.8,0,1.5-0.1,2.1-0.3c0.6-0.2,1.2-0.6,1.7-1s0.9-1,1.3-1.8l-1.1-0.6C97,56.8,96.6,57.3,96.2,57.6z M90.8,51.1
			c0.7-0.7,1.6-1,2.7-1c0.6,0,1.2,0.1,1.8,0.4c0.6,0.3,1,0.6,1.4,1c0.3,0.4,0.6,1,0.8,1.7h-7.8C89.8,52.3,90.2,51.6,90.8,51.1z"/>
		<path class="st1" d="M96.2,57.6c-0.4,0.3-0.8,0.6-1.3,0.7c-0.5,0.2-1,0.3-1.6,0.3c-1.1,0-2-0.4-2.8-1.2c-0.8-0.8-1.2-1.8-1.2-3
			h9.5c0-1.4-0.4-2.6-1.2-3.6c-1.1-1.4-2.5-2-4.3-2c-1.8,0-3.1,0.7-4.2,2c-0.8,1-1.2,2.2-1.2,3.6c0,1.4,0.5,2.7,1.5,3.8
			s2.3,1.7,4,1.7c0.8,0,1.5-0.1,2.1-0.3c0.6-0.2,1.2-0.6,1.7-1s0.9-1,1.3-1.8l-1.1-0.6C97,56.8,96.6,57.3,96.2,57.6z M90.8,51.1
			c0.7-0.7,1.6-1,2.7-1c0.6,0,1.2,0.1,1.8,0.4c0.6,0.3,1,0.6,1.4,1c0.3,0.4,0.6,1,0.8,1.7h-7.8C89.8,52.3,90.2,51.6,90.8,51.1z"/>
		<g>
			<path class="st2" d="M18,44.6v1l0.2,0c0.7,0.1,1.2,0.2,1.3,0.4c0.1,0.2,0.2,0.8,0.2,1.7V59c0,1.3-0.1,2.2-0.4,2.8
				s-0.7,0.8-1.4,0.8c-0.7,0-1.1-0.4-1.2-1.3c0-0.2,0-0.4,0-0.6l0-0.2h-1.6v2.8c1,0.2,1.9,0.3,2.6,0.3c1.9,0,3.2-0.4,4-1.3
				c0.8-0.9,1.2-2.3,1.2-4.3V47.7c0-1,0.1-1.5,0.2-1.7c0.1-0.2,0.6-0.3,1.3-0.4l0.2,0v-1H18L18,44.6z"/>
		</g>
		<g>
			<path class="st2" d="M39,59.4c-0.7,0-1.2-0.2-1.3-0.4c-0.1-0.2-0.2-0.8-0.2-1.7v-8.7h-4.9v1l0.2,0c0.7,0,1.2,0.2,1.3,0.4
				c0.1,0.2,0.2,0.8,0.2,1.7V57c-0.4,0.6-0.9,1-1.3,1.3c-0.5,0.3-0.9,0.4-1.5,0.4c-0.5,0-0.9-0.2-1.1-0.5C30.1,58,30,57.4,30,56.6
				v-8h-4.9v1l0.2,0c0.7,0,1.2,0.2,1.3,0.4c0.1,0.2,0.2,0.8,0.2,1.7V57c0,1.2,0.3,2.1,0.9,2.7s1.4,1,2.5,1c0.9,0,1.6-0.2,2.3-0.6
				c0.7-0.4,1.2-1,1.7-1.9v2.2h4.9v-1L39,59.4z"/>
		</g>
		<g>
			<path class="st2" d="M48.5,48.4c-1.5,0-2.8,0.8-3.8,2.5v-2.2h-4.9v1l0.2,0c0.7,0,1.2,0.2,1.3,0.4c0.1,0.2,0.2,0.8,0.2,1.7v5.6
				c0,1-0.1,1.5-0.2,1.7c-0.1,0.2-0.6,0.3-1.3,0.4l-0.2,0v1h6.9v-1l-0.2,0c-0.9-0.1-1.4-0.2-1.6-0.4c-0.2-0.2-0.2-0.8-0.2-1.7V52
				c0.6-1,1.3-1.5,2.2-1.5c0.3,0,0.5,0,0.5,0.2c0,0.1,0.1,0.5,0.2,1.3l0,0.2h1.5v-3.8C48.9,48.4,48.7,48.4,48.5,48.4z"/>
		</g>
		<g>
			<path class="st2" d="M56.4,59.4c-0.7,0-1.2-0.2-1.3-0.4c-0.2-0.2-0.2-0.8-0.2-1.7v-8.7H50v1l0.2,0c0.7,0,1.2,0.2,1.3,0.4
				c0.1,0.2,0.2,0.8,0.2,1.7v5.6c0,1-0.1,1.5-0.2,1.7c-0.1,0.2-0.6,0.3-1.3,0.4l-0.2,0v1h6.6v-1L56.4,59.4z M51.7,43.5v3.2h3.2v-3.2
				C54.9,43.5,51.7,43.5,51.7,43.5z"/>
		</g>
		<g>
			<path class="st2" d="M64.2,53.6l-1-0.4c-0.9-0.3-1.5-0.6-1.8-0.9c-0.3-0.2-0.4-0.6-0.4-1c0-0.5,0.2-1,0.6-1.3
				c0.4-0.4,0.9-0.5,1.4-0.5c1.3,0,1.9,0.6,1.9,1.7l0,0.5l0,0.2h1.5V49c-1.3-0.4-2.5-0.6-3.7-0.6c-1.5,0-2.7,0.3-3.5,1
				C58.4,50,58,50.8,58,51.9c0,1.5,1.1,2.7,3.4,3.6l1,0.4c1.3,0.5,2,1.2,2,2c0,0.5-0.2,1-0.6,1.3s-0.8,0.5-1.4,0.5
				c-1.1,0-2-0.3-2.5-1c-0.2-0.2-0.4-0.8-0.4-1.7l0-0.2H58v3c1.3,0.5,2.8,0.8,4.6,0.8c1.4,0,2.6-0.3,3.5-1c0.9-0.7,1.4-1.6,1.4-2.7
				C67.5,55.6,66.4,54.4,64.2,53.6z"/>
		</g>
		<g>
			<g>
				<path class="st2" d="M96.2,57.6c-0.4,0.3-0.8,0.6-1.3,0.7c-0.5,0.2-1,0.3-1.6,0.3c-1.1,0-2-0.4-2.8-1.2c-0.8-0.8-1.2-1.8-1.2-3
					h9.5c0-1.4-0.4-2.6-1.2-3.6c-1.1-1.4-2.5-2-4.3-2c-1.8,0-3.1,0.7-4.2,2c-0.8,1-1.2,2.2-1.2,3.6c0,1.4,0.5,2.7,1.5,3.8
					s2.3,1.7,4,1.7c0.8,0,1.5-0.1,2.1-0.3c0.6-0.2,1.2-0.6,1.7-1s0.9-1,1.3-1.8l-1.1-0.6C97,56.8,96.6,57.3,96.2,57.6z M90.8,51.1
					c0.7-0.7,1.6-1,2.7-1c0.6,0,1.2,0.1,1.8,0.4c0.6,0.3,1,0.6,1.4,1c0.3,0.4,0.6,1,0.8,1.7h-7.8C89.8,52.3,90.2,51.6,90.8,51.1z"/>
			</g>
		</g>
		<g>
			<path class="st2" d="M108.6,40.5h-37v24.1h31l-4.7-5c-1.2,1-2.7,1.6-4.4,1.6c-3.8,0-6.9-3.1-6.9-6.9s3.1-6.9,6.9-6.9
				c3.8,0,6.9,3.1,6.9,6.9c0,1.7-0.6,3.3-1.7,4.5l6.1,5.8h12.1V50.4v-2.8L108.6,40.5z M86.5,60.4H77v-17h2.2v15.1h7.2V60.4
				L86.5,60.4z M109.7,60.4l-1.8-2.7c-0.5-0.7-0.9-1.4-1.3-2.1h-0.1c-0.4,0.7-0.8,1.4-1.3,2.1l-1.8,2.7H101l4.3-6.2l-4.1-6h2.5
				l1.7,2.6c0.5,0.7,0.9,1.3,1.3,2h0.1c0.4-0.7,0.8-1.3,1.2-2l1.7-2.6h2.4l-4.2,5.9l4.2,6.3L109.7,60.4L109.7,60.4z"/>
		</g>
		<rect x="15.1" y="83" class="st3" width="101.9" height="18.5"/>
		<text transform="matrix(1 0 0 1 19.5067 89.1266)" class="st2 st4 st5">Sistema de Consulta de </text>
		<text transform="matrix(1 0 0 1 17.3421 98.7008)" class="st2 st4 st5">Tesis por Ordenamiento</text>
	</g>
</g>
</svg>
