<?xml version="1.0" encoding="utf-8"?>
<!-- Generator: Adobe Illustrator 24.0.3, SVG Export Plug-In . SVG Version: 6.00 Build 0)  -->
<svg version="1.1" id="Capa_1" xmlns="http://www.w3.org/2000/svg" xmlns:xlink="http://www.w3.org/1999/xlink" x="0px" y="0px"
	 viewBox="0 0 133 133.9" style="enable-background:new 0 0 133 133.9;" xml:space="preserve">
<style type="text/css">
	.st0{fill:#24135F;}
	.st1{fill:none;}
	.st2{fill:#FFFFFF;}
	.st3{font-family:'LucidaBright-Demi';}
	.st4{font-size:8px;}
</style>
<g id="Capa_1_1_">
</g>
<g id="Inamovibles">
	<g>
		<circle class="st0" cx="66.2" cy="66.4" r="64"/>
		<rect x="9.5" y="83.3" class="st1" width="113.9" height="18"/>
		<text transform="matrix(1 0 0 1 23.323 89.4337)" class="st2 st3 st4">Gaceta del Semanario </text>
		<text transform="matrix(1 0 0 1 16.923 99.0337)" class="st2 st3 st4">Judicial de la Federación</text>
		<g>
			<path class="st2" d="M68.6,76.1l-1.8-0.9l-0.1-0.3l0.2-0.3l0.2-0.2l1.6,0.8l0.3,0.4v0.1l-0.3,0.4L68.6,76.1L68.6,76.1L68.6,76.1z
				 M65,76L65,76l0.3-0.4l0.3-0.3L66,75l0.3-0.3l0.2-0.1l0.1-0.2l0.2-0.1l0.2-0.1L67,74l0.2-0.1l0.1-0.1l0.2-0.3l0.1-0.2v-0.2
				L67.4,73l0.4-0.4l0.1-0.5l0.1-0.4l-0.1-0.5l-0.1-0.4l-0.1-0.1l-0.1-0.1l-0.1-0.1h-0.2l-0.2,0.2L67,70.7l-0.1,0.1l0.1,0.4v0.2
				l-0.1,0.2l0.2,1.3V73l-0.1,0.1l-0.2,0.1l-0.1-0.1l-0.1-0.1h-0.1L66.7,73l-0.2,0.3l-0.2,0.2l-0.4,0.4l-0.5,0.4L65,74.7l-0.2,0.1
				l-0.3,0.6l0.1,0.2l0.1,0.2l0.2,0.2L65,76L65,76z M62.9,75.5l0.4-0.2l0.3-0.2l0.3-0.3l0.3-0.3l0.4-0.3l0.2-0.2l0.3-0.1l0.7-0.5
				l-0.1-0.2l0-0.1h-0.1l-0.3-0.2h-0.2l-0.2,0.1L64.6,73l-0.3,0.2L64,73.4l-0.6,0.4l-0.2,0.1L63.2,74l-0.4,0.6l0,0.9L62.9,75.5
				L62.9,75.5L62.9,75.5z M70.2,75.2l0.7-0.1V75v-0.1l-0.1-0.2l-0.4-0.4L70,74.1l-0.5-0.3l-0.3-0.1l-0.3-0.1l-0.4-0.2l-0.3-0.2
				L68,73.2l-0.1,0.1l-0.1,0.3v0.2l0.1,0.2l0.1,0.2l0.1,0.1h0.2l0.2,0.1l0.3,0.2l0.3,0.2l0.3,0.1l0.2,0.2l0.2,0.1l0.2,0.1L70.2,75.2
				z M74.4,74.2l0.2-0.1l0.2-0.1H75h0.3h0.2l0.1-0.1l0.3-0.1l0.3-0.1l0.3-0.1l0.3-0.1l0.5-0.2l0.3-0.1l0.2-0.2l0.3-0.1l0.2-0.2
				l0.3-0.2l0.3-0.1l0.3-0.1l0.3-0.1l0.1-0.1v-0.1l-0.1-0.1l-0.1-0.1l-0.2,0.1l-0.3,0.1l-0.3,0.1l-0.3,0.2l-0.3,0.1l-0.3,0.1
				l-0.1,0.1h-0.1L77.2,73l-1.9,0.7v-0.1v-0.1l0.3-0.1l0.3-0.1l0.2-0.1l0.2-0.2l0.5-0.2l0.4-0.2l0.4-0.2l0.5-0.1l0.3-0.3l-0.1-0.1
				l-0.1-0.1h-0.2l-0.8,0.3l-0.7,0.2l-0.2,0.2L76,72.6l-0.3,0.2l-2.9,0.8l-0.1,0.1l0.1,0.1l0.2,0.1l0.2,0.1l0.2,0.1l0.2,0.1H74
				l0.2,0.1L74.4,74.2L74.4,74.2L74.4,74.2z M70.6,73.9l0.6-0.2l0.1-0.2l-0.1-0.2l-0.2-0.2l-0.5-0.4l-0.8-0.4l-0.4-0.2l-0.4-0.2
				l-0.2-0.1l-0.2-0.1l-0.1,0.1l0,0.1v0.3l1.6,1.1l0.1,0.2l0.2,0.2L70.6,73.9z M62.2,73.6l0.5-0.2l0.4-0.2l0.9-0.4l0.5-0.2l0.5-0.3
				H65l0.1-0.1l0.1-0.3L65.1,72v-0.1l-0.2-0.1h-0.2h-0.2l-0.3,0.1L63.9,72l-0.2,0.1h-0.2l-0.1,0.1l0,0.1l-1.3,0.5l-0.1,0.1l0,0.2
				v0.4L62.2,73.6L62.2,73.6L62.2,73.6z M72.9,73.1l1.7-0.2l3-1.1l0.3-0.3l0.3-0.2l0.7-0.4l0.2-0.3l0.1-0.1l0.1-0.2l-0.1-0.1
				l-0.3-0.1h-0.3l-0.3,0.1l-0.3,0.1l-0.6,0.2L77,70.8l-0.4,0.3l-0.5,0.3l-1,0.4L74.8,72l-0.3,0.1l-0.3,0.1l-0.3,0.2h-0.4h-0.2
				L73,72.4L73,72.3l-0.1-0.1L73,72l0.2-0.1h0.2l0.2-0.1l0.2-0.1h0.2l0.2-0.1h0.2h0.2l0.2-0.1l0.2-0.1l0.2-0.1l0.2-0.1l0.2-0.1
				l0.4-0.2l0.2-0.1l0.2-0.2l0.2-0.1l0.2-0.1l0.2-0.1l0.2-0.1l0.4-0.2l0.4-0.2l0.4-0.1l0.4-0.1l0.1-0.1l-0.2-0.1l-0.3-0.1l-0.5,0.1
				l-1,0.1L76.6,70l-0.2,0.1l-0.2,0.1l-0.2,0.1l-0.4,0.2l-0.3,0.1H75l-0.2,0.1l-0.4,0.2l-0.7,0.3L73,71.5l-0.4,0.1l-0.4,0.1h-0.4
				l-0.4-0.1h-0.4l-0.4-0.1l-0.8-0.3L69.6,71h-0.2l-0.2,0l-0.2-0.1l-0.4-0.1l-0.2,0.1L68.2,71l-0.1,0v0.1l0.1,0.2l0.1,0.1l0.2,0.1
				h0.2l0.2,0.1l0.3,0.1l0.1,0.1h0.2l1.1,0.4l0.5,0.3l0.4,0.3l0.4,0.2l0.4,0.1l0.2,0.1l0.1,0.1L72.9,73.1z M58.5,72.9l1-0.9h0.3
				l0.2,0.1l0.3,0.1l0.2,0.1l0.2,0.5h0.1l0.7-1v-0.1h-0.2H61l-0.4,0.1h-0.2h-0.2l-0.2-0.1l-0.2-0.1l-0.4-0.6h-0.1l0,0.3l0,0.1
				l-0.1,0.1l-0.2,0.1H59l-0.7-0.3v-1l0-0.1v-0.1v-0.7l0.1-0.2l0.2-0.1l0.2-0.1l0.2,0.1l0.2,0.1l0.2,0.1l0.3,0.4l0.2,0.3l0.5,0.3
				l0.1-0.1l0.1-0.1l0.2-0.1h0.2l0.2,0.1l0.2,0.2l0.8,0.4l0.3-0.1l0.2,0l0.5-0.1l0.3-0.1l0.3-0.1h0.6l0.4,0.1l0.1,0.1l0.2,0.2
				L65,71.5h-0.1h-0.2h-0.1l-0.1,0.1h-0.3L64,71.6l-0.2,0.1l-0.3,0.1l-0.5,0.3l-0.3,0.2l-0.2,0.3L62,72.5l-0.4,0.2L61.3,73l-0.4,0.3
				l-0.3,0.3l-0.4,0.2L59.8,74l-0.2,0.1h-0.3L59,74v-0.1l0.5-0.8v-0.1L59.4,73l-1.2,0.8v-1.9l0.2,0.1l0.2,0.2l-0.3,0.7h0L58.5,72.9
				L58.5,72.9L58.5,72.9z M57.6,71.8l-0.2-0.1L56.7,72l0-0.1v-0.2l0-0.1l-0.1-0.1l-0.2-0.1L56,71.4l-0.2-0.1l-0.2-0.1l-0.3-0.1
				l-0.1-0.1l0-0.1V71l0.1,0l0.1-0.1v-0.1l0-0.2l0.2,0.1l0.6,0.3l0.5,0.2l0.7-0.1l0-0.2v0v-0.1h0.2l0.2,0.1l0.2,0.2l0.3,0.1v-1h-0.2
				l-0.2-0.1l-0.2-0.2l-0.2-0.2l-0.2-0.2l-0.3-0.2l-0.8,0.1l0,0.6l0,0.1L56,70.3h-0.1l-0.2-0.1l-0.2-0.1L55.3,70l-0.4-0.2l-0.2-0.1
				l-0.2,0.1l-0.2,0.2v0.1l-0.1,0.2l-0.1,0.2l-0.3,0.2l-0.3,0.1h-0.1h-0.1L53,71.2l-0.1,0.2l-0.1,0.2l0,0.3l0.5,0.2l0.3-0.1h0.3
				l0.6,0.1l0.6,0.2l0.2-0.1l0.1,0.1l0.1,0.1l-0.5,0.7l0.1,0.1l0.2,0.2l0.3,0.1l0.3-0.1l0.2-0.1l0.2-0.2l0.2-0.1l0.4-0.2l0.1-0.1
				l0,0.1l0,0.9l0,0.1l0.1,0.1l0.2,0.1l0.2,0.1l0.2,0.1l0.4-0.3v-1.9L57.6,71.8z M65.8,72.9l0.2-0.1l0.2-0.1l0.1-0.1l0.1-0.2
				l-0.1-0.2l0-0.3v-0.5v-0.3V71l-0.1-0.3L66,70.5l-0.1-0.1h-0.3l-0.1,0.1l0,0.1V71v0.3l-0.1,0.1l-0.1,0.2l0.1,0.9l0,0.1l0.1,0.1
				L65.8,72.9z M81.1,71.4l0.4-0.1l0.2-0.1l0.1-0.1l0.1-0.1l-0.2-0.5l-0.9-0.3l-0.2-0.1L80.4,70l-0.1-0.2v-0.1l0.3-0.4l0.4-0.3
				l0.4-0.3l0.4-0.2l0.9-0.4l0.4-0.2l0.4-0.3l0.4-0.1l0.3-0.2l0.3-0.2l0.3-0.3l0.5-0.5l0.3-0.2l0.3-0.2l0.1-0.1l0.1-0.1l0.1-0.2
				l0.1-0.1l0.2-0.3l0.1-0.3l0.1-0.4v-0.4l-0.1,0l-0.3,0.3L86,64.7L85.7,65l-0.3,0.3l-0.5,0.5L84.4,66L84,66.4l-0.4,0.3L83.2,67
				l-0.7,0.6h-0.1v-0.1l0.2-0.2l0.4-0.5l0.5-0.4L84,66l0.6-0.4l0.5-0.4l0.5-0.4l0.4-0.5l0.2-0.3l0.2-0.3l-0.1-0.1l0-0.1h-0.1
				L85,64.3l-0.4,0.3l-0.2,0.2l-0.2,0.1L84,65.1l-0.3,0.3l-0.9,0.9L82,67.1h0v-0.2l0-0.1l0.1-0.2l0.2-0.2l0.2-0.2l0.6-0.5l0.3-0.3
				l0.2-0.3l0.2-0.1l0.4-0.9V64L84,64l-0.2,0.1l-0.2,0.1l-0.3,0.4L83,65l-0.2,0.2l-0.2,0.2l-0.3,0.3L82.1,66l-0.2,0.3l-0.1,0.2
				l-0.1,0.2l-0.1,0.1l-0.1-0.1l-0.1-0.1l0.1-0.3l0.2-0.2l0.2-0.3l0.2-0.2l0.4-0.4l0.4-0.4l0.1-0.1l0.1-0.1l0.1-0.1l0.1-0.1l0.3-0.3
				l0.3-0.3l0.2-0.4l0.2-0.4l-0.1,0H84l-0.4,0.7l-0.2,0l-1.3,1.2l-0.9,0.9l-0.1,0.3L81,66l-0.1,0.3l-0.1,0.3l-0.1,0.2L80.8,67
				l-0.1,0.2l-0.1,0.2l0.1,0.3l0.1,0.3l0.2,0.1l-0.2,0.2l-0.2,0.2L80,68.7l-0.1-0.1l-0.1-0.2l0.2-0.9l-0.2-0.4l-0.4-0.2L79.3,67
				l-0.2-0.1L79.1,67L78.9,67l-0.1,0.2l-0.1,0.3l0.1,0.3l0.1,0.3l0.1,0.2l0.4,0.9l-0.1,0.3v0.2l0.1,0.1l0.2,0.2l0.2,0.2l0.1,0.2
				l0.1,0.2L81.1,71.4z M71.6,71.3l0.3,0.1h0.3l0.6-0.1l0.5-0.2l0.6-0.2l0.3-0.2l0.3-0.1l0.3-0.2l0.3-0.1l1.5-0.7h0.4l0.2-0.1
				l0.2-0.1l0.1-0.1v-0.2l-0.7-0.1l-0.1,0.1l-0.2,0.1h-0.1h-0.2l-0.1,0.1H76l-0.2,0.1l-0.4,0.2l-0.4,0.2L74.8,70h-0.2l-0.5,0.3
				l-0.5,0.2l-0.5,0.2l-0.3,0.1l-0.3,0.1l-0.1-0.1l0.7-0.4l0.7-0.3l1.5-0.6l0.3-0.1l0.3-0.1l0.3-0.1l0.3-0.1h0.3L77,69l0.1-0.1
				l0.1-0.1l0.1-0.1l-0.1-0.1l-0.1-0.1h-0.3h-0.5l-0.5,0.2L75.2,69L75,69l-0.2,0.1l-0.3,0.1l-0.2,0.1l-0.2,0.2H74l-0.1,0.1l-0.5,0.3
				L73.1,70l-0.2,0.3l-1.4,0.9l-0.1,0.1l0.1,0.1L71.6,71.3z M65.6,70h0.1h0.2l0.2-0.1l0.2,0.1l0.3-0.1l0.3-0.1h0.7l0.6,0.1h0.7H69
				h0.3l0.2-0.1h0.2l1-0.3l0.2-0.2v-0.2l-0.1-0.1L70.7,69L62.8,69l0,0.2l0,0.2l0.1,0.2l0.2,0.1l0.4,0.1h0.5l0.5,0.1L65.6,70z
				 M82.8,69.4l0.7-0.1l0.7-0.1l0.2-0.1l0.2-0.1l0.3-0.1l0.5-0.2l0.4-0.3l0.4-0.3l0.4-0.2l0.2-0.2l0.2-0.2l0.2-0.2l0.1-0.2l0.3-0.3
				l0.2-0.3l0.1-0.3v-0.4v-0.1l-0.1-0.1l-0.2,0.2L87.2,66l-0.3,0.5l-0.3,0.4l-0.2,0.2l-0.2,0.1l-0.4,0.4L85.4,68L85,68.2l-0.5,0.2
				v-0.1l0.1-0.1l0.1-0.1l0.3-0.2l0.1-0.1l0.2-0.1l0.3-0.3l0.5-0.3l0.4-0.4l0.4-0.5l0.3-0.6L87,65.6l-0.1,0l-0.2,0.1l-0.2,0.2
				l-0.4,0.4l-0.4,0.4l-0.4,0.4L85,67.1l-0.2,0.2l-0.3,0.2l-0.3,0.2L84,68l-0.3,0.2l-0.2,0.1l-0.2,0.2l-0.2,0.1l-0.2,0.1l-0.3,0.1
				l-0.3,0.1L82,68.8l-0.1,0.1l-0.1,0.1l0.1,0.2L82.8,69.4z M54.3,69.4L54.3,69.4l0.1-0.1L54.3,69v-0.4v-0.4l0.1-0.3v-0.2v-0.1
				l-0.2-0.1l-0.1-0.2l0-0.2L54,67l-0.2-0.3l-0.4-0.1l-0.2,0.1l-0.1,0.2l0,0.4l0,0.4v0.4l0,0.2l0.1,0.2l0.3,0.3l0.2,0.1l0.1,0.2
				L54.3,69.4z M71.3,69L71.3,69l0.2-0.1h0.2l0.3-0.1l0.2-0.2l0.2-0.2l0.1-0.1l0-0.3v-0.2l0-0.2l-0.2-0.8l-0.1-0.3l0.1-0.2l0.1-0.2
				V66v-0.2l-0.1-0.4L72.2,65l-0.1-0.2l0.1-0.2l0.1-0.1l0.1-0.2V64l-0.1-0.3l-0.1-0.3l-0.2-0.2L72,63.1h-0.1L71.7,63l-0.1-0.1h-0.2
				l-0.2-0.1l-0.1,0l-0.1,0l0,0.1l-0.3,0.2l-0.2,0.2l-0.2,0.3l-0.1,0.3l0.1,0.2l0.1,0.2h0.2h0.1l0.1-0.1l0.2-0.2l0.2,0l0.2,0
				l0.1,0.2l-0.1,0.3l-0.1,0.4l0.1,0.3l0.1,0.4l0.1,0.3v0.3l-0.1,0.6L71.3,67l-0.1,0.1l0.1,0.3l0.1,0.2v0.3l-0.1,0.1l-0.1,0.1
				l-0.6-0.3h-0.1l-0.1,0.1l-0.1,0.2v0.2l0.1,0.2l0.1,0.1l0.1,0.2h0.1l0.2,0.2L71.3,69L71.3,69L71.3,69z M61.9,68.8h0.7l0.4-0.3
				l0.3-0.4l0.1-0.2l-0.1-0.1l0-0.1L63,67.5h-0.2l-0.1,0.1l-0.2,0.2L62.5,68L62.4,68h-0.2L62.1,68l0-0.1l0-0.1l0.3-0.5l-0.2-0.6
				L62,66l0-0.6v-0.3l0.1-0.3v-0.3l0-0.2l0-0.5l-0.1-0.2l0.1-0.1l0.2-0.1h0.1l0.1,0.1l0.1,0l0,0.1l0.1,0.2l0,0.2l0.3-0.1l0.1-0.1
				v-0.2v-0.2l0-0.2l-0.1-0.3l-0.1-0.2l0-0.1l-0.1,0l-0.2,0l-0.3-0.1L62,62.4l-0.1,0h-0.1l-0.2,0.2l-0.1,0.2l-0.2,0.1L61,63.6
				l0.1,0.2v0.2l0.1,0.4v1v1v1l0.1,1L61.9,68.8L61.9,68.8L61.9,68.8z M69.1,68.8h0.2h0.1l0.1-0.1l-1.5-3.2l-0.2-0.1l-0.3-0.1l0,0.1
				v0.2v0.3l0.1,0.4l0.2,0.4l0.3,0.7l0.1,0.4l0.2,0.3l0.2,0.3l0.2,0.3l0.2,0.1L69.1,68.8z M66.4,68.8L66.4,68.8l0.2-0.2l0.1-0.1
				l-0.1-0.1l-0.2-0.2L66.3,68l-0.2-0.5l-0.4-1L65.6,66l-0.2-0.4l-0.2-0.4L65,64.7l-0.2-0.4l-0.2-0.2L64.5,64l-0.4-0.1L64,63.9l0,0
				l0,0.2l0.3,0.5l0.3,0.5l0.4,1.1l0.2,0.6l0.1,0.3l0.1,0.3l0.1,0.1l0.1,0.1l0.5,0.9l0.1,0.2L66.4,68.8z M67.7,68.8h0.2H68l0.1-0.1
				L68,68.4l-0.2-0.2L67.7,68l-0.1-0.2l-0.1-0.3l-0.2-0.3l-0.2-0.3L67,66.4l-0.2-0.3l-0.1-0.4l-0.2-0.3l-0.2-0.3l-0.1-0.2l-0.1-0.2
				l-0.2-0.3l-0.7-0.4l-0.1,0.1l-0.1,0l-0.1,0.2l0.4,0.8l0.4,0.8l0.3,0.9l0.3,0.9l0.4,0.7l0.2,0.4L67.7,68.8L67.7,68.8L67.7,68.8z
				 M51.2,68.3l0.7-0.1v-0.2L51.7,68l-0.4-0.1l-0.2-0.1L51,67.6l-0.3-0.3L50.6,67l-0.1-0.4l-0.1-0.3l-0.1,0.1l-0.1,0l0,0.1l-0.1,0.1
				L50,66.5l-0.1,0v-1.5l0.1-0.1l0.1-0.1l0-0.3l0.1-0.3l0.1-0.1l0.1-0.1l0.5,0.4l0.2,0.4l0.1,0.3l0.1,0.3v0.3v0.2l0,0.2l0.2,0.5
				l0.1,0.1l0.1,0l0.4-0.3l0,0.1l0.2,0.3l0,0.2v0.2l0.1,0.4l0.2,0.3l0.2,0.3l0.3,0.3l0.5,0.5l0.5,0.5v0.1l0,0.1v0.1l-0.3,0.1
				l-0.2,0.1L53.4,70l-0.2,0.1l-0.7,0.3l-0.2,0.4L52,71h-0.1l-0.5-0.7h-0.1l-0.1,0.1l-0.1,0.1l-0.1,0.1h-0.2l-0.1-0.1l-0.1-0.1
				l-0.1-0.1v-0.3V70l0.1-0.1l0.1-0.1l0.3-0.1l0.2-0.1l0.2-0.1l0.2-0.2l0.2-0.1h0.1l0.2,0.1l0.1,0.1l0.2,0.2l0.1,0.1h0.2l0-0.1
				l0.1-0.2l-0.1-0.2l-0.2-0.1l-0.3-0.1l-0.2-0.1h-0.2h-0.1h-0.3h-0.3L50.9,69l-0.2-0.1l-0.3,0.2L50.3,69l-0.1-0.1L50,68.6l-0.2-0.1
				v-0.8l0.3,0.1h0.3l0.3,0.1l0.1,0.1l0.1,0.1l0.1,0.1L51.2,68.3L51.2,68.3L51.2,68.3z M49.5,67.7v-0.1l0.2-0.2l0-0.2l0-0.1
				l-0.2-0.3l-0.3-0.3l-0.5-0.3L48.7,66l0.1-0.1l0-0.1v-0.1l-0.9-1.4v-0.2l0.1-0.2h0l0.6,0.8h0.1l0.1,0l0.1,0.1l0,0.2l0.1,0.2
				l0.1,0.2l0.1,0.2l0.3,0.4l0.2,0.2l0.2,0.1v-1.5L49.8,65l-0.1-0.1l-0.1,0l0-0.4l0-0.4v-0.8l-0.2-0.4l-0.1-0.2l-0.1-0.2l-0.2,0
				h-0.2l-0.2,0l-0.1,0.1l0,0.2l0,0.1h-0.1l-0.2-0.2l-0.2-0.2l-0.2-0.2l-0.1,0l-0.1,0l-0.1,0v0.1l0,0.2l0,0.1v0.1l-0.1,0.5l-0.9,0.2
				l0,0.1v0.1l0,0.2v0.1l0.7,0.5l0.2,0.2l-0.1,0l-0.6,0.1l-0.1-0.1h-0.1l0,0.1h-0.1l0,0.1v0.1v0.1l0,0.2l0.1,0.3l1.1,0.5l0,0
				l0.1-0.1l0.2,0.1l0.2,0.1l0.3,0.2l0.2,0.1l0,0.1l0.1,0.1l-0.1,0.1l-0.2,0.1l-0.2,0.1L48,67.2l-0.2,0.1h-0.3l-0.1,0.1l0,0.1v0.3
				l0.3,0.3l0.4,0.2l0.4,0.2l0.4,0.1l0.6-0.1h0.3l0.2,0.1v-0.8L49.5,67.7L49.5,67.7z M58.2,68.2l0.2-0.2l0.1-0.1l0.1-0.2v-0.2v-0.2
				l-0.1-0.1l-0.1-0.1l-0.2,0.2L58,67.6l0,0.2l0,0.3v0.1L58.2,68.2L58.2,68.2L58.2,68.2z M59.8,68.1h0.5l0.3-0.1l0.1-0.1l0.1-0.1
				v-0.1v-0.2l0-0.1l-1.5-0.3l-0.2,0.1l0,0.2v0.1l0,0.1L59.8,68.1z M73.1,68.1l1.1-0.5l0.7-0.1l0.1-0.1l0.1-0.1l-0.2-0.2L74.8,67
				h-0.2L74.4,67h-0.1L74.1,67l-0.2,0.1l-0.3,0.1l-0.3,0.2l-0.2,0.1l-0.2,0.2l-0.1,0.2V68l0.1,0.1L73.1,68.1z M76,68l0.3-0.1
				l0.3-0.1l0.2-0.2l0.2-0.2l0.1-0.6v-0.2L77,66.4l-0.2-0.2l-0.2-0.1L76,65.9L75.8,66l-0.2,0.2l-0.2,0.2l-0.1,0.2l-0.1,0.6l0.1,0.3
				l0.1,0.3L76,68z M57,67.5v-0.5l0.4-0.2l0.6,0.2l0.1,0.3l-0.2,0.2l-0.1,0.1v0.1v0.8L57,68.6v-0.7l0.2-0.1v-0.2v-0.1L57,67.5
				L57,67.5z M56.9,67.8L56.9,67.8v-0.3l0-0.1l0.1-0.1v-0.5l-0.8,0.2l-0.1,0.2L56,67.5l-0.1,0.2l0.1,0.2l0.1,0.1l0.1,0.1v0.2v0.1
				l0,0.1l0.3,0.1H57v-0.7v0.1L56.9,67.8z M76.1,67.1l0.2-0.1V67l-0.1-0.2L76,66.7L76,66.7l-0.1,0.1L76,67l0.1,0.1L76.1,67.1
				L76.1,67.1L76.1,67.1z M58.7,67L58.7,67l0.5-0.4l0-0.9l-0.2,0l-0.1,0l-0.1,0.5l-0.2,0.6L58.7,67L58.7,67z M74.4,66.6h0.4l0.1-0.1
				l0.1-0.1L75,66.3L75,66.2V66l0.1-0.2l0.2-0.1l0.2,0l0.4-0.2l0.4-0.1l0.2,0l0.2-0.2l0.1-0.1l-0.1-0.2l-0.2-0.2l-1.9,0.7l-0.1,0.2
				l-0.1,0.2l-0.1,0.2v0.3l0.1,0.2l0.1,0.2L74.4,66.6L74.4,66.6z M58.3,65.8l0.2-0.1l0.1-0.1l0-0.2l-0.1-0.1l-0.1-0.1l-0.3-0.1
				l-0.3-0.1l-0.3-0.1l-1.1-0.3l-0.5,0l-0.6-0.1l0,0.1L55,64.7v0.1l0.1,0.1l0,0.1h0.3h0.2l0.4,0.2l0.4,0.1l0.2,0.1l0.2,0l0.2,0.1
				l0.2,0.1h0.2l0.2,0l0.2,0.1h0.1L58.3,65.8z M77.6,65.3l0.2-0.1l0.2,0.1l0.6-0.3l0.3-0.2l0.1-0.2l0.1-0.2l-0.3-0.1l-0.4,0l-0.4,0
				l-0.4,0.1l-0.1-0.1l-0.1,0l0.1-0.1l0.1-0.1l0.6,0h0V64h1l0.1,0l0.1-0.1l-0.1-0.2l-0.2,0l-0.4-0.1l-0.8-0.1h-0.2l-0.2,0l-0.2,0.1
				l-0.2,0.1L77,63.8L76.9,64l-0.1,0.2v0.2l0.1,0.3l0.1,0.2L77,65l0.1,0.1l0.1,0h0.1l0.1,0.1L77.6,65.3z M53.8,64.5v-0.6l0.5,0.1
				l0.1,0.1l0.1,0.1l0.1,0.3l0,0.3v0.4l0,0.1l-0.4,0.3l-0.2,0.1l-0.3,0v-0.7l0.1,0l0.1-0.1l0-0.1v-0.1l0-0.1L54,64.6L53.8,64.5
				L53.8,64.5z M53.7,65L53.7,65l0-0.3l0-0.1l0.1-0.1h0v-0.6l-0.2-0.1h-0.2L53.3,64h-0.1l-0.1,0l0,0.2L53,64.5v0.4v0.4l0.2,0.3
				l0.2,0.1l0.2,0.1l0.3-0.1v-0.7h0L53.7,65z M67.6,65.1l0.4,0h0.5H69l0.4-0.1l0.1,0h0.1l0.2-0.3l0.1-0.3l0.1-0.3l0.1-0.3v-0.3
				l0.1-0.2l0.1-0.2l0.2-0.2l0.3-0.2l0.3-0.1l0.7-0.2l0.7-0.1l0.6,0l0.4,0.1l0.2,0l0.2,0l0.1,0l0.1-0.1l0.1-0.2v-0.2l0.1-0.1
				l0.1-0.1l0.2-0.3l0.2-0.2l0.4-0.4l0.2-0.2l0.2-0.3l0.2-0.3l0.1-0.3l0.1-0.2l-0.1-0.2L75.3,59l-0.2-0.1L75,58.8l-0.1,0.1l-0.1,0
				l-0.1,0l-0.1,0.3l-0.1,0.1l-0.1,0L74.3,60l-0.2,0.3l-0.3,0.3l-0.3,0.2l-0.3,0.2l-0.3,0.2l-0.4,0.2l-0.4,0.2l-0.2,0.1h-0.3
				l-0.2,0.1l-0.2,0.1l-0.2,0l-0.3,0l-0.2,0.1L70.5,62l-0.6,0.1l-0.1,0.1l-0.1,0.1l-0.1,0.2l-0.1,0.2l-0.2,0.4l-0.1,0.4L69,63.8
				l-0.2,0.3l-0.3,0.1l-0.3,0.1l-0.3-0.1l-0.3-0.1l-0.1,0l-0.1-0.2l-0.1-0.2v-0.2v-0.3l0.1-0.4l0.1-0.3v-0.2l0.1-0.5l0.1-0.5
				l0.1-0.3v-0.1l0-0.1l-0.2-0.5h-0.1h-0.1l-0.1,0L67,60.9l-0.1,0.3l-0.1,0.3l-0.1,0.2L66.7,62v0.2l-0.1,0.2l-0.1,1.3l0.1,0.7
				l0.1,0.6L67.6,65.1z M73,65.1l2.6-0.4l0.7-0.2l0.1-0.1v-0.2l-0.2-0.1L76,64l-0.4,0.1l-0.3,0.1h-0.4l-0.8,0h-0.4l-0.4,0.1L73,64.4
				l-0.3,0.2l-0.1,0.2l0.1,0.1L73,65.1z M88.7,64.2l0.6,0l0.1-0.1l0.1-0.2v-0.2v-0.2l-0.1-0.2l-0.1-0.1L89,62.9l-0.7,0L88,63.2
				l-0.1,0.2l-0.1,0.2v0.1v0.1L88.7,64.2z M60.3,64.2h0.2l0.1-0.1l0,0V64l-0.2-0.3l-0.3-0.2L60,63.2L59.8,63l-0.2,0l-0.2-0.1
				l-0.2-0.2l-0.2-0.3L59,62.3l-0.1-0.1l-0.1,0l0,0.2v0.2l0,0.2l0.1,0.3l0.5,0.5L60,64L60.3,64.2z M55,64.1l0.4-0.1l0.1-0.7
				l-0.8-0.9l-0.3-0.2l-0.4-0.2L53.6,62l-0.3-0.2h-0.1l-0.1,0.1l0,0.2l0.1,0.2l0.1,0.1l0.4,0.3l0.3,0.3l0.2,0.2l0.1,0.2l0.2,0.1
				l0.1,0.1l0.2,0.2l0.1,0.3L55,64.1z M63.6,63.6H66l0.2-0.2L66.2,63L66,62.9h-0.1l-0.6-0.1h-0.6h-0.6h-0.7l-0.1,0.1L63.3,63v0.3
				L63.6,63.6L63.6,63.6L63.6,63.6z M87.3,63.4l0.4-0.5l0.4-0.6l0.4-0.6l0.3-0.3l0.3-0.3l0.3-0.3l0.2-0.2l0.2,0l-0.1,0.2l-0.1,0.2
				l-0.3,0.4l-0.1,0.2l-0.2,0.2l0,0.2v0.2l0,0.1l0.1,0l0.1,0l0.1-0.1l0.1,0l0.4-0.1l0.4-0.1l0.7-0.4l0.3-0.2l0.2-0.4l0.2-0.4
				l0.4-0.9l0.1-0.3l0.1-0.3l0.1-0.3l0.2-0.3l0.1-0.3l0.1-0.3l0.1-0.2l0.1-0.2v0l-0.1-0.1l-0.1,0l-0.3,0.7l-0.3,0.7L91.7,59
				l-0.2,0.5l-0.1,0.3l-0.2,0.3L91,60.4l-0.2,0.3l-0.1,0h-0.1l-0.1-0.1l1.5-3.4h-0.1H92l-0.1,0l-0.1,0.1l-0.6,0.5l-0.1,0.3l-0.1,0.3
				L90.9,59l-0.3,0.6l-0.3,0.5l-0.1,0.2l-0.1,0.2H90l0.1-0.2l0.1-0.2l0.2-0.4l0.2-0.4l0.1-0.2l0.1-0.2l0.2-0.3l0.1-0.4l0.2-0.2
				l0.1-0.2l0.2-0.5V57l0.1-0.3l0.1-0.3l0.1-0.3l0.1-0.2v-0.2l-0.1-0.4l-0.1,0l-0.1,0l-0.1,0.1L91,55.5l-0.2,0.4l-0.2,0.5l-0.2,0.5
				l-0.3,0.8L90,58.1l-0.1,0.4l-0.2,0.5l-0.1,0.2v0.3l-0.2,0.1l-0.1,0.1l-0.1,0.3l-0.1,0.3L89,60.6l-0.3,0.2v0h-0.1h0.1v-0.3
				l0.1-0.3l0.2-0.5l0.3-0.6l0.2-0.6l0.1-0.3l0.1-0.3l0.1-0.3l0.2-0.2l0.4-1.4h-0.1h-0.1l-0.2,0l-0.6,0.9L89,57.8l-0.5,1.3l-0.1,0.1
				v0.1l-0.2,0.3l-0.1,0.3v0.3l-0.1,0.3l-0.1,0.3l-0.1,0.4l-0.1,0.2l-0.1,0.2l0.1,0.2l-0.1,0.2l-0.1,0.2l-0.2,0.3l-0.1,0.3L87.2,63
				v0.2v0.2L87.3,63.4L87.3,63.4L87.3,63.4L87.3,63.4z M76.4,63.3l0.3-0.5l0.9-0.1h1h1l0.4,0.1l0.5,0l0.2,0.1l0.1-0.1l-0.1-0.5
				l0.2-0.3l0.3-0.2l0.3-0.2l0.3-0.2h0.2l0.2-0.1l0.3-0.2l0.4,0l0.1-0.2l-0.1-0.2l-0.3-0.1l-0.2,0l-0.1-0.1l-0.2-0.3l-0.2-0.1
				l-0.2-0.1h-0.2l-0.2,0.2l-0.1,0v0.2l0,0.1l-0.1,0.2L81,61l-0.2,0.1l-0.2,0.1l-0.2,0.1l-0.2,0.1l-0.3,0h-0.2l-0.2,0.2l-0.2,0.1
				l-0.4,0.1l-0.3,0.1h-0.1L78.3,62h-0.4l-0.2-0.1h-0.2L77,61.9l-0.5,0l-0.2,0l-0.2-0.1h-0.2l-0.1,0l-0.3-0.2l-0.1,0l-0.1,0.1
				l-0.2-0.1l-0.2,0.1l-0.1-0.1h-0.1l-0.2,0.1l-0.1,0l-0.1,0.2v0l0.1,0.1l0.2,0.1l0.2,0.1l0.4,0l0.8,0.9l0.1,0.1L76.4,63.3
				C76.3,63.3,76.4,63.3,76.4,63.3z M57.6,63.2h0.2l0.1,0l0.1,0l0.1-0.1l0-0.3l0.1-0.2l0-0.1l-0.1-0.1l-0.2-0.1l-0.2,0.1l-0.3,0.1
				h-0.3l-0.3-0.1l-0.1,0l-0.2-0.1h-0.2l-0.1,0l-0.2,0L55.9,62l-0.2,0l-0.3-0.1l-0.7-0.4l-0.3-0.2L54,61.2L53.6,61l-0.1,0h0l0,0.2
				v0.1l0.1,0.1l0.2,0.1l0.3,0.2l0.3,0.2l0.3,0.2l0.6,0.2l0.5,0.2l1,0.4h0.1l0.3,0.2L57.6,63.2z M68.5,63.2L68.5,63.2l0.4-1.2
				l-0.1,0h-0.2l-0.3,0.2l-0.2,0.2l-0.1,0.2l-0.1,0.2V63l0.1,0l0.1,0.1L68.5,63.2L68.5,63.2L68.5,63.2z M86.6,62.8l0.2-0.1l0.1-0.1
				l0.1-0.1l-0.1-0.4l-0.2-0.3l-0.2-0.3l-0.1-0.3l-0.2-0.3l-0.1-0.2l-0.1,0h-0.3h-0.1l-0.1,0l-0.1,0.2l-0.1,0.3v0.4l0.8,0.7v0.1
				l0.2,0.2L86.6,62.8z M65.1,62.1l0.2-0.1l0.2-0.1l0.3-0.3l0.3-0.4l0.2-0.2l0.2-0.2l0.2-0.1l0.1-0.2v-0.2l-0.1-0.2l-0.1-0.1
				l-0.2,0.1l-0.2,0h-0.2l-0.4,0.2l-0.4,0.1l-0.8,0.1h-0.4l-0.3-0.1h-0.4H63l-0.3-0.1l-0.3-0.1l-0.3,0l-0.1,0l-0.2-0.1l-0.3,0
				l-0.3-0.1l-0.3-0.2l-0.3-0.1l-0.2-0.1l-0.1-0.1l-0.2,0l-0.1-0.2v-0.7l0.1-0.7l0.4-0.8l0.2-0.4l0.1-0.1l0.2-0.1h0.9h0.4l0.4,0.1
				l0.9,0.4l0.5,0.2l0.4,0.3l0.4,0.2l0.2,0.1l0.2-0.1l0.1-0.1l-0.3-0.4L65,56.8l-0.3-0.4l-0.2-0.2l0-0.3l-0.4-0.3l-0.3,0h0v0.1v0.2
				L63.7,56l-0.1,0.1l-0.4,0l-0.3-0.1l-0.3,0l-0.2-0.1l-0.2-0.2L62,55.4l-0.2-0.2l-0.2-0.2h-0.2l-0.1,0l0,0.1v0.3l0,0.1l-0.1,0.1
				l-0.1,0h-0.2l-0.1,0h0h-0.1h0l-0.1,0l0,0l-0.9,0.1l0,0v0l0,0.2l0.1,0.2l0.1,0.2v0.2l0,0.2l0,0.4l-0.1,0.4L59.5,58l-0.1,0.2
				l-0.1,0.4l0,0.5l0,0.5v0.3l0,0.2l0.1,0.2l0.2,0.2l0.2,0l0.1,0.1l0.2,0.2l0.1,0.2l-0.1,0.2l0.1,0.2l0.1,0.1h0.2l0.2-0.1l0.8-0.4
				l1.2,0.4l0.2,0.5l0.1,0.1l0.1,0l0.2,0l0.5-0.3l0.1,0l0.1-0.1h0.6l0.3,0l0.1,0.1l0.1,0.1L65.1,62.1L65.1,62.1L65.1,62.1z M52,62
				l0.5-0.2l0.2-0.1l0.1,0l0.1-0.2l0.1-0.3V61l-0.1-0.3l-0.1-0.3l-0.2-0.1l-0.2-0.1L52,60.1L51.8,60h-0.3l-0.2,0H51h-0.2l-0.2,0.2
				v0.1v0.1l0.2,0.1l0.2,0.1l0.5,0.1l0.5,0.2l0.2,0.1l0.2,0.2v0l-0.1,0h-0.1L52,61.2l-0.1-0.1L51.8,61l-1.3-0.3l-0.1,0.1l0,0.1
				l0.2,0.4l0.2,0.3l0.3,0.2l0.3,0.2l0.2-0.1L52,62z M58.1,60.8v-0.7l0.2,0.1l0.2,0.1l0.4,0.2l0.1,0.2l0,0.2v0.5l-0.1,0.1l-0.1,0.1
				l-0.2,0.3l-0.6,0.2v-0.7l0.2,0l0-0.3l0-0.2l-0.1,0L58.1,60.8L58.1,60.8z M57.9,61.4l-0.1,0v-0.1l0-0.3l0.1,0l0.2-0.1v-0.7h-0.2
				l-0.2,0.1l-0.2,0.2l-0.2,0.3l-0.1,0.3l0,0.3l0.1,0.4l0.1,0.2l0.2,0.1l0.2,0.1l0.2,0.1h0.2v-0.7H57.9L57.9,61.4z M77.6,61.5
				l0.9-0.3l0.1-0.1L78.4,61l-0.2-0.1l-0.2,0l-0.2-0.1l-0.2,0.1l-0.1,0.2l-0.1,0.2l0.1,0.1L77.6,61.5z M79.2,61.5l0.6-0.2l0.2-0.1
				v-0.1l-0.6-0.3L79,60.9l-0.1,0.2L79.2,61.5L79.2,61.5z M87.5,61.2l0.1,0l0.1-0.6l0.1-0.3l0.1-0.3l0.1-0.3l0.1-0.3l0.1-0.2
				l0.1-0.3l0.2-0.3l0.2-0.3l0.1-0.3l0.2-0.3l0.2-0.3l0.1-0.4l0.2-0.4l0.1-0.4l-0.1-0.2l-0.1-0.1l-0.2,0.1L89,56l-0.1,0.1l-0.1,0.2
				l-0.2,0.3l-0.1,0.2l-0.1,0.2L88.5,57v0.1l-0.1,0.3l-0.1,0.1l-0.1,0.2l-0.1,0.4L88,58.5l-0.1,0.3l-0.2,0.3l-0.2,0.2l-0.1,0
				l1.1-3.3v0l-0.1,0L88.2,56l-0.8,1.4l-0.1,0.2l-0.1,0.2L87.2,58l-0.1,0.2L87,58.8l-0.1,0.7l0.1,0.7l0.1,0.6l0.2,0.3L87.5,61.2
				L87.5,61.2L87.5,61.2z M70,61.1l0.2,0l0.2-0.1l0.2-0.2l0.2-0.2l0.1-0.2v-0.1V60v0h-0.1l-0.6,0.3l-0.2,0.2l-0.1,0l-0.1,0.1
				l0.1,0.5l0.1,0L70,61.1z M75.7,61.1h0.4l0.5-0.1l0.2-0.1l0.2-0.1l0.2-0.2l0.2-0.2l0.3-0.4l0.2-0.3l0.2-0.4l0.2-0.3l0.4-0.3
				l0.4-0.3l0.4-0.1l0.3,0h0.2l0.2,0l0.3,0.1h0.2l0.2-0.1l0.1-0.2L80.6,58l-0.9-0.6l-0.2-0.5h-0.1l-0.3,0.3l-0.2,0.3l-0.3,0.3
				l-0.2,0.1l-0.2,0l-0.2,0L78,57.8l-0.1-0.1l-0.1-0.1l-0.1-0.1l-0.1,0.1l-0.1,0.2v0.2l-0.1,0.2l-0.1,0.2v0.2l-0.1,0.2l-0.1,0.2v0.2
				l-0.2,0.4l-0.3,0.3l-0.3,0.3l-0.4,0.3h-0.1l-0.1,0L76,60.2l0.2-0.2l0.2-0.2l0.2-0.2l0.1-0.1l0.1-0.2l0.1-0.4v-0.4l-0.1-0.3
				l-0.2-0.3l-0.3-0.2l-0.3,0.1L75.7,58l-0.1,0.3l-0.1,0.3v0.3l0.2,0.4l-0.1,0.4l-0.1,0.2l0.1,0.2l0.1,0.1l0.1,0.1l-0.2,0.2
				l-0.2,0.1l-0.1,0.2l-0.1,0.1l-0.1,0.1l0.2,0.1L75.7,61.1z M71.7,60.9l0.6,0l0.2-0.1l0.2-0.1h0.2l0.1-0.2v-0.1l-0.1-0.1v-0.1
				l-1.3,0l-0.1,0l-0.1,0.1l0.1,0.2l0.1,0.2L71.7,60.9z M44.4,60.7h0.1l0,0v-0.8L44,59.4v-0.2L43.9,59v-0.2l0.1-0.1l0-0.1v-0.4
				l0.1-0.4H44l-0.5,0.5l-0.2-0.1l-0.1-0.1v-2.6l0.1,0.1l0,0.2v0.3v0.4v0.4l0,0.1l0.1,0l0.1,0l0.1-0.2l0.1-0.5l0.1-0.3l0.2-0.2h0.2
				h0.2l0.3,0.2l0.1,0.3l0,0.3l0,0.8l-0.1,0.3l0,0.3v0.3v0.1l0.1,0.1l0,0H45l0.6-0.2l0.1,0.3V59l-0.1,0.3l0,0.4L45.5,60v0.3l0,0.3
				l0,0.3v0.3l0,0.3l0.2,0.3l0.3,0.3l0.2,0.2h0.1l0.1,0L46.1,62l0-0.3l-0.2-0.4l-0.1-0.2v-0.2l0.1-0.2l0.1-0.2l0.2-0.3l0-0.2v-0.2
				l0.1-0.1l0.1-0.1l0.5,0.2l0.3,1.3l-0.2,0.2L47,61.4l-0.2,0.3l-0.2,0.3l-0.2,0.3h-0.1l-0.2-0.1l-0.1,0.1l0.1,0.1l0.1,0.1l0.2,0.2
				l0.3,0.1l0.1,0l0.1,0.1l0,0.3l0,0.2l-0.1,0.2L45.9,63v0.1v0.1v0.1v0.1l-0.3,0h-0.2h-0.5l-0.1,0l-0.2,0.1h-0.2l-0.1,0l-0.1,0
				l-0.1,0l-0.1-0.1l-0.1,0l-0.2-0.1l-0.3,0l-0.2-0.1l-0.1-0.3v-0.3l0.1-0.2l0.1-0.1h0.2l0.3,0.1l0.2-0.1l0.1-0.1h0.1h0.2l0.2,0
				l0.2,0.2l0.2,0.2l0.4,0.2l0.2,0.1h0.2l0.1-0.1l-0.2-0.2l-0.2-0.2L45,62.1l-0.3-0.2l-0.3-0.2l-0.3,0l-0.2-0.2l-0.3-0.1l-0.3-0.1
				l-0.2-0.1v-1.8l0.6,0.4l0.2,0.5l0.2,0.2L44.4,60.7L44.4,60.7L44.4,60.7z M43.3,58.8L43.3,58.8l-0.1-0.1L43.3,58.8L43.3,58.8z
				 M43.2,59.3v1.8l0,0L43.2,59.3L43.2,59.3L43.2,59.3z M43.2,62.6v0.3l0-0.1L43.2,62.6L43.2,62.6L43.2,62.6z M43.2,55.6v2.6l0,0
				L43.2,55.6L43.2,55.6L43.2,55.6z M43.2,58.7L43.2,58.7l0,0.2l0,0V58.7L43.2,58.7z M43.1,59.3L43,59.2v-0.1l0.1-0.1l0-0.1v-0.2
				L43,58.5l-0.2-0.3l-0.3-0.3l-0.3-0.2l-0.2-0.3L41.9,57l-0.1-0.5h0.1l0.5,0.4h0.1l0.1,0.1l0,0.1l0,0.2v0.3l0.4,0.6v-2.7l0,0H43
				h-0.2l0,0l-0.2,0.1l-0.1,0.1l0,0.1l0,0.1l-0.1,0l-0.6-0.4h-0.2l-0.2,0l-0.3,0.2h-0.2l-0.2,0l0,0.7L40,56.7V57l0,0.3l0.2,0.2
				l0.3,0.2l0.2,0.2l0.1,0.1l0.1,0.2l-0.1,0.1l-0.2,0.1l0,0.1l0.3,0.8l1.6,0.7l0.1,0V60l-0.1,0l-0.1,0l-0.1,0.1v0.1v0.3l0.8,0.5
				L43.1,59.3L43.1,59.3z M43.1,62.8L43.1,62.8L43.1,62.8z M79.4,60.6l0.3-0.1l0.2-0.2l0.2-0.3l0.1-0.3l-0.1-0.1l-0.1,0l-0.2,0.1
				l-0.2,0.1L79.2,60v0.1v0.3l0.1,0.2L79.4,60.6z M68.5,60.6L68.5,60.6l0.1-0.1l0.1-0.1L68.5,60l0.3-0.4l-0.3-0.7l-0.4-0.4l-0.3,0.1
				l-0.1,0.4l0,0.4v0.3l0,0.4l0.1,0.2L68.5,60.6L68.5,60.6L68.5,60.6z M78.4,60.4l0.2-0.1l0.1-0.1l0.2-0.3v-0.1l0.1-0.1l0-0.3h-0.2
				h-0.1l-0.1,0.1l-0.2,0.3L78.1,60l0,0.2l0.1,0.1L78.4,60.4z M55.2,60.1l0.1-0.2l0.2,0l0.4-0.1l0.4,0l0.4-0.1l0.9,0l0.2,0l0.2-0.1
				h0.2l0.2-0.1h0.1l0.1-0.1l0.2-0.2V59v-0.2l-0.1-0.1l-2.2,0.4L56.3,59l-0.3,0l-0.7-0.2l-0.7-0.2l-0.7-0.3l-0.5-0.4l-0.1-0.1v-0.2
				l0.1-0.2l0-0.1V57l0.1-0.4l0.1-0.3l0.1-0.3l0.2-0.2l0.1-0.2l0.1-0.2l0.2-0.2l0.2-0.1l0.9-0.2l0-0.1l0-0.2l-0.1,0l-0.3-0.2l-0.2,0
				l-0.3-0.1l-0.2-0.1l-0.1,0l-0.2,0l-0.4,0.8l0,0.2l-0.3,0.3L53,56l-0.1,0.4l-0.1,0.4l-0.1,0.8l0,0.4l-0.1,0.3l-0.2,0.4v0.2H53
				l0.1-0.1h0.2h0.3l0.3,0.1l0.3,0l0.5,0.2l0.4,0.3l0.1,0.8L55.2,60.1L55.2,60.1z M62.7,60.1l0.2,0l0.2,0l0.2-0.1l0.1-0.2l-0.2-0.2
				l-0.1-0.1h-0.2h-0.2h-0.2l-0.3,0.2l-0.1,0l-0.1,0.2l0.1,0.2L62.7,60.1z M66,59.5h0.4l0.1-0.3L66.4,59l-0.1-0.1h-0.2h-0.3
				l-0.3-0.1L65.4,59l-0.1,0.2l0.1,0.2L66,59.5z M72,59.5l0.8-0.3l0.3-0.4l-0.7-0.2l-0.2,0.1l-0.1,0h-0.1L72,58.8l-0.1,0.1l-0.1,0.3
				v0.2l0.1,0L72,59.5z M64.3,59.4l0.1-0.1l0.1,0l0.1-0.2L64.6,59v-0.1l-1-0.3h-0.1l0,0.1l0,0.2l0,0.2l0.2,0.1l0.3,0.2h0.2
				L64.3,59.4z M70.8,59.4l0.2-0.1l0.4-0.8l-0.1-0.1l-0.2-0.1l-0.3,0.2l-0.2,0.2l-0.1,0.2v0.2v0.1l0.1,0.1L70.8,59.4z M69.3,59.3
				l0.3,0l0.2-0.1l0.4-0.3l0.3-0.4l0.2-0.2l0.2-0.2l0.2-0.2l0.2-0.2l0.4-0.3l0.1,0l0.2,0.4l0.2,0l0.2-0.1l0.1-0.1l0.2-0.1l0.7,0.4
				l0.2,0l0.2,0.1l0.3,0.2l0.2,0.1l0.2,0l0.2,0.1l0.2-0.1l0.3-0.2l0.2-0.2l0.2-0.2l0.3-0.2l0.2-0.2l0.1-0.3l0.1-0.3l-0.1-0.3
				l-0.1-0.1l-0.2-0.1l-0.2-0.1l-0.2-0.1l-0.2-0.1l-0.3-0.1l-0.2-0.1l-0.1,0l-0.1-0.1H74l-0.1,0l-0.8-0.6L73,55.5l-0.1,0.2l0.2,0.6
				l0.8,0.6l0.3,0.2l0.1,0.1v0l-0.1,0l-0.1,0.1L74,57.5l-0.1,0L72.4,56l-0.2,0.1L72,56.2l-0.2,0.1l-0.1,0h-0.1l-0.2,0.1l-0.2,0.2
				L71,56.8L70.8,57l-0.2,0.3l-0.2,0.1l-0.2,0h-0.1v-0.1l0.5-0.5l0.2-0.3l0.1-0.2v-0.2v0h0h0.1l0.2,0h0.2h0.3l0.1,0l0.1-0.1v-0.4
				v-0.4l-0.1-0.8l-0.4-1l-0.2-0.5l-0.3-0.5h-0.1v0l-0.1,0.3l0.1,0.3l0.2,0.5l0.1,0.2l0,0.2l0.2,0.3l0.1,0.3l0.1,0.3v0.3L71.3,55
				l-0.1,0L71,54.9l-0.2-0.2l-0.4-0.5l-0.1-0.3l-0.1-0.3l-0.2-0.2l-0.2-0.2l-0.1,0l-0.1-0.1L69.3,53h-0.1l0,0.1v0.1v0.2l0.8,1.5V55
				L70,55h-0.1l-0.2-0.1L69.6,55l-0.2-0.1l-0.1,0l-0.1,0v-0.1h0.1l0.2-0.1v-0.2l-0.1-0.2L69.3,54l-0.2-0.3l-0.1-0.4h-0.1l-0.1,0.1
				l-0.2,0.5h-0.1l-0.3-0.2l-0.1,0l-0.1,0.1v0.1v0.3l0.3,0.3l0.2,0.3l0.3,0.6l0.1,0.1l0.2,0.2l0.2,0.2h0.2l0.2-0.1l0.2-0.1l0.1-0.2
				v-0.3l0.1,0l0.1-0.1l0.7,0.7v0.1l-0.1,0.1h-0.3h-0.3l-0.6,0.2l-0.6,0h-0.3l-0.3,0h-0.2l-0.2,0l-0.3,0.2l-0.1,0.1l0.1,1.3l0.1,0.1
				l0.1,0H68h0.1l0.2-0.2l0.2-0.2l0.1-0.2l0.1-0.3l0.1-0.1l0.1-0.1l0.1-0.1l0.2-0.1l0.4,0l0.4-0.1l0.1,0.1l-0.1,0.1l-0.1,0.1
				L69.7,57l-0.5,0.3L69,57.4l-0.2,0.2l-0.2,0.2L68.5,58l0.1,0.2l0.1,0.2l0.1,0.2v0.2L69.3,59.3z M82,58.3v-0.7h0.3h0.3l0.2,0.1
				l0.1,0.1L83,58l0.1,0.3v0.3L83,58.9l-0.1,0.3l-0.2,0.2l-0.2,0.2L82,59.8v-0.7l0.3-0.1l0.1-0.1l0.1,0v-0.2l0.1-0.1l-0.2-0.1
				L82,58.3L82,58.3z M81.5,59.1L81.4,59l0.2-0.5l0.2-0.1l0.1,0h0.2v-0.7l-0.2,0.1l-0.1,0.1h-0.1v-0.1l-0.4,0.4l-0.3,0.3l-0.1,0.3
				l-0.1,0.3v0.4l0.1,0.3l0.6,0.2l0.5-0.2v-0.7l-0.4,0L81.5,59.1L81.5,59.1z M84,58.7l0.3,0l0.1,0l0.1-0.1v-0.2L84.4,58l-0.1,0
				l-0.1,0l-0.2,0.1l-0.2,0.2l-0.1,0.2l0.1,0.2L84,58.7z M55.9,58.5l0.5,0l0.1-0.1v0l-0.1-0.2l-0.2-0.1L55.8,58l-0.1,0l-0.1,0.1
				l0.2,0.3L55.9,58.5L55.9,58.5z M66.3,58.5L66.3,58.5l0.2-0.1l0.1-0.3l0.1-0.1l0.1,0l0.2,0l0.3-0.1l0.1-0.1l0.1-0.2v-0.4l-0.1-0.5
				l-0.1-0.2L67,56.4l-0.9,0.2l-0.4,0.7l0.1,0.9L66.3,58.5z M62.2,58.4l0.1-0.1l0.2,0l0.1,0l0-0.1l0-0.1l-0.1-0.2l-0.9-0.2L61.3,58
				v0.1L62.2,58.4L62.2,58.4z M58.2,58.2l0.6-0.1l0-0.1l0,0l-0.1-0.1l-0.2-0.1h-0.2l-0.2,0l-0.1,0H58l0,0l-0.1,0.2l0.1,0.2
				L58.2,58.2z M63.7,58.2L64,58l0.1-0.1L64,57.7l-0.1-0.1l-0.8-0.5L63,57.3l-0.1,0.2v0.1l0.3,0.3l0.2,0.2L63.7,58.2z M83.5,58
				l0.5-0.3l0.1-0.1v-0.2L84,57.2l-0.3-0.3L83.6,57l-0.2,0.2l-0.1,0.2l-0.1,0.2l0.1,0.2L83.5,58L83.5,58L83.5,58z M49.7,57.5h0.2
				h0.2l0.3-0.2l0.3-0.2h0.2l0.2,0l0.2,0h0.2h0.2l0.2,0.1H52l0.2-0.1l0.1-0.2l0.1-0.1v-0.1l0-0.1l-0.2-0.1h-0.2h-0.2l-0.3-0.1
				l-0.3-0.1l-0.2,0l-0.2,0l-0.5-0.2L49.9,56l-0.2-0.1l-0.2-0.1l-0.2-0.2l-0.2-0.2l-0.2-0.3l-0.2-0.2l-0.2-0.2l-0.2-0.3l0-0.3l0-0.3
				v-0.3l0.1-0.3l0.3-0.3l0.3-0.3l0.2-0.2l0.2-0.1l0.2-0.1l0.3-0.1l0.1,0l0.2,0l0.3,0l0.2,0.2l0.2,0.1l0.2,0.2l0,0.1l0.1,0.1
				l0.3,0.3l0.3,0.3l0.2,0.4l0.2,0.4l0.5,1l0.1,0.1l0,0h0l0.1,0l0.1-0.2l-0.1-0.3v-0.2l-0.1-0.1l0.1-0.5l0.1-0.2l0.1-0.2v-0.2l0-0.2
				l0.1-0.2l-0.1-0.1l0-0.1L53,52.8l-0.4,0.3l-0.4-0.3l-0.3-0.3l-0.6-0.7l-1.1-1.5l-0.2,0l-0.2,0.7h-0.1l-0.1,0.1l-0.3,0.3l-0.4,0.2
				L48.6,52l-0.3,0.3L48,52.4l-0.1,0.2l-0.2,0.3l-0.2,0.3l-0.1,0.2l-0.2,0h-0.3l-0.1,0.1l-0.1,0.1V54l1,0.8l0.4,0.7v0l-0.1,0.1
				L48,55.7l-0.1,0.2l0.1,0.2l0.1,0.1l0.3,0.2h0.2h0.2l0.4,0.1l0.3,0.2l0.2,0.1v0.1l-0.2,0.4L49.7,57.5
				C49.6,57.5,49.7,57.5,49.7,57.5z M59.3,57.3L59.3,57.3v-0.2l0-0.2L59,56.6l-0.3-0.2l-0.3-0.3l-0.1,0h0l0,0l-0.1,0.1v0.2l0.1,0.1
				l0,0.2l0.3,0.3l0.3,0.3L59.3,57.3C59.2,57.3,59.3,57.3,59.3,57.3z M82.8,57.3l0.4-0.2l0.1-0.2l0.1-0.3l-0.1-0.1l-0.2,0l-0.2-0.1
				h-0.2l-0.1,0.2l-0.1,0.2v0.4l0.1,0.1L82.8,57.3L82.8,57.3L82.8,57.3z M55.1,57.2L55.1,57.2l0.2,0l0.1-0.1v-0.2l0-0.1l-0.2,0
				l-0.4-0.1h-0.1l0,0l-0.1,0.2v0.1l0,0.1L55.1,57.2z M56.3,57.1h0.2l0.2-0.1l0.4,0l0.3-0.2l0.1-0.2l0.1-0.3l0.1-0.5l0.1-0.3
				l-0.1-0.3l0-0.3l0-0.3l-0.2-0.1l-0.2-0.1l-0.3-0.1l-0.3-0.1l-0.3-0.1l-0.4,0.3l-0.1,0.3l0,0.2v0.5l0,0.5l0.1,0.6L56.3,57.1z
				 M84.4,57.1L84.4,57.1l0.2-0.1l0.2-0.1l0.2-0.2l0.2-0.1l0.2-0.1l0.1-0.1l0.1-0.1v-0.2l-0.1-0.2l-0.2-0.3h-0.2h-0.2l-0.2,0.1
				l-0.2,0.1l-0.1,0.2l-0.1,0.2l-0.1,0.2l-0.2,0.2l0.1,0.2L84.4,57.1z M56.4,56.4h0.2l0.1-0.1l0.1-0.2l0-0.2l0.2-0.1v-0.4v-0.3
				l-0.5-0.2l-0.2,0.2l-0.1,0l-0.1,0.1l0,0.5V56l0.1,0.2L56.4,56.4C56.3,56.4,56.4,56.4,56.4,56.4z M77.5,56.4l0.7-0.2l0.1-0.1
				L78.2,56l-0.4-0.3l-0.2,0h-0.2l-0.3-0.1l-0.3-0.1l-0.3-0.1L76,54.9l-0.5-0.5l-0.2-0.2L75.2,54l-0.4-0.4l-0.1-0.1v0l-0.2-0.1
				l-1.1-1.1l-0.2-0.2L73.1,52l-0.1-0.1l-0.1,0l-0.1-0.1v0.1l-0.1,0.1l0.1,0.2l0.1,0.3l0.2,0.3l0.3,0.5l0.4,0.4l0.4,0.3l0.3,0.3
				l0.3,0.3l0.3,0.3l0.3,0.3l0.2,0.1l0.2,0.2l0.3,0.3l0.3,0.3l0.2,0.1l0.2,0.1l0.3,0L77.5,56.4z M51.4,56.1h0.5l0.1,0l0.1-0.1v-0.2
				l0.1-0.1l-0.9-0.5h-0.1l0,0.1v0.2l0.2,0.3L51.4,56.1L51.4,56.1z M75.7,56L76,56v-0.1l-0.6-0.6l-1-1l-0.5-0.5l-0.6-0.4h0v0.1v0.1
				l0.2,0.4l0.1,0.2l0.2,0.2l0.2,0.2l0.2,0.2l0.2,0.2l0.2,0.2l0.1,0.1l0.2,0.2l0.4,0.3l0.3,0.2L75.7,56z M79.3,56l0.9-0.3l0.1-0.1v0
				l-0.1-0.1L80,55.4l-0.3-0.1l-0.6,0l-0.3-0.1l-0.3,0l-0.3-0.2l-0.2-0.2l-0.4-0.2l-0.4-0.3l-0.7-0.6L76,53l-0.7-0.7L75,51.9
				l-0.3-0.3l-0.3-0.3L74.1,51l-0.2-0.2l-0.1-0.1l-0.1-0.1l-0.3,0.3l0.4,0.6l0.5,0.6l0.5,0.5l0.5,0.4l0.1,0.1l0.2,0.1l0.2,0.2
				l0.2,0.2l0.2,0.2l0.3,0.3l0.3,0.3l0.3,0.2l0.1,0.1l0.1,0.2v0.1l0.1,0.1l0.2,0.2l0.2,0.2l0.1,0.2l0.3,0.2l0.3,0.2l0.6,0.2L79.3,56
				z M81.4,55.6l0.2-0.1h0.3l0.3-0.1l0.3-0.1l0.3,0l0.3-0.2l0.2-0.2l0.1-0.1v-0.1v-0.3L83.2,54l-0.1,0H83l-5.4-4l-3.4-2.5L74,47.5
				l-0.1,0.1l0.3,0.5l1.4,1.2l1,0.6l0.7,0.5l0.7,0.6l1.1,0.9l0.5,0.4l0.6,0.4l0.7,0.5l0.7,0.4L82,54l0.2,0.2l0.1,0.3l-0.2,0.2
				l-0.2,0.1h-0.2l-0.3,0l-0.3-0.1l-0.1,0l-0.4,0l-0.3-0.2l-0.2-0.1l-0.1,0l-0.2-0.1l-0.2,0l-0.4-0.3l-0.3-0.3l-0.3-0.2l-0.3-0.3
				l-0.3-0.3L78,52.4l-0.5-0.5l-0.6-0.5l-0.2-0.1l-0.1-0.1l-0.1-0.1l-1.7-1.4l-0.1-0.1l-0.2-0.1L74,49.3l-0.1,0.5H74l0,0.1l0.1,0
				l0.2,0.2l0.1,0.1l0.1,0.1l0.8,0.6l0.4,0.3l0.3,0.4l1,0.8l0.9,0.8l0.2,0l0.1,0.2l0.5,0.3l0.1,0.2h0H79l0.4,0.3l0.4,0.7l1.2,0.7
				L81.4,55.6L81.4,55.6z M77.2,55.4L77.2,55.4v-0.2l-0.1-0.2l-0.3-0.4l-0.5-0.4l-0.5-0.4l-0.1-0.2l-0.1-0.1l-0.2-0.2l-0.3-0.2
				L74.9,53l-0.4-0.4l-0.3-0.4l-0.3-0.3l-0.2-0.3l-0.3-0.3l-0.3-0.2h-0.1L73,51.2l-0.1,0.2v0l1.7,1.6l0.1,0.2l0.4,0.3l0.3,0.3
				l0.5,0.6l0.2,0.1l0.1,0.1l0.2,0.3l0.3,0.2l0.2,0.1l0.2,0l0.1,0L77.2,55.4z M50,55.3L50,55.3l0.2-0.1l0,0v-0.2l-0.8-0.7h-0.1v0.2
				v0.2l0.1,0.3l0.3,0.2L50,55.3z M73.1,55.2l0.1-0.7v-0.4l-0.1-0.3v-0.2L73,53.3L72.9,53l-0.1-0.3l-0.1-0.3v-0.2l-0.1-0.2l-0.1-0.1
				l-0.1-0.1l-0.3,0.2l0.1,0.3l0.1,0.3l0.2,0.6l0,0.2v0.2h0l-0.1,0l-0.1-0.1l-0.4-1l-0.1,0l-0.1,0.1l-0.1,0.2l0.2,0.5l0.1,0.3
				l0.1,0.2l0.2,0.3l0.2,0.3l0.4,0.5l0.1,0.2l0.2,0.1L73.1,55.2L73.1,55.2z M85.7,55h0.2l0.3-0.5l0.1-0.3l0.1-0.3l0.2-0.7l0.1-0.7
				v-0.7v-0.7l0.1-0.7l0.1-0.4l0.1-0.3V49v-0.7V48l0.1-0.3v-0.3l0.1-0.2l0.1-0.2v-0.3l0.1-0.2l0.1-0.3V46l0.1-0.3v-0.5v-0.4L87,43.9
				l-0.1-0.2l-0.1-0.2l-0.1-0.4l0-0.4l-0.1-0.2l-0.1-0.2v-0.2l-0.1-0.2l-0.1-0.2v-0.2l-0.2-0.4l-0.1-0.2L86.1,41l-0.2,0.5l0.1,0.4
				l0.1,0.4l0.2,0.8l0.1,0.7l0.1,0.8v0.8l-0.1,1.5l-0.2,1.5v0.8v0.3l-0.1,0.4H86l-0.1-0.2v-0.2l-0.1-0.2l-0.1-0.2l-0.1-0.8l-0.1-0.7
				v-0.7l-0.1-0.8L85.5,46v-0.2v-0.2l-0.1-0.2l-0.1-0.2V45l0-0.3l-0.2-0.5l-0.3-0.5l-0.3-0.4l-0.4-0.4l-0.1-0.3L84,42.2L83.9,42
				l-0.1-0.3l-0.2-0.6l-0.2-0.6L83.2,40L83,39.5l-0.1,0l-0.4,0.8l0.2,0.4l0.1,0.2l-0.1,0.3l0.5,1.6l0.1,0.3l0.1,0.3l0.3,0.5l0.3,0.5
				l0.2,0.3l0.1,0.3l0.1,0.3l0.1,0.3l0.1,0.5l0.1,0.4l0.1,0.5l0.1,0.4l0.1,0.2l0.1,0.1l0.2,2.4l0,1.2v1.2l0.1,0.3V53l0.1,0.6V54
				l-0.1,0.4l0.1,0.4l0.1,0.2L85.7,55L85.7,55L85.7,55z M79.2,55h0.1l0.1-0.2l-0.1-0.1l-0.1-0.2l-0.1-0.2l-0.1-0.1L79,54.2l-0.1,0
				h-0.1l-0.5-0.5L77.5,53l-0.8-0.7l-0.2-0.1l-0.2-0.1L76.2,52L76,51.9l-0.1-0.2l-0.2-0.2l-1.4-1.1l-0.2-0.1l-0.2-0.3l-0.1,0.1
				l0.3,0.4l0.4,0.4l0.4,0.4l0.4,0.4l0.3,0.4l0.4,0.4l0.3,0.3l0.4,0.3l0.1,0.2l0.1,0.1l0.3,0.2l0.3,0.2l0.2,0.1l0.1,0.2l0.5,0.4h0.1
				l0.1,0l0.1,0.1L79.2,55z M91.9,54.9h0.4l0.5,0l0.3,0l0.2-0.1l0.2-0.1l0.2-0.1v-0.2v-0.2l-0.2-0.3l-0.2-0.1l-0.2,0h-0.1l-0.1,0
				l-0.2,0l-0.2,0.1l-0.5,0.2l-0.2,0.2l-0.1,0.1l-0.1,0.2v0.2l0.1,0L91.9,54.9z M91.2,54.7l0.2-0.1l0.1-0.5l0.1-0.3l0.1-0.3l0.1-0.3
				l0.1-0.3l0.3-0.6l0.3-0.6l0.3-0.5l0.1-0.2l0.1-0.2l0.1-0.4l0.1-0.4l0.1-0.2l0.1-0.2v-1L93,47.9l-0.1-0.3l-0.2-0.2h-0.1l-0.1,0.7
				l-0.1,0.7l-0.2,0.4l-0.1,0.3l-0.1,0.4l-0.1,0.4v0.6v0.3l-0.1,0.3H92l-0.1-0.1l-0.1-0.1l-0.1-0.3l-0.1-0.3l0.1-0.3l0.2-0.5
				l0.1-0.4l0.1-0.2l0.1-0.2v-0.1l0.1-0.2l0.1-0.3v-0.3v-0.3v-0.3l-0.1,0l-0.5,0.5v0.2l-0.1,0.3l-0.1,0.2l-0.1,0.3l-0.1,0.3v0.3
				l-0.1,0.3l-0.1,0.2v0.8v0.8l-0.1,0.8l-0.1,0.4L91.1,53L91,53.4v0.4l0.1,0.8L91.2,54.7z M42.2,54.7l0.1-0.1l0.1-0.3l0.2-0.3
				l0.2-0.2l0.3-0.3l0.3-0.1l0.1-0.2v-0.2V53l-0.1-0.2l0.1-0.3l0-0.3V52v-0.1l-0.1-0.2l-0.2,0l-0.3,0l-0.1,0.1l-0.1,0.2l0,0.2
				l-0.1,0.2l-0.1,0h-0.1l-0.2,0L42,52.5l-0.1,0.2l0.2,1.9L42.2,54.7z M51.4,54.6l0.2-0.1l0.2-0.4l-0.3-0.6l0,0l-0.2-0.1h0l-0.1,0.1
				l0,0.2v0.2l0,0.3l0.1,0.2L51.4,54.6z M70.9,54.6L70.9,54.6l0.1-0.1l-0.5-1.3l-0.1,0l-0.1,0l-0.1,0l0,0.1l0.3,0.7l0.2,0.2l0.1,0.1
				v0.2L70.9,54.6L70.9,54.6L70.9,54.6z M58.1,54.5l0.2-0.2l0.2-0.2l0.2-0.4v-0.1l0-0.1l-0.4-0.2l-0.3,0.4l-0.1,0.7L58.1,54.5z
				 M81.1,54.4l0.4-0.1L81,53.8l-0.5-0.4l-1-0.8l-0.4-0.3L78.8,52l-0.3-0.3l-0.3-0.2L78,51.4l-0.2-0.1l-0.2-0.1L77.5,51l-0.8-0.7
				L76.3,50l-0.4-0.3l-0.3-0.3l-1.3-1.1l-0.1,0.1l-0.1,0L74,48.7l0.1,0.3l0.4,0.3l0.8,0.6l0.7,0.5l0.7,0.5l0.7,0.5l0.3,0.3l0.3,0.3
				l0.2,0.2l0.2,0.2l0.2,0.2l0.2,0.1l0.3,0.2l0.1,0l0.4,0.5l0.2,0.2l0.3,0.2l0.1,0L81.1,54.4z M90.6,54.3l0.1-0.4l-0.1-0.4l-0.2-0.3
				L90,53l-0.3-0.3l-0.4,0.2L89.2,53l-0.1,0.1L89,53.2l-0.1,0.2l0.1,0.2l0.1,0.1l0.2,0.2l0.3,0l0.9,0.4L90.6,54.3L90.6,54.3z
				 M57.1,54.2h0.1l0.2-0.1l0.1-0.2l0.1-0.4l0-0.2v-0.1L57.3,53h-0.2H57v1l0,0.1L57.1,54.2z M56.3,54.1l0.2-0.2l0.1-0.2v-0.3v-0.3
				l-0.1-0.1L56.3,53h-0.1l-0.1,0L56,53.1l-0.1,0l0.1,0.7l0.2,0.2L56.3,54.1L56.3,54.1L56.3,54.1z M50,53.9L50,53.9l0.2-0.1l0.1,0
				l0.1-0.2l-0.2-0.4L50.1,53l-0.2-0.1l-0.1,0l0,0.2v0.3l0.1,0.3L50,53.9L50,53.9z M39.3,53.8l0.2-0.4v-0.2v-0.1l0-0.1l-0.2,0
				L39,52.9h-0.1L38.8,53l-0.1,0.5l0.1,0.2l0.1,0.1L39.3,53.8L39.3,53.8z M84.3,53.7L84.3,53.7l0.2-0.2v-0.2l0.1-0.2l-0.1-0.2
				l0.1-0.4v-0.4v-0.4l0.1-0.4l0.1-1.8l-0.1-1l-0.1-0.9l-0.1-0.2l-0.1-0.2v-0.3v-0.3l-0.1-0.3v-0.4l-0.1-0.4l-0.1-0.2l-0.1-0.2v-0.2
				l-0.1-0.2L84,44.8v-0.1l-0.4-0.3l-0.1,0.2v0.2v0.4l0.1,0.4v0.5l0.1,0.2v0.2l0.1,0.2l0.1,0.2v0.3l0.1,0.3l0.1,0.3v0.3l0.1,0.2
				L84,48.5l-0.1,0l-0.1-0.1l-0.1-0.2l-0.1-0.3l-0.1-0.4l-0.1-0.3V47l-0.1-0.2l-0.1-0.2l-0.1-0.2l-0.1-0.2v-0.2l-0.1-0.3l-0.1-0.2
				v-0.3l-0.1-0.2l-0.1-0.2l-0.1-0.2l-0.1-0.4l-0.2-0.3l-0.2-0.3l-0.2-0.3l-0.2-0.2l-0.1-0.2l-0.1-0.2l-0.2-0.2l-0.1-0.2l-0.1-0.2
				l-0.3-0.3l-0.4-1l-0.2-0.5l-0.2-0.5h-0.1L80.4,40l-0.1,0.1v0.5l0.1,0.3l0.1,0.2l0.4,1.2l0.2,0.5l0.3,0.5l0.1,0.1v0.1l0.5,0.8
				l0.2,0l0.2,0.4l0.1,0.5l0.1,0.4l0.2,0.5l0.1,0.2l0.1,0.2l0.1,0.2l0.1,0.2l0.1,0.4v0.4l0.1,0.2l0.1,0.2v0.2l0.1,0.2v0.3v0.3
				l0.2,0.5l0.2,0.6l0.1,0.3l0.1,0.3l0.1,0.2l-0.1,0.2v0.2l0.1,0.2v0.3l0.1,0.3v0.3v0.6V53v0.3l0.1,0.2L84.3,53.7L84.3,53.7z
				 M68.1,53.4l0.2-0.2l0.2-0.2l0.1-0.1l0.1-0.1l-0.1-0.3l-0.1-0.3l-0.1-0.2l-0.2-0.5l-1.1-1.8l-0.2-0.1l-0.2-0.2h-0.3v0.1v0l0.1,0
				l0.1,0.1l1.3,2.4l-0.1,0.2l-0.1,0h-0.2L67,52l-0.2-0.2l-0.2-0.2l-0.5-0.7L66,50.5l-0.3-0.3l-0.2-0.3l-0.1-0.3l-0.2-0.1l-0.1-0.2
				h-0.4l0,0.1l-0.1,0.1l0.5,0.8v0.1l0.2,0.2l0.2,0.2l0.1,0.2l0.2,0.2l0.2,0.1l0.2,0.2l0.1,0.1v0l0.1,0.2l0.1,0.2l0.2,0.1l0.2,0.1
				l0.2,0.3l0.4,0.4l0.3,0.2l0.3,0.2l0.1,0.1L68.1,53.4C68.1,53.4,68.1,53.4,68.1,53.4z M92.3,53.5L92.3,53.5l0.4-0.3l0.4-0.3
				l0.3-0.3l0.3-0.3l0.3-0.4l0.2-0.4l0.3-0.9V50v-0.5v-0.5l-0.1-0.2l-0.1-0.3l-0.1-0.1l-0.1,0.2l-0.1,0.2v0.5v0.5V50L94,50.3v0.3
				v0.3L93.9,51l-0.1,0.1l-0.1,0.4l-0.4,0.5l-0.1,0l-0.1-0.1l0.1-0.2l0.1-0.2l0.1-0.2l0.1-0.3l0.1-0.2v-0.2l0.1-0.2l0.1-0.2v-0.9
				v-0.4l-0.1-0.4l-0.1,0.1l-0.1,0.1V49v0.3v0.2l-0.1,0.1v0.7l-0.1,0.3l-0.1,0.3l-0.1,0.3L93,51.5l-0.3,0.5l-0.3,0.5l-0.1,0.3
				l-0.1,0.3l-0.1,0v0.1v0L92.3,53.5z M65.7,53.2L65.7,53.2l0.2-0.3l0.1-0.3l0.1-0.4v-0.3L66,51.7L66,51.6l-0.1-0.1l-0.2-0.1
				l-0.2-0.2l-0.2-0.2l-0.1-0.2h-0.1L64.6,50l-0.1,0l0,0.1v0.2v0.2v0.2l0.1,0.2v0.2l0,0.2l0.1,0.2V52l0.1,0.4l0.2,0.3l0.2,0.3l0.1,0
				h0L65.7,53.2L65.7,53.2z M62.7,53.1h0.2l0.2-0.1l0.2,0h0.2l0.4-0.2l0.4-0.2h0.1l0.1-0.1l0-0.1l0-0.1l-0.3-0.2L64,52.3l-0.1-0.1
				l0,0v0l0.1-0.1l0.2,0l0.1,0l0.1-0.1l-0.1-0.2l-0.1,0l-0.3,0.1l-0.3,0.1l-0.3,0.2L63,52.4H63h0l0,0l-0.1,0l0.1-0.2l0.1-0.1
				l0.3-0.3l0.3-0.2l0.3-0.2l0.1,0l0.1-0.1v-0.1v0l-0.1-0.2L64,50.8l-0.4,0.1l-0.3,0.2l-0.6,0.4l-0.2,0.1l-0.2,0.1l-0.1,0.1
				l-0.1,0.1l-0.1,0v-0.2l-0.2-0.2l-0.2-0.1l-0.5-0.2l-0.5-0.1L60.2,51H60l-0.2,0.1l-0.2,0.1l-0.2,0.2l0,0.2l-0.1,0.2l2.2,0.5l0.1,0
				v-0.1l-0.9-0.5l0.1,0l0.5,0.2l0.1,0l0.7,0.3L62,52.4l0,0.2v0.3l0,0.1l0.1,0L62.7,53.1z M70,53l0.2-0.2l0.2-0.2l0.1-0.2v-0.2v-0.1
				l-0.1-0.3l-0.1-0.2v-0.3l-0.1-0.2v-0.3l0-0.2l-0.2-0.5l-0.2-0.4l-0.2-0.4l-0.1-0.1l-0.5-0.9h-0.2l-0.2,0v0.2v0.2l0.1,0.3l0.2,0.3
				l0.1,0.3l0.2,0.2l0.1,0.2l0.2,0.5l0.1,0.7v0.3v0.3l-0.1,0l-0.2-0.2l-0.2-0.2L69,51.3l-0.2-0.2l-0.2-0.4l-0.2-0.5l-0.2-0.3
				l-0.3-0.3l-0.2-0.3l-0.1-0.1l-0.1,0l-0.1,0l-0.1,0l-0.1,0.2l1.9,3.2L70,53L70,53L70,53z M82.8,52.8L82.8,52.8l0.1-1.3v-1.2
				l-0.1-2.4l-0.1-0.3v-0.2l-0.1-0.3L82.6,47l-0.1-0.2v-0.2l-0.1-0.2v-0.2l-0.1-0.3l-0.1-0.3l-0.2-0.6v-0.2l-0.1-0.1l-0.1-0.3
				l-0.2-0.1l-0.1-0.2l-0.1-0.1L81.6,44l-0.1,0.2v0.2l0.1,0.5l0.2,0.6l0.1,0.3V46l0.1,0.5L82,47l0.1,0.4v0.2L82,47.8L82,47.8l-0.1,0
				l-0.1-0.2l-0.1-0.2l-0.1-0.2l-0.1-0.3v-0.3l-0.1-0.2l-0.1-0.2l-0.1-0.2l-0.1-0.2l0-0.3l-0.1-0.3l-0.1-0.4L81,44.4l-0.2-0.3
				l-0.2-0.3l-0.4-0.6l-0.6-0.6l-0.2-0.4L79,41.8l-0.1-0.2l-0.1-0.2l-0.2-0.3l-0.2-0.3l-0.2-0.1l-0.1-0.1h-0.1L78,40.7l-0.1,0.2v0.2
				v0.5l0.1,0.3l0.1,0.1v0.2l0.2,0.1l0.1,0.2l0.2,0.4l0.2,0.5l0.3,0.1l0.2,0.2l0.2,0.2l0.2,0.2v0L79.5,44l-0.1,0l-0.2,0.3l0.3,1
				l-0.1,0.2l-0.6-0.8l-0.4-0.3l-0.2-0.2L78.2,44l-0.3-0.3l-0.3-0.2l-0.3-0.2L77,43.2l-0.2-0.4l-0.3-0.3l-0.3-0.3l-0.1-0.2L76,41.8
				l-0.1-0.2l-0.1-0.1h-0.1h-0.1l-0.1,0.1l-0.1,0.3v0.2v0.2l0.1,0.3l0.1,0.3l0.2,0.2l0.2,0.2l0.1,0.2l0.2,0.2l0.2,0.2l0.2,0.1
				l0.2,0.2l0.2,0.1l0.1,0.1l0.2,0l0.2,0l0.3,0.2l0.6,0.5l0.2,0.2l0.1,0.2l0.3,0.4l0.1,0.3l0.1,0.3l0.2,0.1l0.1,0.1l0.1,0l0.3,1.5
				l0.1,0l0.1,0.1l0.1,0.1l0.1,0l0.3,0.8l0.1,0h0.1l0.2-0.6l-0.1-0.2v-0.2v-0.4v-0.3l-0.1-0.2l-0.1-0.2L80.5,47l-0.1-0.4L80.3,46
				l-0.1-0.3l-0.1-0.3L80.1,45L80,44.6l-0.2-0.3l-0.2-0.3v0l0.1,0l0.3,0.3l0.2,0.5l0.1,0.2l0.1,0.1l0.1,0.2l0.1,0.1l0.1,0.2l0.1,0.1
				v0.2l0.1,0.1V46l0.1,0.3v0.3l0.1,0.1l0.1,0.2l0.4,1.2l0.1,0.1l0.1,0.2l0.1,0.4l0.2,0.3l0.2,0.4l0.1,0.4l0.1,0.4v0.1l0.2,0.4v0.2
				l0.1,0.2l0.1,0.2v0.3l0.1,0.4l0.1,0.3l0.1,0.2v0.2l0.1,0.1L82.8,52.8L82.8,52.8z M40.6,52.6l0.1,0l0-0.1l-0.1-0.2l-0.1-0.3
				l0.1-0.3l0.1-0.2v0l-0.5-0.7l0-0.5l0.2-0.2l0.1-0.2l0-0.2v-0.2v-0.5l0.1-0.2l0.1-0.2v-0.4l-0.2-0.1l0,0l-0.1,0.2l-0.1,0.2l0,0.3
				L40.2,49v-1.8l0-0.1l0.2-0.1l0.2,0l0.4,0l0.4,0l0.2-0.1l0.2-0.1l0.2,0.1l0,0.2l0.1,0.2v0.2v0.2L42,47.9l-0.1,0.5l0.1,0l0.5-0.1
				l0.2,0.1l0,0.1l-0.3,0.9l-0.5,0.3l-0.2,0.2l-0.2,0.2v0l0,0.1l0.7-0.1l0.1,0.3L42,51.3l-0.2,0.1l-0.2,0.2l-0.1,0.3l-0.1,0.3v0.3
				v0.7l0.1,0.4l-0.1,0.3l0.1,0.3l0.1,0.4v0.1l0,0.1l0,0.1l0,0.1l-0.2,0l-0.1,0L41.3,55l-0.1-0.2l-0.1-0.1v-0.1L41,54.5l-0.2,0.2
				l-0.2,0l-0.2,0l-0.1-0.1l-0.2,0v-1.1l0.3,0.5l0.2,0.2l0.2,0.2H41l0-0.1l-0.1-0.2l0-0.2l-0.3-0.5l-0.2-0.2L40.2,53v-0.9l0.2,0.3
				l0.1,0.1L40.6,52.6L40.6,52.6z M40.2,52.1l-0.2-0.2l0-0.2L40,51.2v-0.5l0-0.2l-0.1-0.2l0-0.3l0-0.3H40l0.2-0.2l0.1-0.5l0-0.1
				v-1.9l-0.1,0.1l0,0.2v0.2v0.2l-0.2,0.4l0,0.2l-0.1,0.2h0l-0.4-0.4h-0.1l-0.2,0.2l-0.1,0.2l0,0.3v0.4l0.2,0.5l0.1,0.3L39,50.4h0h0
				h-0.1h-0.1l-0.2-0.2l0,0.1h-0.1l-0.1,0.2l0.2,0.8l1.2,1l0.5,0.7l0.1,0.1L40.2,52.1L40.2,52.1z M40,53.2l-0.2,0l-0.1,0.1l-0.2,0.3
				L39.3,54l0.1,0.4l0.2,0.1l0.2,0.1l0.4,0v-1.1L40,53.2z M90.8,52.4l0.1,0L91,52v-0.3L91,51l-0.1-0.8v-0.7l-0.1-0.2l-0.1-0.2V49
				v-0.2l-0.1-0.1h-0.1l-0.1,0.1L90.5,49l-0.1,0.9l0.1,0.4l0.1,0.4l-0.1,0L90.4,51l-0.1-0.1l-0.1,0L90,47.7l-0.1,0l-0.1,0l-0.1,0.4
				l-0.1,0.4l-0.1,0.8l0.1,1.7l0.4,0.7l0.2,0.3l0.3,0.2l0.1,0.2L90.8,52.4L90.8,52.4L90.8,52.4z M53.5,52.3l1.4-0.4l0.1-0.5l0.2-0.2
				l0.1-0.1l0.1,0l0.2,0.1l0.1,0l-0.1,0.1l-0.2,0.1l0,0.1l0,0.1v0.2v0.1l0.2,0.1h0.2h0.2l0.2-0.1l0.1-0.1l0.1,0h0.2l0.1-0.1l0.2-0.2
				l0.3,0.1h0.1h0.1l0.4-0.3l0.3,0.1l0.2,0.1l0.3,0.2l0.1,0h0.2l0.5-0.4l0.5-0.5l0.4-0.2l0.3-0.3l0.3-0.3l0.2-0.3l0.3-0.8l0-0.1h0.1
				l0.1,0l0.1,0.3l0.7,0.2h0.1l0-0.1l-0.2-0.4L62,48.7l-0.1-0.2l0.1-0.3l-0.3-0.4l0-0.1l0.2-0.1l0.1-0.1l0.1-0.2l-0.4-0.6l-0.8-1.1
				l-0.1,0l0,0.1v0.8l0,0.1v0.1l0.1,0.2l0.2,0.2l0.1,0.2v0l0,0l0.1,0.2l0,0.1l-0.1,0l0,0v0.1V48l-0.1,0.1h-0.1l-0.2-0.2l-0.1,0
				l-0.1,0h-0.1l0,0l0,0.2l-0.1,0.2l0.1,0.2l0,0.3v0.2V49l0,0.2L60,49.4l-0.3,0.3L59.4,50l-0.1,0l-0.7,0.6h-0.2l-0.2-0.1l-0.1-0.2
				l0-0.1h0l0.2,0.2l0.1,0l0.1-0.1l0.1-0.2l-0.2-0.4l-0.2-0.2l-0.2-0.2l-0.8,0.2l-0.2,0.2l-0.1,0.3L57,50.2v0.4l-0.1,0.1l-0.1,0.1
				h-0.1l0-0.1v0l-0.1-1.3l0-0.1L56.4,49v-0.3v-0.3l0.1-0.3h0l0-0.1l0.1-0.2v-0.1l-0.1-0.1l-0.1-0.1h-0.1h-0.1L56,47.7l-0.3,0.1
				l-0.1,0.3l0.3,1.8V50l0,0l0.1,0.2l0,0.1l0.2,0.3l0.1,0.2l0.1,0l0.1,0l-0.1,0.1l0,0.1l-0.2,0.2h-0.1l-0.2-0.7l-0.1-0.1L55.6,50
				l-0.3-1.6l-0.1,0l0,0L55,48.5l0,0.3l0,0.1l-0.1,0.1l-0.1,0l-0.4,0.4l0.1,0.6l0.2,1l-0.1,0l-0.1,0.1h-0.3l-0.3,0l-0.4,0h-0.2
				l-0.2,0l-0.1,0h-0.2l-0.3-0.2l-0.5-0.4l0-0.6L52,49.5L51.8,49l-0.2-0.4v-0.1l-0.5-0.7l-0.3-0.3l-0.2-0.2l-0.2-0.2L50,46.6
				l-0.3-0.2l-0.3-0.2l-0.1-0.1l-0.1,0L49.1,46L49,45.8l0-0.3l-0.1-0.2l0.1-0.6l0.1-0.3l0.1-0.3l0.1-0.2l0-0.2l0.1-0.2v-0.2l0.2-0.4
				l0-0.3v-0.3L49.5,42v-0.2l-0.1-0.2l-0.2-0.3l-0.2-0.2l-0.2-0.2l-0.2-0.1l-0.1,0v-0.2l0.2-0.8v-0.1v0l-0.3-0.2h-0.2l-0.1,0
				l-0.1,0.1l-0.1,0.2L48,40l-0.1,0.2v0.4v0.4v0.4l0.1,0.1l0,0.1l0.2,0.1l0.1,0l0,0l0.2-0.1l0-0.1h0.1l0.1-0.1l0.1,0.1l0.1,0.2
				l0.2,0.4v0.2l0,0.3l0,0.5L49,43.2l-0.1,0.2l-0.1,0.3l0,0.3l0,0.2l-0.1,0.2l0,0.2v0.2L48.5,45l0.1,0.2l-0.1,0.1l0,0.2l0,0.3
				l0.1,0.3l0.1,0.3l0.3,0.4l0.3,0.3l0.7,0.5l0.3,0.3l0.2,0.3l0.2,0.1l0,0.1l0.1,0.1l0.2,0.4l0.2,0.5l0.1,0.4l0,0.5l0.1,0.2l0,0.3
				l0,0.3l0.1,0.1l0.1,0.1l0.1,0.2l0.2,0.2l0.1,0.1l0.1,0.2l0.5,0.1l0.3,0.2l0.2,0L53.5,52.3z M65.5,52.3L65.5,52.3L65.5,52.3
				l0.2-0.2l-0.1-0.2l-0.1,0h-0.1l-0.1,0v0v0.2L65.5,52.3L65.5,52.3z M71.5,52.1h0.2l0.1-0.1l0.1-0.2l0.1-0.2l0.1-0.4v-1.1l-0.1-0.6
				L72,49l-0.2-0.5l0-0.4l-0.6-1.4l-0.1-0.1H71l0,0v0.1v0.2l-0.1,0.2l0.2,0.5l0.1,0.3l0.1,0.3l0.1,0.4l0.1,0.4l0.1,0.3l0.1,0.4
				l0.1,0.2l-0.1,0.2l-0.1,0.4l0.1,0.2l-0.1,0.2l-0.2-0.2l-0.2-0.2l-0.2-0.2L70.8,50l-0.3-0.7L70.3,49l-0.1-0.3l-0.2-0.4l-0.2-0.3
				l-0.1-0.1l-0.1-0.1l-0.2,0.1L69.4,48v0.2v0.2l0.1,0.2l0.2,0.3l0.1,0.4l0.1,0.1l1,2.4L71.5,52.1z M67.4,51.8L67.4,51.8L67.4,51.8
				l-0.3-0.8l-0.4-0.7L66.5,50l-0.2-0.3L66,49.4l-0.3-0.2l-0.1,0.1l0,0l0.2,0.4l0.2,0.4l0.3,0.5l0.3,0.4l0.3,0.4l0.2,0.2L67.4,51.8
				L67.4,51.8L67.4,51.8z M62.3,51.4L62.3,51.4l0.2-0.2l0.1-0.2l0.1-0.1l0.1-0.1h0l0.1,0.1L63,51l0.1,0l0.1-0.1l0.1,0L63,50.6
				l-0.2-0.1l-0.6-0.3l-0.4,0.2l-0.1-0.1l0-0.1l0.1-0.2l0.1,0l0.3-0.2h0.3h0v-0.1v0l0-0.1l-0.2,0L62,49.5h-0.2l-0.2,0l-0.2,0.1
				l-0.3,0.2L61,49.9l0,0.2l-0.1,0.3l0,0.3l0.1,0.1l0.1,0.1l0.3,0.2l0.3,0.2l0.3,0.2L62.3,51.4L62.3,51.4z M69.3,51.3l0.1,0l0.1-0.1
				v-0.2l-1.3-2.3l-0.2-0.1h-0.2l-0.1,0.1v0.2v0.2l0.1,0.1l0.3,0.2l0.2,0.3l0.2,0.3l0.2,0.3l0.3,0.7l0.2,0.3L69.3,51.3z M47.9,51.1
				h0.2h0.1l0.1,0l0-0.2l0.1-0.1v-0.2l-0.1-0.3l-0.1-0.2L48,49.8l-0.2-0.2v-0.6l0.2,0.1l0.2,0.1l0.2,0.2l0.1,0.2l0.2,0.4l0.1,0.5
				l0,0.2v0V51l-0.1,0.2l-0.2,0.4l-0.3,0.2H48l-0.2,0l0,0L47.9,51.1L47.9,51.1L47.9,51.1z M47.6,50.9l-0.2-0.2l-0.1-0.1l-0.1-0.2
				l0.1-0.4l0-0.2l0,0l0.1-0.1l0.4,0V49l0,0l-0.4,0.2l-0.2,0.1l-0.1,0l-0.2,0.2l-0.2,0.1L46.4,50v0.4l0.1,0.3l0.2,0.3l0.3,0.3
				l0.7,0.5l0.2-0.1v-0.7L47.6,50.9z M73.1,50.9l0.2-0.5l0.2-0.5l0.2-1.4v-0.7v-0.3l-0.1-0.3v-0.4l-0.1-0.4l-0.2-0.7L73,45l-0.3-0.5
				l-0.3-0.5l-0.1,0l-0.1,0.2l0.2,0.7l0.2,0.3l0.1,0.3l0.1,0.3l0.1,0.3v0.2l0.1,0.2l0.1,0.2l0.1,0.2l0.1,0.2l0.1,0.1L73.1,49L73,49
				l-0.1,0l-0.1-0.1l-0.1-0.2v-0.2l-0.1-0.2l-0.2-0.4l-0.1-0.3l0-0.2L72.4,47l-0.1-0.4l-0.2-0.4l-0.2-0.4l-0.2-0.4l0-0.4l0.1,0
				l0.1,0.1l0.2,0.2l0.1,0.3l0.2,0.3l0.3,1.1l0.1,0.1l0.1,0.1l0.1-0.1v0L72.3,45l-0.1-0.1l-0.1,0l-0.1-0.1l-0.1-0.1l-0.2-0.5h0
				l-0.2,0.5l-0.1,0.1l-0.1,0.1l-0.1,0.3l-0.1,0.3l0.1,0.3l0.1,0.3l0.2,0.6l0.2,0.6l0.1,0.4L72,48l0.1,0.2v0.2l0.1,0.2l0.2,0.3
				l0.1,0.2l-0.1,0.2l0.1,0.3l0,0.4l0.1,0.4l0.1,0.2l0.1,0.2l0.1,0L73.1,50.9L73.1,50.9L73.1,50.9z M63.6,50.6h0.3h0.1l0.1-0.1
				l0.1-0.3v-0.4v-0.3l-0.1-0.3H64h-0.2l0,0.1l-0.1,0.1l0,0.3v0.1l0,0h-0.1l0-0.2l0.2-0.4l-0.2-0.6l-0.2-0.1L63,48.7l0,0l-0.1-0.1
				l-0.1-0.3l-0.2-0.3l-0.2-0.3l-0.1,0.3v0.2l0.1,0.5l0.2,0.3l0.1,0.3l0,0.3l0.2,0.3V50l0,0.3L63.6,50.6z M53.3,50.3l0.7,0v-0.1V50
				l0-0.1l-0.1,0l-0.2,0l-0.2-0.1l-0.3-0.3l-0.3-0.7l-0.2-0.8l-0.1-0.4l-0.2-0.3l-0.2-0.3l-0.3-0.2l-0.2-0.1l-0.2-0.1l-0.3-0.2
				l-0.5-0.5l-0.3-0.2l-0.1-0.2l0-0.2v-0.3l0-0.3l0.1-0.2l0-0.2l0-0.2v-0.2l0.1-0.3l0.1-0.2l0.1-0.2l0-0.4v-0.3v-0.3l-0.1-0.5
				l-0.3-0.4l-0.3-0.4l-0.4-0.3l-0.4-0.3l-0.1,0l0,0.1v0.1l0,0.1l0.3,0.4l0.3,0.4l0.1,0.2l0.2,0.2l0.1,0.2l0,0.2v0.4v0.3l-0.1,0.3
				l0,0.3l-0.1,0.2v0.2l-0.2,0.5l0,0.4v0.5l0.1,0.4l1.1,0.9l0.1,0.1l0,0l0.1,0.2l0.2,0.2l0.2,0.2l0.3,0.5l0.5,1.1l0.2,0.5l0.2,0.5
				L53.3,50.3z M71.2,50l0.2,0v-0.1v-0.1l-0.1-0.1l-0.1-0.1v-0.3l-0.1-0.4l-0.1-0.3L71,48.2l-0.3-0.6L70.5,47l-0.2,0l-0.2,0l-0.1,0
				v0.1L70,47.4l0.1,0.2l0.1,0.2l0.1,0.2l0,0.2L71.2,50z M45.9,49.6h0.2l0.1,0l0-0.2l0-0.2l-0.2-0.4l-0.2-0.2l0-0.1h-0.1l-0.2,0.2
				l-0.2,0.4l0,0.2l0.1,0.2L45.9,49.6z M56.9,49.3h0.4l0.2-0.1l0.2-0.1l0-0.1v-0.7l0.1,0l0,0l0.1,0l0.1,0l0.1-0.1l0.1-0.3l0.1-0.3
				l0-0.1l0.1-0.1V47l-0.1-0.2l-0.1-0.1l-0.8-0.4L57,46.4l-0.2-0.1h-0.3L56,46.4l0-0.1l-0.1,0l-0.2,0.1h-0.2h-0.4l-0.8-0.1L53.8,46
				l-0.4-0.2L53,45.5l-0.3-0.4l-0.2-0.4l-0.1-0.4l0-0.4l-0.1-0.4V43l0.1-0.4l0-0.4l0.1-0.4l0.1-0.3l0.2-0.3l0.3-0.5l0.3-0.3l0.3-0.3
				l0.3-0.2l0.2-0.2l0.6-0.4l0.5-0.4l0.3-0.2l0.3-0.3l0.5-0.5l0.2-0.1h0.1l0.1,0.1l-0.2,0.4l-0.2,0.4l-0.3,0.4l-0.3,0.3l-0.2,0.2
				l-0.2,0.2L55,40l-0.6,0.6l-0.3,0.3l-0.3,0.3l-0.3,0.3l-0.2,0.4l-0.2,0.3l-0.2,0.4l-0.1,0.4l0,0.4v0.4v0.4L53,45l0.2,0.2l0.1,0.1
				l0.2,0.1v-0.1l0.1,0l-0.1-0.2l0-0.2l-0.1-0.2l-0.1-0.2v-0.4v-0.4l0.1-0.4l0.2-0.4l0.2-0.3l0.2-0.3l0.5-0.6l0.2-0.2l0.2-0.2
				l0.2-0.2l0.3-0.2l0.4-0.4l0.5-0.5l0.5-0.5l0.2-0.3l0.2-0.3l0.1-0.1l0.1-0.2l0-0.3l0-0.4l0.1-0.3l0-0.5l-0.2-0.4l-0.3-0.8l-1-0.8
				l-0.2,0.1v0.9l0,0L55.7,36l-0.1-0.2v-0.8l0.3-0.3l0.2-0.1l0.2-0.1l0.2,0.1l0.1,0.1l0.2,0.3l0.2,0.2l0.2,0.2l0.2,0.2l0.2,0.2
				l0.2,0.3l0.1,0.3l0,0.3v0.3l0,0.7v0.3l0,0.3h0.1l0.5-1.3l-0.5-1.6l-0.5-0.7v-0.1l0.3-0.3l0.3-0.2l0.4-0.2l0.4,0l0.1,0l0,0.1
				l-0.9,0.7l0,0v0.1l0,0.2l0.1,0.1h0.1l0.3-0.1l0.8-0.3l0.3-0.2l0.3-0.2l0.2-0.2l0.1-0.2v-0.2l-0.2-0.2L60,33.4l-0.2-0.2l-0.3-0.1
				h-0.1l-0.1,0l-0.1,0h-0.1l-0.2,0.2l-0.7,0l-2.6-0.5l-0.2,0.1l0,0.2l-0.1,0.1l0,0.2l-0.1,0.1L55,33.5h-0.3l-0.4,0.4L54.1,34
				L54,34.2l-0.1,0.3l-0.1,0.3l-0.1,0.3l0.1,0.3l0.1,0.4l0.3,0.4l0.3,0.3l0.3,0.3v0.1h0.1h0.1l0.3,0.1l0.7,0.1l0.1-0.1l0.1-0.2
				l-0.2-0.5h0l0.1,0l0.3,0.3l0.1,0.2l0.1,0.2l-0.1,0.2l-0.1,0l-0.1,0l0,0.1v0l-1.1,0.8l-0.2,0.2l-1.1,0.9l-1,0.9l-0.1,0.3l-0.5,0.8
				l-0.1,0.2L52,41.5l-0.1,0.2l0,0.3l-0.1,0.3l0,0.3l0,0.6l0,0.7l0.1,0.7l0.1,0.5l0.2,0.5v0.1l0.1,0.1l0.7,0.8l0.4,0.2l0.4,0.3h0.2
				l0.2,0l0.2,0.1h0.2l0.3,0.1l0.2,0h0.5h0.2h0.2H56l0.2,0l0.1,0l0.1,0h0l0.4-0.1l0.1,0l0,0h0.7l0.1,0.1l0.1,0.1l0,0.3v0l0,0.1
				l-0.1,0l-0.2-0.2l-0.2-0.2h-0.3l0,0v0l0,0.1v0l-0.1,0.4l-0.1,0.3l0,0.3V49v0.2L56.9,49.3L56.9,49.3L56.9,49.3z M58.8,49.3h0.1
				l0.1-0.1l0.2-0.2l0.2-0.2l0.2-0.2l0.2-0.5l0.1-0.3v-0.3l0.1-0.2l-0.1-0.2V47v-0.2l-0.2-0.3l-0.1-0.3l-0.3-0.5l-0.3-0.3l-0.3-0.3
				L58.3,45l-0.4-0.1l-0.3-0.1h-0.3l-0.6,0h-0.3h-0.3h-0.4l-0.2,0L55.5,45l-0.2-0.1H55l-0.3,0l-0.2-0.2l-0.2-0.2L54,44l-0.2-0.4
				h-0.1v0.1l-0.1,0.2l0.1,0.6l0.1,0.3L54,45l0.2,0l0.1,0.1l0.3,0.2l0.4,0.1h0.4h0.8h0.9l0.8,0l0.3,0.2l0.3,0.2l0.4,0.4l0.2,0.3
				l0.2,0.3h-0.1h0l0,0v0.7L59,47.8l-0.2,0.1l-0.5,0.9l0,0.2l0.1,0.1l0.1,0.1L58.8,49.3z M66.3,49.2h0.2l0.2-0.1l0.1-0.1l0.1-0.1
				l0.1-0.2l0.1-0.2L67,48.1l-0.2-0.7L66.7,47l-0.2-0.4l-0.4-0.7l-0.2-0.2l-0.1-0.2l-0.1,0l-0.1-0.1l-0.1-0.2L65.4,45l-0.2-0.2
				l-0.1-0.1H65l-0.1,0l0,0.1l-0.1,0.2l0.2,0.3h0h0.1l1,1.5l0.2,0.6v0.3v0.3l-0.1,0.1l-0.3,0l-0.1-0.1l0,0l-0.2-0.3l-0.5-0.5
				l-0.2-0.4l-0.2-0.2l-0.1-0.1l-0.3-0.4l-0.2-0.3l-0.2-0.3l-0.4-0.3h-0.2l-0.2,0.1l0,0.2v0.2l0.2,0.2l0.2,0.3l0.1,0.3l2,2.5
				l0.5,0.3L66.3,49.2z M46.9,49.1L46.9,49.1L47,49l0.1-0.2v-0.2l0-0.2L47,48.3v-0.1v-0.1l0-0.1v-0.1l-0.1,0h-0.1h-0.1l-0.3,0.2
				l-0.1,0.1l0,0.2v0.2l0,0.1l0.1,0.3l0.2,0.2L46.9,49.1z M64.5,49.1h0.1l0.3-0.3v-0.2v-0.1l0-0.1l-0.5-0.7l-0.2-0.3L64,47.1
				l-0.3-0.3l-0.1-0.2l0-0.2l-0.7-0.9l-0.3-0.3l0-0.1l0.6-0.3l0.3-0.6l-0.1-0.2v-0.3l0-0.3l0-0.2l-0.1-0.8v-0.8l0-1.7l-0.1,0l0,0
				l-0.2,0l-0.1,0.2l-0.2,0.3l0,0.6l0,0.5v0.5l0,0.5l0,0.3l0.1,0.3l0,0.3v0.3l-0.1,0.1L62.6,44l-0.2,0h-0.2L62.1,44L62,43.8
				l-0.1-0.2l-0.1-0.2l-0.2-0.2l-0.1-0.4l-0.1-0.4l-0.1-0.9l0-0.8l0.1-0.9l-0.1-0.1l-0.1,0l-0.2,0L61,39.8l-0.2,0.6l-0.1,0.3l0,0.3
				l0,0.3l0,0.3l0,0.6l0.1,0.2v0.2l0,0.2L61,43l0,0.2l0.2,0.5l0.1,0.2l0.1,0.2v0.1l0.2,0.3l0.2,0.3l0.3,0.2l0.3,0.1l0.1,0.1
				l-0.1,0.2v0.1l0,0.1l0.4,0.5l0.3,0.4l0.3,0.4l0.3,0.4l0,0.1l-0.1,0L63,46.9l-0.6-0.8l-0.6-0.8L61.4,45l-0.3-0.3L61,44.7l-0.1,0
				l-0.1,0.2l0.1,0.2l0.1,0.2l0.3,0.3l0.3,0.4l0.3,0.4l0.1,0.1l0.1,0.3L62,47l0.4,0.4h0.1l0.1,0l0.2,0.3L63,48l0.6,0.5L64.5,49.1z
				 M47.7,48.8l0.2-0.1l0.1-0.2v-0.2v-0.2l0-0.2l-0.1-0.1l-0.1,0h-0.2l-0.1,0l-0.1,0.2v0.3l0.1,0.2l0,0.1v0.1l0.1,0L47.7,48.8
				L47.7,48.8z M68.5,48.2l0.6-0.2l0.4-0.8l-0.1-0.2l-0.1-0.2l-0.1-0.2l-0.1-0.2l-0.1-0.4l-0.2-0.4L68.5,45l-0.4-0.7L68,44l-0.2-0.4
				l-0.1-0.1l-0.1-0.1l0.1,0v-0.1h-0.1l-0.1,0.1h0l-0.1,0l-0.1,0l-0.1,0.1v0.3l0.1,0.3l0.2,0.3l0,0.3l0.4,0.9l0.4,0.8l0.1,0.4V47
				v0.1l-0.1,0.1l-0.2,0.1l-0.2-0.1l-0.2-0.1l-0.3-0.3l-0.2-0.4L67.2,46l-0.3-0.5l-0.4-0.5l-0.1-0.1l-0.1-0.2l-0.1-0.2l-0.1-0.1
				l-0.3,0l-0.1,0.1l-0.1,0.1l0.1,0.2l0.1,0.2l0.2,0.3l0.3,0.4l0.1,0.2l0.2,0.2l0.3,0.5l0.3,0.5l0.3,0.5l0.3,0.5l0.5,0.1L68.5,48.2
				L68.5,48.2z M78.4,47.9h0.1l0.1-0.2l-0.1-0.3L78.4,47l-0.3-0.6L78,46l-0.1-0.4l-0.2-0.4l-0.2-0.4l-0.2,0l-0.2-0.1H77l0.1,0.7
				h-0.1l-0.3-0.4l-0.4-0.4L75.9,44l-0.2-0.1l-0.3-0.1l-0.3-0.1l-0.2-0.1l-0.2-0.2l-0.2-0.1l-0.8-0.6h-0.1l-0.1,0.3l0.2,0.6l0.2,0.2
				l0.1,0.1l0.1,0l0.1,0l0.3,0.2l0.2,0.1h0.2l0.3,0.2l0.2,0.2l0.3,0.1l0.1,0.1l0.1,0.1l0.1,0.1l0.1,0l0.2,0.2l0.1,0.1l0.1,0.2h0.1
				h0.1l0.2,0.2l0.1,0.1l0.1,0.1v0.1v0h0.1l0.1,0.1l0.3,0.5l0.2,0.2l0.2,0.2l0.2,0.2l0.1,0.3L78.4,47.9z M39.4,47.8L39.4,47.8
				L39.4,47.8l-0.1-0.1L39.4,47.8L39.4,47.8L39.4,47.8z M46.2,47.8l0.2-0.1l0,0l0.1-0.1l-0.3-1.1l0-0.1l-0.1,0l-0.2-0.2l-0.1,0h0
				l-0.1,0l0,0l-0.1,0.1l-0.1,0.2v0.1v0.1l-0.1,0.2l0.1,0.2l0,0.2l0.2,0.2l0.3,0.2l0,0.2l0.1,0.1L46.2,47.8L46.2,47.8z M65.8,47.5
				L65.8,47.5l0.2-0.2l-0.1-0.4h-0.1v-0.1L64,44.6h-0.1v0.3l0,0.2l0.2,0.6l0.2,0.2l0.2,0.2l0.3,0.5l0.3,0.3l0,0.2L65.8,47.5z
				 M68.1,46.9h0.1l0.1,0v-0.1v-0.2l-0.4-0.9l-1.2-2.1h-0.1l-0.1,0.2v0.2l0.1,0.4l0.1,0.3l0.1,0.3l0.5,1l0.1,0.1l0.1,0.2l0.2,0.3
				l0.2,0.3l0.1,0.1L68.1,46.9z M70,46.8h0.2l0.2,0l0.2-0.1l0.1-0.2l0.1-0.2l0.1-0.2l0.1-0.4v-0.4L70.9,45l-0.2-0.8l-0.3-0.7
				l-0.4-0.7l-0.2-0.3l-0.2-0.3L69.4,42l-0.2-0.3L69,41.4l-0.1,0l-0.1,0l-0.1,0.1l-0.1,0.2l0.6,0.9l0.3,0.5l0.2,0.4l0.2,0.4L70,44
				l0.2,0.4l0.1,0.2v0.2l0.1,0.3v0.2l-0.1,0.2l-0.1,0.2H70l-0.2-0.1l-0.2-0.1l-0.1-0.1l-0.5-0.9L69,44.1l-0.2-0.3l-0.2-0.5l-0.1-0.2
				L68.3,43h-0.1h-0.1l-0.1,0.2v0.2l0.1,0.4l0.2,0.5l0.1,0.3l0.1,0.2l0.6,0.8l-0.1,0.2L70,46.8L70,46.8z M69.9,45.1h0.1l0.1-0.2
				l-0.8-2l-0.2-0.3L69,42.6l-0.1,0l-0.2-0.4h-0.1l-0.1,0.1l-0.1,0.2l0.1,0.2l0.1,0.2l0.1,0.2l0.2,0.3l0.2,0.3l0.8,1.2L69.9,45.1
				L69.9,45.1L69.9,45.1L69.9,45.1z M59.8,44.7l0.6,0l0.2-0.1l0.2-0.1l0.2-0.2l0-0.2v-0.2l-0.4-1.3l0-0.5l0-0.6l0-0.5l0-0.6l0-0.2
				l0-0.2l0.1-0.3l0.1-0.3v-0.1l0-0.1l-0.2,0.1l-0.2,0.2L60,39.6l0,0.2l-0.1,0.2l0,0.2l-0.1,0.5l0,0.4v0.5l0,0.4l0.1,0.2v0.2l0,0.2
				v0.2l0.1,0.2V43l0,0.3l0,0h0l-0.1-0.1l-0.2-0.4l-0.2-0.4l-0.2-0.4l-0.1-0.5l0-0.5l0-0.4l0.1-0.5l0.2-0.4l0.1-0.3l0-0.2V39l0,0
				l-0.1-0.1l-0.3,0.2l-0.3,0.3l-0.2,0.3l-0.2,0.4l0,0.3v0.3v0.6l0,0.4l0.1,0.4l0.3,0.8l0.2,0.4v0l0,0.1l0.1,0.2l0,0.3l0,0.2
				l0.1,0.2v0.2l0,0.2v0.1L59.8,44.7z M65,44.4l0.5-0.3l0.2-0.2l0.2-0.2l0.1-1l-0.1-1l-0.2-2l-0.1-0.2l-0.1-0.1l-0.1,0.1l-0.1,0.1
				v0.9l0,0.8l-0.1,0.8V43l-0.1,0.2l-0.1,0l-0.3,0.2l-0.2,0l-0.1-0.1l-0.1-0.3l-0.1-0.3l-0.1-0.3v-0.4l-0.1-0.4l0.1-0.4l0.1-0.3
				l-0.2-0.6L64,39.9L63.8,40l-0.1,0.2v0.1l0.1,0.2l-0.1,0.7v0.6l0,0.7l0.1,0.7l0.2,0.3l0,0.4l0.2,0.2l0.2,0.2l0.2,0l0.2,0.1l0.2,0
				L65,44.4z M71.3,44.2l0.1-0.1l0.1-0.2l0.1-0.2l-0.1-0.2l-0.1-0.2l-0.1-0.2v-0.2l-0.1-0.2v-0.2l-0.1-0.2L71,41.9l-0.8-1.6
				l-0.1-0.2l-0.1-0.2l-0.2-0.3l-0.1,0l-0.1,0.2v0.2v0.5l0.1,0.1v0.2l0.3,0.5l0.2,0.2l0.1,0.3l0.1,0.1l0.1,0.1l-0.1,0.1h-0.1v-0.1
				l-0.8-1l-0.3-0.2l-0.1,0l-0.1,0.2L69,41.1l0.3,0.2l0.2,0.3l0.2,0.3l0.2,0.3l0.1,0.2l0.1,0.2l0.3,0.2l0.2,0.3l0.3,0.7l0.1,0.2
				l0.1,0.1L71.3,44.2L71.3,44.2z M72.1,43.7l0.2-0.3l0.3-0.3l0.5-0.4l0.1-0.1l0.1-0.2l-0.1-0.2l-0.2-0.5l-0.1-0.1l1,0.7l0.3-0.1
				l0.4,0l0.3-0.2l0.3-0.2l0.1-0.2l0.1-0.2l-0.1-0.2L75.2,41l-0.1-0.4L75,40.3h0.1l0.1,0.1l0.1,0.1l1.3,0.9l0.1,0.2l0.1,0.2l0.2,0.4
				l0.3,0.4l0.3,0.3l0.3,0.2l0.2,0.1l0.1,0.1H78l0.1-0.1L78,42.9l-0.1-0.2l-0.1-0.2l-0.1-0.2L77.5,42l-0.2-0.3l-0.2-0.3l-0.1-0.1
				l-0.1,0l-0.3,0l-0.1,0l-0.1,0l0.2-0.2l0.1-0.1h0.1l0.2,0l0.2-0.1l0.2-0.1l0.1-0.2v-0.3l-0.1-0.3l-0.2-0.5L77.2,39L77,38.8
				l-0.2-0.3l-0.1-0.2L76.3,38l-0.3-0.4l-0.3-0.4l-0.3-0.3l-0.2,0L75,37.1v0.2l0.1,0.2l0.1,0.2l0.2,0.2l0.3,0.2l0.2,0.2l0.2,0.3
				l0.2,0.2l0.3,0.6l0.2,0.3l0.1,0.3L76.8,40l-0.1,0h-0.4L76,40l-0.2-0.1l-0.1,0l-0.1-0.2l-0.4-0.3l-1.1-0.9L74,38.5l0.1,0.5
				l0.6,0.6v0l-0.1,0l-0.7-0.6l-0.1-0.1h-0.2l-0.1,0.1l-0.1,0.1v0.1l1.1,1.5v0.1l-0.1,0.1l-0.2,0.2h-0.2H74l-0.3,0l-0.3-0.2
				l-0.2-0.2l-0.1-0.1l-0.3-0.3l-0.4-0.1l-0.1,0l0,0.1l0,0.3l0.4,0.7v0.1h-0.1L72.2,41h-0.4v0.1v0.2v0.2l0.4,0.4l0.1,0.2v0.2v0.1
				l-0.1,0.1l-0.2,0.2L72,42.9l-0.1,0.3v0.2l0.1,0.2L72.1,43.7L72.1,43.7L72.1,43.7L72.1,43.7z M62.4,43.6L62.4,43.6l0.1-0.2v-0.2
				l0-0.2v-0.3l-0.1-0.3l0-0.4l0-0.4v-0.4l0.1-0.7v-0.4l-0.1-0.4l-0.2,0l-0.2,0L62,40l-0.1,0.3l-0.1,0.9v0.4l0.1,0.4l-0.1,0.2v0.2
				l0.1,0.3l0.1,0.4l0.2,0.3L62.4,43.6L62.4,43.6L62.4,43.6z M74.9,43.2h0.3l-0.1-0.6l-0.1,0l-0.1-0.1l-0.4-0.1l-0.2,0.1l-0.1,0.2
				l0.1,0.2l0.1,0.1L74.9,43.2L74.9,43.2L74.9,43.2z M66.9,43.2l0.2,0l0.2-0.1l0.2-0.1l0.2-0.1l0.3-0.3l0.2-0.3l0.1-0.9L68.1,41
				l-0.1-0.5L68,40.1l-0.2-0.3v-0.2l-0.3-0.7l-0.1,0l-0.1,0L67.2,39v0.2v0.4l0.1,0.1l0.1,0.2v0.2l0.1,0.2l0.1,0.2v0.2l0.1,0.5v0.3
				l-0.1,0.2L67.3,42l-0.2,0.1l-0.2,0l-0.1,0l-0.1-0.2v-0.2l-0.1-0.2l-0.1-0.2v-0.3l-0.1-0.2l-0.1-0.2v-0.3l-0.1-0.2V40v-0.2
				l-0.1-0.2l-0.1-0.1l-0.2,0l0,0L66.1,40v0.4l0.1,0.5l0.1,0.4l-0.1,0.3v0.3l0.1,0.6l0.1,0.2l0.1,0.2l0.1,0.2l0.2,0.2L66.9,43.2z
				 M85.1,43.2L85.1,43.2l0.2-0.1l0-0.1l0.1-0.1l-0.7-2l-0.6-0.4h-0.1l-0.1,0L84,40.6l0.1,0.4l0.1,0.4l0.2,0.4l0.1,0.4l0.2,0.4
				L85.1,43.2z M64.8,42.9l0.1,0v-3.1l-0.1,0h-0.1l-0.1,0.1v0V40l-0.1,0.1l-0.1,0.5l0.1,0.4l-0.1,0.4l-0.1,0.5l0.2,0.9L64.8,42.9z
				 M80.4,42.8L80.4,42.8l-0.8-2.4l-0.4,0.1l-0.1,0.1v0.2l-0.1,0.4l0.2,0.4l0.2,0.3l0.2,0.3l0.1,0.4l0.3,0.2l0.2,0.1H80.4z
				 M82.7,42.8l-0.2-0.5l-0.1-0.2v-0.3l-0.1-0.2l-0.1-0.2v-0.2l-0.1-0.1l-0.1-0.4L82,40.5l-0.2-0.3L81.6,40l-0.2,0.1l-0.1,0.2v0.2
				v0.4l0.1,0.2l0.1,0.3v0h0.1l0.1,0.1l0.1,0.3l0.1,0.3l0.3,0.5l0.1,0.1l0.1,0L82.7,42.8C82.6,42.8,82.7,42.8,82.7,42.8z M71.7,42.6
				l0.1,0l0.1-0.2v-0.2l-0.1-0.3l0-0.2l-0.4-0.4h-0.1l-0.1,0.1l-0.1,0.1l0.1,0.3l0.1,0.3l0.1,0.2l0.1,0.1l0.1,0.1L71.7,42.6z
				 M67.3,41.6l0.1-0.1l0.1-0.2V41l-0.1-0.5l-0.1-0.3l-0.1-0.3l-0.2-0.5h-0.1v0.2l-0.1,0.3l0.1,0.5l0.1,0.4l0.1,0.5l0.1,0.1l0.1,0
				L67.3,41.6L67.3,41.6L67.3,41.6z M47.2,41.3h0.1l0.2,0l0-0.2V41l-0.1-0.3v-0.1v-0.2l0.1-0.2l0.1-0.1l0.2-0.2l0.1-0.1l0-0.1v-0.1
				l0-0.1l-0.2-0.2h-0.1l0,0l-0.2,0.2l-0.1,0.2L47,40l-0.1,0.2v0.6l0.1,0.3l0,0.1L47.2,41.3L47.2,41.3L47.2,41.3z M46.4,41.1
				L46.4,41.1l0.1-0.4l0-0.4l0.1-0.3l0-0.2l0.1-0.1l0.1-0.2l0.1-0.1l-0.1-0.1l-0.1-0.1l-0.2-0.1l-0.9,0.4l0,0.2l0,0.2l0,0.4l0.2,0.2
				l0.1,0.2l0.1,0.2L46.4,41.1L46.4,41.1L46.4,41.1z M71,40.9l0.3-0.2l0.3-0.2l0.3-0.2l0.2-0.3l0.1-0.2v-0.2l-0.1-0.3l-0.2-0.6v0
				l0.7,0.4l0.3,0l0.2-0.1l0.2-0.2l0.1-0.2l0.1-0.3l0.2-0.3l0.1-0.3l0.1-0.3l-0.2-0.3l-0.3-0.3l-0.3-0.3l-0.3-0.2l-0.3,0.2v0.1
				l0.2,0.2l0.2,0.3l0.2,0.2l0.1,0.2l0.1,0.2v0.1L73,37.9l-0.1,0.2l-0.1,0.1l-0.1-0.1l-0.2,0l-0.3-0.3L72,37.7l-0.2,0l-0.2,0v0.1
				l0,0.1l0,0.2l0.3,0.4v0.1l-0.1,0l-0.5-0.3l-0.2,0l-0.1,0.1l0.1,0.3l0.2,0.3l0.2,0.3l0.1,0.3l-0.1,0.1l-0.1,0.1L71.2,40l-0.1,0
				L71,39.8l0.3-0.4l-0.1-0.3L71.1,39l-0.2-0.1l-0.1,0L70.8,39l-0.1,0.2v0.2v0.2l-0.1,0l-0.1,0l-0.1,0l-0.1-0.1h-0.1l0,0.1v0.2v0.2
				l0.1,0.3l0.3,0.6l0.1,0l0.1,0.1L71,40.9L71,40.9z M73.8,40.9l0.2-0.1l0-0.1l0-0.1l-0.1-0.3l-0.2-0.2l-0.1-0.2l-0.2-0.2l-0.2-0.2
				l-0.5-0.1h-0.1v0.2v0.2l0.1,0.3l0.2,0.3l0.3,0.3l0.3,0.2L73.8,40.9z M86.1,40.8l0.5,0l0.4-0.2l0.1-0.2v-0.1l-0.1-0.1l-0.4-0.4
				l-0.3-0.4L86.3,39l-0.2-0.3l-0.2-0.3l-0.1-0.3l-0.3-0.4l-0.2-0.4l-0.2-0.3L85,36.8l-0.2-0.5l-0.3-0.5l-0.2-0.4L84,34.9l-0.2-0.2
				l-0.2-0.3l-0.1-0.3l-0.2-0.3l-0.2-0.3L83,33.4l-0.2-0.3l-0.2-0.3L81.9,32l-0.3-0.4l-0.4-0.3L81,31.2L80.9,31l-0.2-0.1l-0.2-0.2
				l-0.2-0.1l-0.2-0.2l-0.2-0.2l-0.2-0.2l-0.2-0.2l-0.2-0.2L79,29.5l-0.2,0h-0.2v0.2v0.2l0.1,0.1l0.1,0.2l0.2,0.2l0.2,0.2l0.4,0.3
				l0.4,0.4l0.2,0.2l0.2,0.2l0.2,0.1l0.2,0.1l0.2,0.2l0.1,0.2l0.3,0.2l0.2,0.5l0.1,0h0.1l0.1,0.1l0.1,0.1l0.1,0.2l0.2,0.2l0.2,0.2
				l0.3,0.5l0.3,0.5l0.3,0.4l0.2,0.4l0.2,0.3l0.2,0.4l0.2,0.4l0.2,0.1l0.2,0.4l1,1.9l-0.2,0.6L85,39.5l-0.2-0.1l-0.2-0.2L84.3,39V39
				l0.1,0h0.1h0.1h0.1v-0.3l-0.1-0.3l-0.3-0.5l-0.3-0.6l-0.3-0.5l-0.6-1l-0.4-0.4l-0.4-0.4l-0.2-0.3L82,34.1l-0.3-0.5l-0.2-0.2
				l-0.2-0.2L81,32.9l-0.3-0.4l-0.7-0.7l-0.7-0.7l-0.7-0.6l-0.4-0.2l-0.2-0.2L78,30l-0.2-0.1L77.6,30l-0.1,0l-0.1,0.1l0.3,0.7
				l0.6,0.5l0.3,0.2l0.2,0.2l0.2,0.3l0.2,0.2l0.5,0.4l0.5,0.5l0.9,1l0.2,0.3l0.2,0.2l0.2,0.2l0.1,0.1v0.1l0.5,0.5l0.1,0.2l0.1,0.2
				l0.3,0.3l0.2,0.2l0.1,0.2l0.1,0.2l0.1,0.2l0.2,0.4l0.3,0.4l0.2,0.4l0.2,0.4l-0.1,0H84l-0.7-0.8l-0.2-0.3l-0.2-0.3L82.7,37
				l-0.2-0.2l-0.2-0.3l-0.2-0.3L82.1,36l-0.2-0.2l-0.1-0.3l-0.1-0.2l-0.1-0.1L81.5,35l-0.9-1.1l-0.6-0.8l-0.7-0.7l-0.8-0.8L77.7,31
				l-0.4-0.3l-0.4-0.3l-0.1,0l-0.1,0.1v0.3l0.3,0.8l0.3,0.2l0.3,0.2l0.6,0.5l0.7,0.6l0.7,0.7l0.2,0.3l0.2,0.2l0.2,0.2l0.2,0.3
				l0.2,0.2l0.1,0.2l0.2,0.1l0.1,0.2l0.2,0.2l0.1,0.2l0.3,0.4l0.3,0.5l0.3,0.5l0.3,0.4l0.2,0.3l0.2,0.2l0.2,0.3l0.2,0.2l0.2,0.3
				l0.2,0.2l0.2,0.2l0.2,0.2l0.2,0.2l0.2,0.2l0.6,0.4l0.2,0.1l0.2,0l0.1,0.1l0.2,0.1l0.3,0l0.4,0h0.2L86.1,40.8z M68.7,40.7l0.2-0.1
				l0.1-0.3l0.1-0.3l0.1-0.6l0.1-0.2L69.2,39l-0.1-0.4l-0.3-0.7l-0.2-0.1h-0.1h-0.1L68.5,38l0.1,0.1l0.1,0.1v0.2l0.1,0.2l0.1,0.1
				l0.1,0.5v0.2l-0.1,0.2v0.1l-0.1,0.1l-0.2-0.1l-0.1-0.2L68.1,39L68,38.8L68,38.5h-0.1h-0.1l-0.1,0.2l0.2,0.8l0.3,0.7l0.1,0.3
				l0.2,0.2l0.1,0L68.7,40.7L68.7,40.7z M78.7,40.1h0.4l0.4-0.1l0.3-0.1l0.2-0.1l0.1-0.2l0.1-0.3L80,39.1l-0.1-0.3l-0.1-0.3L79.6,38
				l-0.3-0.5l-0.1,0L79,37.1l-0.2-0.3l-0.5-0.6l-1-1l-1.1-0.9l-0.1-0.1l-0.1,0.1L76,34.4v0.2l0.1,0.2l0.1,0.2l0.2,0.2l0.1,0.2
				l0.1,0.1l0.1,0.1l0.3,0.3l0.3,0.3l0.3,0.3l0.3,0.3l0.4,0.4l0.3,0.4l0.3,0.5l0.2,0.5L79,39.2l-0.1,0l-0.2-0.1L78.4,39L78,38.6
				l-0.9-0.9l-0.4-0.5L76.5,37l-0.3-0.3l-0.3-0.4l-0.2-0.2L75.5,36l-0.1,0.1l-0.1,0.1v0.3l0.1,0.2l0.1,0.2l0.3,0.3l0.2,0.3l0.1,0.1
				l0.1,0.2l0.4,0.5l0.2,0.2l0.1,0.2l0.7,0.8l0.5,0.5l0.3,0.2L78.7,40.1z M76.4,39.8h0.1l0.1-0.1v-0.1l-0.1-0.2l-0.1-0.2l-0.2-0.2
				L76,38.8l-0.3-0.2l-0.2-0.3l-0.2-0.2l-0.2-0.2L75,37.7l-0.2-0.2l-0.2-0.1l-0.2-0.2l-0.1,0l-0.1,0.8l1,0.8l0.7,0.7L76.4,39.8z
				 M62.9,39.7h0.5l0.5-0.1l0.2,0l0.2,0l0.2-0.2l0.2-0.2l0.2-0.4l0.2-0.5l0.1-0.2v-0.2v-0.2l0.1-0.2l0.1-0.8v-0.4v-0.4l-0.1-0.1
				l-0.1,0h-0.2l-0.1,0.1L64.7,36v0.2l0,0.2v0.3l-0.1,0.3l0,0.5l-0.1,0.2l-0.1,0.2l-0.1,0.2l0,0.2l-0.1,0.2l0,0.1L64,38.7l-0.3,0
				l-0.1,0.1h-0.2l0-0.1l-0.1-0.1l0.3-2.3l-0.1,0h0l-0.1,0.1l-0.1,0.2l-0.1,0.5L63,37.7l-0.2,0.4l-0.2,0.4l-0.1,0.3V39l0,0.3l0,0.1
				l0.1,0.2L62.9,39.7C62.8,39.7,62.9,39.7,62.9,39.7z M81.4,39.6H82l0.3,0l0.1-0.1l0.1,0l0.1-0.1l-0.1-0.3l-0.1-0.3l-0.1-0.3
				l-0.1-0.3l-0.3-0.5l-0.3-0.5l-0.2-0.3l-0.2-0.3l-0.4-0.6l-0.4-0.5L80,34.9l-0.4-0.5l-0.8-1l-0.4-0.3L78,32.8l-0.4-0.3l-0.4-0.3
				l-0.5-0.5l-0.1,0l-0.1,0.1L76.5,32l0.1,0.4l0.1,0.2l0.2,0.2l0.3,0.3l0.3,0.3l0.2,0.2l0.2,0.2l0.1,0l0.1,0.1l0.1,0.1l0.1,0.1
				l0.2,0.1l0.1,0.2l0.2,0.3l0.4,0.4l0.2,0.3l0.1,0.2l0.3,0.3l0.3,0.3l0.2,0.3l0.2,0.2l0.2,0.2l0.1,0.2l0.4,0.6l0.3,0.5v0.1h-0.1
				L81,38.2l-0.2-0.3l-0.5-0.5l-0.8-1.2L79.3,36l-0.2-0.2L79,35.6l-0.2-0.3l-0.7-0.8l-0.4-0.4l-0.4-0.3l-0.2-0.2l-0.2-0.1l-0.2-0.1
				l-0.2-0.2l-0.1,0h-0.1l-0.1,0v0.2l-0.1,0.2l0.1,0.2l0.1,0.2l0.3,0.3l0.1,0.2l0.1,0.2l1.8,1.7l0.1,0.2l0.3,0.2l0.8,1.2l0.2,0.2
				l0.2,0.2l0.2,0.2l0.2,0.3l0.1,0.2l0.2,0.1l0.2,0l0.1,0.2h0.1l0.1,0.1L81.4,39.6L81.4,39.6z M61.5,39.4l0.3,0l0.2-0.2l0.1-0.2
				l0.2-0.4l0.2-0.4l0.2-0.6l0.2-0.5v-0.5h-0.1h-0.2l-0.3,1l-0.2,0.5L62,38.2l-0.2,0.2l-0.2,0.2l0,0l-0.2,0.1l-0.1-0.1l0-0.3v-0.3
				l0-0.3l0.1-0.3l0.2-0.5l0.2-0.5l0,0l0-0.1l0-0.1l-0.1-0.1l-0.2,0.1v0.1l-0.2,0.3l-0.1,0.3l-0.2,0.3l-0.2,0.3L61,37.9l-0.2,0.4
				l-0.1,0.3l0,0.2l0,0.2l0.1,0.2L61.5,39.4z M68.5,39.3L68.5,39.3l-0.1-1l-0.2-0.1l0,0.3l0.1,0.3l0.1,0.3L68.5,39.3z M70,39.3
				L70,39.3l0.2-0.2l0.1-0.1l0.2-0.2l0.2-0.2v-0.2l0.1-0.2l-0.1-0.2l0.1,0l0.1-0.1l0.2,0.1h0.2l1-1.3L72,36.6l-0.1-0.2l-0.3-0.2
				L71.2,36l-0.3-0.2l-0.2,0l-0.1,0.1L70.6,36l-0.1,0.2l0.2,0.3l0.3,0.3L70.8,37l-0.1,0.1l-0.1,0l-0.7-0.5l-0.1,0.1v0.2v0.3l0.1,0.1
				v0.1h-0.1l-0.1-0.1l-0.2-0.2l-0.1,0.1l-0.1,0l-0.1,0.2l0.1,0.2v0.2l0.1,0.2l0.1,0.2l0.1,0.1v0.2v0.3V39l0.1,0.1l0.1,0.1L70,39.3z
				 M65.8,39.3l0.3,0l0.2-0.1l0.5-0.3l0.3-0.4l0.1-0.3l0.1-0.3l0.1-0.2v-0.2l0.1-0.2l0.1-0.2v-0.7v-0.6v-0.6l-0.1-0.3l-0.1-0.3h-0.1
				L67,35l-0.1,0.3v0.4l-0.1,0.4v0.8v0.4l-0.1,0.3l-0.1,0.2L66.6,38l-0.1,0.2l-0.2,0.2h-0.2l0,0l-0.1,0l-0.1-0.3l0.1-0.6v-0.6
				L66,35.5l-0.1,0l-0.2,0l-0.1,0.2l-0.1,0.6l-0.1,0.3V37l0,0.5l-0.1,0.6l0.1,0.6l0.2,0.5L65.8,39.3z M60,38.9h0.2l0.1,0l0.1-0.1
				l0-0.1v-0.1l-0.2-0.2l0-0.3v-0.3l0.1-0.3l0.2-0.4l0.2-0.5l0-0.2h-0.1l0-0.1l0,0.1l-0.2,0.3l-0.2,0.3l-0.2,0.3l-0.2,0.4l-0.1,0.2
				l-0.1,0.2l-0.1,0.3l0.4,0.5L60,38.9z M78.7,38.8L78.7,38.8l0.2-0.2l-0.4-0.9l-0.2-0.1l-0.1-0.2l-2.5-2.7l-0.1,0.1l-0.2,0.3
				l0.1,0.4l0.4,0.4l0.3,0.5l0.4,0.4l0.2,0.2l0.2,0.2l0.1,0.1l0.1,0.2l0,0.1l0.3,0.2l0.2,0.2l0.2,0.3l0.2,0.1l0.2,0.2l0.1,0.1
				L78.7,38.8z M64,38.4l0.1-0.3l0.1-0.3l0.2-0.7l0-0.7l0-0.6h-0.1L64.1,36L64,36.3l-0.2,0.4l-0.2,1V38v0.2l0,0.2l0.1,0
				C63.9,38.4,64,38.4,64,38.4z M67.5,38.3l0.2-0.1l0.2-0.2L68,38l0.1-0.2v-0.2l0.1-0.2l0.1-0.2V37l0-0.2l0.1-0.2l-0.1-0.4l0-0.5
				l-0.1-0.4l-0.1-0.3L68,34.6L68,34.4l-0.1-0.2l-0.1-0.1h-0.1l-0.2,0.2v0.2v0.1v1.9l-0.1,0.9l-0.1,0.5l-0.1,0.5L67.5,38.3
				L67.5,38.3L67.5,38.3L67.5,38.3z M61.7,38.1l0.2-0.3l0.2-0.4l0.2-0.4l0.1-0.4l0-0.1l-0.1,0l-0.1,0.1l-0.1,0.2L62,37l-0.1,0.3
				l-0.1,0.3l0,0.3L61.7,38.1L61.7,38.1L61.7,38.1z M60.5,38.1L60.5,38.1l0.1,0l0.5-1.4v-0.1l-0.1,0v0l-0.1,0.1l-0.2,0.2l-0.2,0.3
				l-0.1,0.3l-0.2,0.3l-0.1,0.1V38L60.5,38.1L60.5,38.1z M66.3,37.9l0.2-0.1l0.1-0.7l0.1-0.7v-0.7v-0.7L66.5,35h-0.1l-0.1,0.2
				l-0.1,0.2v0.5v0.5v0.3l-0.1,0.2l-0.1,0.5v0.2L66.3,37.9z M72.7,37.9l0.1-0.3l0.1-0.1l-0.1-0.1l-0.2-0.2l-0.1-0.1L72.4,37l-0.1,0
				l-0.1,0.1l-0.1,0.1l0.1,0.3l0.2,0.2l0.2,0l0.1,0.1L72.7,37.9L72.7,37.9z M68.7,37.2l0.4-0.2l0.6-0.6l0.5-0.7l0.2-0.1l0.3-0.5
				l0.2-0.7l-0.1-0.9v-0.4v-0.4l-0.1-0.4l-0.1-0.3v-0.3l-0.1-0.3l-0.1-0.3L70.3,31l-0.1-0.3l-0.1-0.2l-0.1-0.3l-0.1-0.3l-0.1-0.2
				l-0.1-0.3l-0.1-0.3l-0.2-0.2l-0.2-0.3l-0.1-0.2l-0.2-0.2l-0.2-0.2L68.8,28l-0.2-0.2l-0.3-0.2l-0.3-0.1l-0.3-0.2l-0.2-0.2h-0.2
				L67.1,27L67,27l-0.2-0.1l-0.4-0.2l-0.2-0.2L66,26.3V26v-0.2l0.1-0.2l0.1-0.1l0.2,0h0.1l0.2-0.1h1.8l0.2,0.2l0.2-0.1l3,0.7l0.1,0
				l0.1,0l0.3,0.1l0.3,0l0.3,0.1l0.3,0.1l0.3,0.2l0.3,0.2l0.3,0l0.2,0.1l0.2,0.2l0.3,0.3h0.3l0.2,0.2l0.1,0h0.1l0.3,0.3l1,0.8
				L76.8,29l-0.1,0.1L76.5,29l-0.2,0l-0.1,0.1L76,29l-0.1-0.1l-0.2-0.2l-0.1-0.4l-0.1,0l-0.1,0.1l-0.1,0.1l-0.1,0.1l-0.1,0.8v0.1
				h0.1l0.3,0.2l0.6,0.1l0.2,0l0.2,0h0.3l0.6-0.2l0.4-0.2l0.4-0.2l0.3-0.2l0.3-0.4l0-0.2l-0.2-0.2l-0.2,0l-0.2-0.1l-0.2-0.1H78h-0.2
				h-0.2h-0.2l-0.9-0.4l-0.8-0.4l-0.3-0.1l-0.3,0l-0.6-0.4L74,26.4h-0.1l-0.1,0l-0.2-0.1l-0.3-0.2L73,26l-0.3-0.1l-0.2-0.2l-0.3,0
				l-0.3-0.1l-0.3-0.2l-0.3,0l-0.7-0.1L70,25.1L69.2,25l-0.8-0.1l-0.8,0h-0.8h-0.4l-0.4,0l-0.3,0.2l-0.3,0.2l-0.2,0.4L65.2,26v0.4
				l0.1,0.4l0.3,0.4l0.2,0.2l0.1,0.1l0.1,0.1l0.6,0.2l0.2,0.1l0.1,0.1l0.3,0.1l0.1,0.1l0.5,0.3l0.2,0.1l0.9,0.8l0.2,0.5l0.2,0.4
				l0.1,0.2v0.2l0.2,0.7l0.2,0.4l0.1,0.4l0.1,0.2l0.1,0.2v0.4v0.3l0.1,0.2l0.1,0.1l0.1,0.4L70,34.2l-0.1,0.3l-0.1,0.3l-0.1,0.1
				l-0.5,0.7l-0.1,0.3L68.7,36l-0.1,0.2l-0.1,0.3l0.1,0.6L68.7,37.2L68.7,37.2L68.7,37.2z M74.3,36.9L74.3,36.9l0.5-0.4l0.1-0.1
				v-0.1v-0.2L75,36l0.1-0.5l-0.1-0.2l-0.1-0.2l-0.3-0.4l-0.3-0.3h-0.1h-0.1L73.5,34h-0.2l-0.1,0.1v0.1l0.1,0.2l0.1,0l0.2,0l0.1,0.1
				l0.2,0.2l0.3,0.2l0.1,0.2l0.1,0.2l0.1,0.2l-0.1,0.2l-0.2,0.2l-0.2,0.1l-0.3-0.2l-0.7-0.2v0l-0.1,0l0.1,0.2L73,36l0.1,0.2l0.4,0.3
				l0.4,0.2L74.3,36.9L74.3,36.9L74.3,36.9z M62.7,36.2l0.4,0l0.4-0.1l0.4-0.2l0.1-0.1l0.1-0.2l0.1-0.7l0.1-0.2v-0.2v-0.5l-0.1-0.5
				v-0.5l-0.1,0l-0.1-0.1l-0.1,0h-0.1l-0.1,0.2v0.3l0,0.3l0,0.2v0.4l-0.1,0.4l-0.1,0.4l-0.1,0.2l-0.1,0.2l-0.2,0.1L63,35.2l0-0.2
				v-0.3v-0.3v-0.3l0-0.2l-0.1-0.2h0l0,0.1l-0.1,0.1h-0.1L62.5,34v0.1v0.1l0,0.1v0.2v0.2l-0.1,0.4v0.4v0.2l0,0.2L62.7,36.2z
				 M60.6,36.2h0.3h0.3l0.3,0l0.1-0.1l0.2-0.1l0.1-0.2l0.1-0.2l0.1-0.3l0.1-0.4l0.1-0.3v-0.5L62.2,34L62,34h-0.2l-0.2,0.2l-0.1,0.2
				L61.4,35l-0.1,0.2h0l-0.1-0.1v-0.5L61,34.7L60.7,35l-0.2,0.3l-0.1,0.3V36L60.6,36.2C60.5,36.2,60.6,36.2,60.6,36.2z M71.9,36.1
				L72,36l0.1,0l0.2-0.2l0.2-0.3l0.1-0.3l0.1-0.2v-0.2l0.1-0.2l0.1-0.2l-0.1-0.4l-0.2-0.2l-0.2-0.1l-0.2-0.1l-0.2-0.1v0v-0.1h0.3
				l0.1,0l0.1,0l0.1-0.2V33v-0.4l-0.2-0.8l-0.1-0.3l-0.1-0.2L72.2,31L72,30.9l-0.3-0.1h-0.1l-0.1-0.1l0.1-0.1l0.1,0l0.1,0l0.1-0.1
				v-0.5l-0.1-0.4l-0.1-0.1l-0.1-0.1l0-0.2l-0.3-0.3L71,28.7l-0.1-0.1l-0.1-0.1l0.1-0.1l0.1-0.1l0-0.2V28l-0.1-0.3l-0.2-0.2
				l-0.2-0.2l-0.2-0.1l-0.2-0.3l-0.3-0.2l-0.6-0.3l-0.5-0.2l-0.5-0.1L68,26h-0.2l-0.2,0l-0.2-0.1L67.3,26L67,26h-0.2l-0.1,0l-0.1,0
				l-0.1,0.1v0l0.1,0.2l0.1,0.1l0.1,0l0.5,0.2l0.1,0l0.1,0h0.2l0.1,0l0.2,0.1h0.3h0.2l0.1,0l0.1,0L68.6,27v0l-0.1,0l-0.1,0.1v0
				l0.1,0.1l0.2,0.1l0.2,0H69l0.2,0h0.1h0.1l0.2-0.2h0.1l0.2,0.2v0.1l-0.4,0.2V28v0l0.1,0.2l0.5,0.5L70.1,29l0.1,0.1l0.8,0.4
				l0.1,0.1v0.1l-0.1,0.1l-0.1,0l-0.3,0.1L70.5,30v0.2l0.1,0.1l0.1,0.1l0.2,0.1l0.1,0.1L70.7,31l0.1,0.2l0.1,0.2l0.3,0.2l0.3,0.2
				l0.1,0.2l0.1,0.2v0.1l-0.1,0.1l-0.2,0l-0.3-0.1l-0.2,0.1L71,32.4v0.1v0.2l0.1,0.1l0.1,0.1l0.1,0.1l0.1,0.1l-0.1,0.2l-0.1,0.2v0.2
				v0.2l0.2,0.2l0.2,0.2l0.1,0.2l0.2,0.1l0.1,0.2L71.7,35l-0.1,0l-0.4-0.3L71,35.1l-0.1,0.2l-0.1,0.2l0.1,0l0.1,0.1L71.9,36.1z
				 M51.9,35.8l1.4-0.1l0-0.1l0-0.1v0l0-0.2l-0.2-0.2h-0.2h-0.2l-0.4,0h-0.2H52l-0.2,0l-0.2-0.2l-0.2-0.3l-0.1-0.3l-0.2-0.6v-0.6
				l0.1-0.6l0.2-0.4l0.3-0.3l0.2-0.3l0.3-0.3l0.1-0.2l0-0.2l0-0.1l0.1-0.2v-0.1l0-0.1l0,0l-0.1-0.1l-0.3,0.2l-0.3,0.2l-0.2,0.3
				l-0.3,0.3l-0.3,0.3l-0.2,0.4l-0.2,0.4v0.2v0.2l0.1,0.6l0,0.3l0,0.3l0.1,0.2l0.1,0.3l0,0.3l0.1,0.2l0.1,0.3l0.1,0.2l0.2,0.2
				l0.2,0.2l0.2,0.1L51.9,35.8z M68.7,35.8l0.2-0.1l0.3-0.3l0-0.2l0.2-0.2l0.1-0.2l0.1-0.2l0.1-0.4l0.1-0.2l-0.1-0.2l-0.3-0.2
				l-0.3-0.1l-0.3-0.1l-0.3-0.1l-0.2,0l-0.1,0.1l-0.1,0.1v0.1l0.1,0.1l0.2,0.2h0.1l0.2,0.1l0.1,0.1v0.1v0.2l-0.1,0.1l-0.1,0l-0.1,0
				l-0.1-0.1v-0.2l-0.2-0.1l-0.1,0.1l-0.1,0.2l0.1,0.3l0.1,0.1l0.1,0.1v0.3v0.3v0.1L68.7,35.8L68.7,35.8L68.7,35.8z M54.6,35.7h0.2
				l0.1,0l0.1-0.1l0.2-1l0.2-0.2l0.3-0.2l0.3-0.1l0.3-0.1l0.3,0l0.3-0.1v-0.1l-0.4-0.3l-0.2,0.1l-0.2,0.1l-0.3,0.2L55.7,34l-0.2,0
				l-0.2,0l-0.2,0.1l-0.3-0.1l-0.2,0.1l-0.2,0.2l-0.2,0.2l-0.1,0.2l0.1,0.5l0.1,0.2L54.6,35.7z M73.5,35.5l0.5-0.2v-0.1l-0.6-0.5
				h-0.2l-0.1,0L73,34.9V35l0.1,0.3l0.1,0.1L73.5,35.5C73.5,35.5,73.5,35.5,73.5,35.5z M64.8,35.5l0.2,0l0.2-0.1l0.2,0l0.2-0.1
				L66,35l0.2-0.2l0.1-0.2V34l-0.1-0.6l-0.3-0.6l-0.2-0.6l-0.2-0.6l-0.3-0.5l-0.1,0l-0.1,0v0.1v0.1l0.1,0.2l0.1,0.2V32l0.3,0.8
				l0.2,0.8v0.3l-0.1,0.3l-0.1,0.2l-0.2,0.2h-0.1l-0.1-0.1L65,34.2l-0.2-0.5v-0.2l-0.1-0.2l0-0.2v-0.2l-0.1-0.2v-0.1v-0.2v-0.2
				l-0.1-0.1l-0.1,0l-0.1,0l0,0.1l-0.1,0.2l0.1,0.1l0.1,0.5v0.3l0,0.2l0.1,0.4l0.1,0.3v0.3v0.3l0.1,0.2l0,0.2v0.1L64.8,35.5z
				 M63.3,34.8L63.3,34.8l0.2-0.4l0-0.4v-0.4l0-0.4h-0.1l-0.1,0l-0.1,0.2v0.1v0.3l0.1,0.4v0.2l-0.1,0.2L63.3,34.8z M66.9,34.6
				l0.3-0.3l0.3-0.2l0.3-0.3l0.1-0.2l0.1-0.2L68,33.1l-0.2-0.2l-0.2-0.2l-0.4-0.6L67,31.9l-0.2-0.3l-0.5-0.8l-0.3-0.3l-0.4-0.3
				l-0.1,0l0,0.1v0.1l0,0.3L65.4,31l0.6,1.4l0.4,0.9l0.1,0.1l0.1,0l0.2,0l-0.1-0.8v-0.1h0.1l0.1,0.1l0.1,0.2l0.1,0.4l0.1,0.2
				L67,33.5l-0.2,0.3L66.7,34l-0.1,0.2l0.1,0.2L66.9,34.6L66.9,34.6L66.9,34.6L66.9,34.6z M75,34.6l0.3,0l0.2,0l0.2-0.3l0.1-0.3
				l0.1-0.3l0.1-0.3v-0.2L75.9,33l-0.1-0.1v-0.2l-0.2-0.3l-0.3-0.2L75,32.1l-0.3-0.3l-0.2,0l-0.1-0.1l-0.3-0.2l-0.3-0.2l-0.3-0.2
				L73.4,31l-0.6-0.3l-0.1,0.1l0.1,0.6l0.1,0.1h0.1l0.1-0.1l0.2,0.2l0.2,0.1l0.4,0.2l1,0.8l0.2,0l0.1,0.1l0.1,0.1l0.1,0.2l0.1,0.3
				v0.1l-0.1,0.1l-0.2,0.2l-0.1-0.1h-0.1l-0.2,0h-0.1l-0.7-0.4l-0.8-0.3L73,32.9V33l0.1,0.3l0.2,0.1l0.1,0.2l0.1,0l0.1,0.1L75,34.6z
				 M61,34.4l0.1,0l0.1-0.1l0.1,0l0.1-0.1l0.1-0.2l0.1-0.2l0.1-0.2l0.1,0v0h0.1l0.1,0.1l0.1,0.1l0,0h0.2l0.3-0.2l0.2-0.3l0-0.1
				l0-0.2l0.1-0.2L63,32.7l-0.1-0.3v0l0.1,0l0.2,0.2l0.2,0l0.2,0h0.2l0.2-0.2l0.2-0.3l0-0.3v-0.3l-0.8-0.8l-0.1,0l-0.1,0L63,30.5
				v-0.1l0.1,0l1,0.4l0.1,0.1l0.4,0.3l0.2-0.1l0.3-0.4l0.2-0.4v-0.3l-0.1-0.2h-0.6l-0.3-0.1l-0.3-0.1l-0.4-0.1l-0.3-0.1L62.8,29
				l-0.4-0.1l-0.2,0l-0.1,0l0,0v0.1l0.2,0.2l0.2,0.2l0.5,0.2l0.5,0.2l0.2,0.1l0.2,0.2l0,0.1l-0.1,0h-0.2l-0.2-0.1L63.2,30L63,29.9
				l-0.2-0.1l-0.4-0.1l-0.3-0.1H62l-0.1,0l-0.1,0.1l-0.2-0.2l-0.1-0.2l0-0.2l0.1-0.1v-0.3l-0.1-0.3L61.5,28l-0.1-0.3l-0.1-0.1
				l-0.2,0l0-0.1L61,27.6l-0.1,0.1l-0.2,0.2v0.2l-0.3,0.5l-0.1,0.3v0.2l0,0.2l0.1,0l0.1,0l0.1-0.1l0.1-0.2l0.2-0.1l0.2-0.1l0.1,0
				v0.1v0.2L61,29.3l-0.1,0.2l0.1,0.2l0.3,0.2l0,0h0.1l0.1,0.2l-0.1,0.2l0.9,0.4l0.3,0.2l0.1,0l0.2,0.1l0.2,0.2l0.2,0.2l0.1,0.3l0,0
				l-0.1,0h-0.1l-0.4-0.6l-1.4-0.6L61,31l0,0.3l0.2,0.1l0.2,0.7l0.2,0.1l0.2,0.2l0.2,0.2l0.2,0.3l-0.1,0l-0.1,0.1l-0.5-0.5l-0.1,0.1
				l-0.1,0.3v0.2l0,0l0,0l-0.1,0l-0.2,0l-0.1,0.1l-0.2,0l-0.2,0.1l0,0l-0.1,0.1l0.3,0.9l0.2,0.1l0,0L61,34.4
				C61,34.4,61,34.4,61,34.4z M52.8,34.4H53l0.2,0l0.2-0.1h0.2l0.1-0.2l0.1-0.1v-0.1l-0.1,0l-0.2-0.1l-0.1,0.1l-0.1,0H53l-0.2,0
				l-0.3-0.1l-0.3-0.1h-0.1l-0.1,0v0.1l0.1,0.1l0.1,0.2L52.8,34.4z M65.4,34.1L65.4,34.1l0.1-0.2l0.1-0.2l-0.1-0.3l-0.2-0.5L65,32.3
				l-0.2-0.6l-0.1,0l-0.1,0.1v0.3l0.1,0.1l0.1,0l0.1,0.2v0.1l0,0.2v0.2l0.1,0.2l0.1,0.2l0.1,0.2l0.1,0.2l0,0.2V34L65.4,34.1
				L65.4,34.1L65.4,34.1z M52,33.3l0.2,0.1l0.2-0.1l0.3,0l0.3-0.1l0.2,0h0.2l0.3-0.2l0.3-0.2l0.2-0.2l0.2-0.2v-0.1h-0.2H54l-0.1,0.1
				h-0.1l-0.4,0.1l-0.3,0.2h-0.3l-0.1-0.1l0-0.2l0.2-0.4l0.2-0.4l0.2-0.4l0.1-0.3v-0.3l0.4-0.5l0-0.5l-0.1-0.1h-0.1l-0.3,0.1
				L53,29.6l-0.1,0.1l-0.1,0.1V30l0,0.2l0,0.2v0.2l-0.2,0.6l-0.3,0.5L52,32l-0.1,0.4l0,0.4v0.4l0,0v0L52,33.3L52,33.3z M74.9,33.3
				L74.9,33.3l-0.4-0.5l-0.5-0.4L73,31.7L72.9,32v0.2l0.1,0.2l0.1,0.2l0.1,0l0.6,0.3l0.3,0.2l0.2,0.2l0.4,0.2l0.2,0L74.9,33.3
				L74.9,33.3z M69.1,33.1l0.2-0.1l0.1-0.2v-0.2v-0.5l-0.2-0.4l-0.1-0.4l-0.1-0.1l-0.2-0.1L68.8,31l-0.1-0.2l0.2-0.6l-0.5-1L68.1,29
				l-0.3-0.1h-0.3l-0.3,0l-0.1,0.2l0.1,0.2l0.3,0.1l0.1,0l0.1,0.2v0.2l0.1,0.1l0.1,0.1h0.1l0.1-0.1l0.1-0.1l0.1,0l0,0.1l0,0.2
				L68,30.1l-0.1,0v0.1v0.2v0l0.1,0.2l0.1,0.1l-0.1,0.3v0.1l0.1,0.2l0.1,0.1l0.1,0h0.1l0.2,0l0.1,0.1l0.1,0l0.1,0.1l0.1,0.4v0.2
				h-0.1h-0.1v-0.1l-0.1,0v-0.2l-0.1-0.1l-0.1,0l-0.3-0.1l-0.1,0.1v0.1v0.2l0.1,0.2l-0.1,0.2v0.1l0.1,0.2L69.1,33.1z M59.9,33.1
				l0.3,0l0.3-0.1l0.2-0.2l0.3-0.2l0.1-0.2l0-0.2v-0.2v-0.2l0-0.1L61,31.7l-0.8-0.2v-0.1l0.2-0.3l0.2-0.3l0.2-0.3l0.1-0.4l0,0
				l-0.1-0.1l-0.2-0.1L60,30.1l-0.5,0.4L59,30.9l-0.6,0.3l-0.1,0.3v0.3v0.3v0.3l-0.1,0.1l-0.1,0.1L58,32.6l-0.1,0.1v0.1l0.1,0.1l0,0
				l0.2,0l1.9-0.7l0,0l0,0.1l-0.1,0.1l-0.1,0.1v0.1v0.1V33L59.9,33.1L59.9,33.1z M57.2,32.8l0.3-0.1l0.1-0.1l0.1-0.2l0.1-0.3v-0.3
				l-0.1-0.3l-0.1-0.2l-0.1-0.1l-0.2-0.1l0-0.1l0.2-0.3l0.2-0.4l0-0.2v-0.2v-0.2l0-0.2l-0.1-0.2v0l0-0.1h-0.1l-0.1,0l-0.1,0.2v0.2
				l-0.2,0.2l0,0.2v0.2l-0.1,0.2l-0.2,0.2l-0.4,0.4l-0.4,0.4l-0.4,0.4l-0.1,0.1l0,0.2v0.1v0.2l0,0.2l0.1,0.1l0.2,0.2h0.2l0.2,0.1
				h0.2h0.1l0-0.1l0.1-0.2l0.1-0.2l0.1-0.2l0.1-0.2l0.1-0.4l0.1-0.2l0.2-0.2l0,0.2v0.2L57.3,32l-0.1,0.3l-0.1,0.4v0.1L57.2,32.8
				L57.2,32.8L57.2,32.8z M67.6,32.3L67.6,32.3l0.1,0l0.1-0.3v-0.3L67.7,31l-0.2-0.7l-0.1-0.3l-0.2-0.3l-0.1-0.2L67,29.4l-0.3-0.3
				L66,28.6l-0.3,0l-0.3-0.1l-0.3-0.1l-0.3,0l-0.1-0.1l-0.2-0.1l-0.3-0.1L64,27.8l-0.2-0.2l-0.2-0.3l0.2-0.9l0.8-0.4l0,0l0.1-0.2
				l0-0.1l-0.3,0h-0.3l-0.3,0l-0.2,0.1l-0.1,0.1L63.4,26l-0.1,0.2l-0.1,0.4L63.1,27L63,27.3l0.1,0.8l0.2,0.2l0.2,0.1l0.4,0.1
				l0.5,0.2l0.2,0l0.2,0.1l0.2,0l0.2,0.1l0.2,0.1h0.2l0.1,0.1l0.1,0.1l0.3,0.2l0.3,0.2l0.1,0l0.1,0.2l0.1,0.2l0.1,0.2l0.1,0.4
				l0.2,0.6l0.2,0.4l0.2,0.4L67.6,32.3L67.6,32.3z M75.8,32.2L76,32l0.1-0.2l0.1-0.2l0.1-0.2l0.1-0.2l-0.2-0.5l-0.2-0.5l-0.4-0.2
				l-0.4-0.2l-0.5-0.3l-0.4-0.3l-0.3-0.1L73.6,29l-0.3-0.1l-0.3-0.1l-0.3-0.2l-0.4-0.1l-0.2-0.1v0l-0.1,0.1l0.1,0.2l0.2,0.2l0.1,0.1
				l0.3,0.2l0.3,0.2l0.3,0.2l0.2,0l0.2,0.1l0.2,0.1l0.2,0l0.7,0.4l0.3,0.2l0.3,0.3v0h-0.1h-0.2l-0.2-0.1l-0.4-0.2l-0.4-0.3l-0.4-0.2
				L73.1,30l-0.2-0.1l-0.2-0.1l-0.2-0.2l-0.1,0.1v0.2V30l0.2,0.2l0.2,0.2l0.2,0.2l0.2,0.2l0.2,0.1l0.2,0l0.2,0l0.1,0.1l0.8,0.5
				l0.8,0.5l0.1,0.1h0.1L75.8,32.2L75.8,32.2L75.8,32.2z M53.6,31.8L53.6,31.8l0.2-0.2l0.1-0.2l0-0.2l0.1-0.2l-0.2-0.5l-0.1-0.1
				h-0.1l-0.1,0.1v0.1v1.1L53.6,31.8z M59.2,31.4l0.2-0.1l0.2-0.1l0.2-0.1l0-0.1v-0.2L59.2,31.4C59.1,31.4,59.2,31.4,59.2,31.4z
				 M58.1,31.1l0.3-0.2l0.8-0.5l0.4-0.3l0.1-0.2l0.1-0.2l0.1-0.3l0-0.3v-0.3v-0.2l0-0.2L59.8,28l0-0.3l-0.1,0l0,0.1l-0.1,0v0
				l0.1,0.2l-0.3,1.4L58,30.6v0.1v0l0,0.2l0,0.1L58.1,31.1C58.1,31.1,58.1,31.1,58.1,31.1z M58.2,30l0.5-0.6h0.1l0,0l0-0.1v-0.2
				l-0.2-0.6l-0.3-0.1l-0.1,0.1l-0.1,0.1L58.2,30z M74.7,29.2l0.2-0.1l0.1-0.2v-0.3l-0.1-0.3l-0.3-0.5l-0.5,0.4L74,28l-0.2-0.2
				l-0.2-0.3l-0.3-0.2l-0.1,0.1l0,0.1l0,0.3v0.3v0.1l0,0.1l0.2,0.4L74.7,29.2z M66.7,28.8l0.3,0.1l0.1-0.1l0.1-0.2l-0.1-0.1L67,28.5
				l-0.1,0l-0.1-0.1l-0.4-0.2L66.3,28l-0.2-0.2h-0.2l-0.2,0l-0.3-0.1l-0.3,0H65l-0.2,0.1l-0.1,0v0.1l0.1,0l0.3,0.1l0.2,0.1l0.2,0.1
				l0.2,0.1l0.2,0l0.2,0.1l0.1,0.2l0.1,0L66.7,28.8L66.7,28.8L66.7,28.8z M72.9,28.3l0.1-0.2l0.1-0.1V28l-0.1-0.3l-0.2-0.3l-0.2-0.3
				L72.2,27l-0.1,0l-0.1,0.1L72,27.3l-0.1,0.1h-0.1h-0.2l-0.1-0.1l-0.1,0l-0.2-0.3L71,26.7l-0.3-0.2l-0.3-0.1l-0.1,0l-0.1,0v0.1
				l0.1,0.2l0.2,0.3l0.2,0.2l0.2,0.2l0.3,0.2l0.3,0.3l0.4,0.2l0.4,0.2L72.9,28.3L72.9,28.3z M64,27.5h0.2h0.2l0.2-0.1l0.2-0.1l0-0.1
				v-0.3l0-0.1l-0.1-0.1l-0.3-0.1l-0.2,0l-0.2,0l-0.2,0.8v0.1L64,27.5z M38.3,44.5L38.3,44.5l0-0.3l0-0.2l0.2-0.2l0.2-0.1l0.2-0.1
				l0.3-0.1l0.2,0l0.1-0.1l-0.1,0v0l-0.2-0.1L38.3,43h-0.2l0,0.2L38,44.3l-0.2,1.2v0.2v0l0,0.1H38v-0.1l0.1-0.1l0.1-0.2h0.1h0.2
				l3.1,0.4l0.2,0l0.1,0.1l0,0.1v0.1l0,0.2l0.1,0l0.1,0l0.1-0.1l0.1-1.4l0.2-1.3v-0.2l-0.1-0.1l-0.2,0l-0.3,0l-0.7-0.1H41v0.1v0.2
				l0.1,0.1l0.4,0.2l0.2,0.1l0.2,0.2l0,0.2v0.3v0.2l0,0.1h-0.1h-0.1l-1.5-0.2l-0.1,0v-0.2l0.1-0.2l0.1-0.1l0.1,0l0.1-0.1l0.3,0
				l0.1,0l0-0.1v-0.1l-0.1-0.1l-0.7,0l-0.6-0.1h-0.1l0,0.1v0l0.1,0.1l0.2,0.1l0.1,0.1l0.1,0.1v0.1v0.2l-0.1,0.2l0,0L38.3,44.5z
				 M38.5,40.9v0.3v0.3l0.1,0.2l0.1,0.2l0.2,0.2l0.2,0.2l0.3,0l0.2,0.1h0.2l0.3-0.2l0.4-0.2l0.3-0.3l0.3-0.3l0.3-0.2l0.3-0.1l0.2,0
				l0.2,0l0.2,0.1l0.2,0.2l0,0.2v0.3l0,0.1l-0.1,0.1l-0.2,0.2l-0.3,0.1l-0.2,0h-0.5l-0.2,0l-0.1,0.1v0.1l0.1,0.1l0.4,0.1l0.7,0.2
				l0.1-0.1l0.1-0.1l0.2-0.3l0.2-0.4l0-0.2l0.1-0.3v-0.3l-0.1-0.3l-0.1-0.3l-0.2-0.2l-0.2-0.2l-0.3-0.1l-0.3-0.1l-0.2,0h-0.2l-0.2,0
				l-0.2,0l-0.3,0.2l-0.3,0.3L40,41l-0.3,0.2l-0.3,0.2h-0.2h-0.2l-0.2-0.1l-0.1-0.1l0-0.2v-0.2l0-0.2l0.2-0.2l0.2-0.1l0.2,0l0.4-0.1
				l0.2,0l0.1,0V40v0l-0.2-0.1l-0.7-0.2h0H39l-0.1,0.1l-0.2,0.4l-0.2,0.4V40.9z M39.3,38.4l-0.1,0.2l-0.1,0l-0.1,0l0,0.1v0.1
				l0.1,0.1l0.4,0.2l0.7,0.3h0l0.1,0l-0.1-0.1l0-0.1l-0.3-0.2l-0.2-0.2l-0.1-0.2v-0.2v-0.2l0-0.1h0.1l3.1,1l0.2,0l0.1,0.1l0,0.1v0.1
				l0,0.2l0,0h0.1h0h0l0.1-0.2l0.2-0.8l0.3-0.7V38v0h-0.1l0,0l0,0l-0.1,0.2l0,0l-0.1,0.1h-0.2l-0.2-0.1l-3.1-1l-0.1,0v-0.2l0.1-0.2
				l0.2-0.1l0.2-0.1h0.2h0.3l0.1,0l0,0v-0.1l0,0L40.5,36l-0.6-0.2h-0.1l-0.1,0V36l0.1,0.1l0,0.2l0,0.2L39.3,38.4z M42.5,34.3
				l2.3,0.2H45h0l0.1-0.1l0-0.1h0.1l0,0v0.1L45,35.3l-0.2,0.5l0,0.1l-0.1-0.1h0v-0.1l0-0.2l0-0.1l-0.1-0.1l-0.9-0.1h-0.1l-0.1,0.2
				l-0.3,0.7v0.1l0,0.1l0.3,0.3l0.3,0.2l0.1,0H44l0.1,0l0.1-0.1l0.1-0.2h0h0.1l0,0.1v0.1l-0.2,0.4L44,37.6l0,0l0,0l-0.1,0v-0.1
				l0-0.2l-0.2-0.2l-1.2-1v-0.3l0.2,0.2l0.1,0h0l0,0l0.2-0.3l0.1-0.3v0h-0.1l-0.5,0V34.3z M42.5,35.8v0.3l-1.7-1.4l-0.1-0.1v-0.1
				l0.1-0.3l0-0.1h0.1h0.2l1.4,0.2v1l-0.6-0.1h0l0,0.1L42.5,35.8z M44.4,29.8h0.1l0.4,0.2l0.5,0.2l0.4,0.3l0.3,0.3l0.3,0.3l0.1,0.4
				l0.1,0.4v0.4l-0.1,0.3l-0.2,0.4l-0.6,0.9l-0.3,0.6l0,0.1h-0.1l0-0.1v0l0-0.2v-0.2l0,0l-0.1-0.1l-0.7-0.4v-1.2l1.2,0.7l0.1,0.1
				l0.2-0.1l0.1,0l0.1,0l0-0.2l0.1-0.2l-0.1-0.2L46,32.1l-0.2-0.2l-0.3-0.2l-0.3-0.3l-0.5-0.3l-0.4-0.2l0,0V29.8z M44.4,32.3v1.2
				l-2.1-1.2l-0.1-0.1l-0.1,0.1L42,32.4l0,0.1l-0.1,0h-0.1l0,0v-0.1v-0.3l0.2-0.5l0.3-0.6l0.3-0.4l0.3-0.3l0.4-0.3l0.4-0.1l0.4,0
				h0.3v1.1L44,30.7l-0.3-0.1l-0.3-0.1h-0.3l-0.2,0.1l-0.2,0.1l-0.1,0.2l0,0.1v0.1l0,0.1l0.1,0.1L44.4,32.3z M47,27.4L47,27.4l0-1.2
				l0.2,0l0.4,0.2l0.4,0.2l0.3,0.2l0.3,0.3l0.3,0.3l0.2,0.3l0.1,0.4l0,0.4l0,0.4l-0.2,0.4l-0.2,0.3L48.3,30L48,30.2l-0.4,0.1l-0.4,0
				l-0.3-0.1v-1.1l0.3,0.2l0.4,0.2l0.3,0.1l0.3,0l0.2,0l0.2-0.1l0-0.1v-0.2V29l-0.1-0.2l-0.3-0.4l-0.5-0.5L47,27.4z M46.9,30.3
				l-0.2,0l-0.4-0.1L46,30l-0.3-0.2l-0.3-0.3l-0.3-0.3L45,28.7l-0.2-0.4V28v-0.4l0.2-0.4l0.3-0.4l0.3-0.3l0.4-0.2l0.4-0.1l0.4,0
				l0.2,0v1.1l-0.3-0.2L46.3,27L46,26.9l-0.3,0l-0.2,0L45.3,27l-0.1,0.2v0.2l0,0.2l0.1,0.2l0.3,0.4l0.4,0.4l0.8,0.5l0.1,0L46.9,30.3
				L46.9,30.3z M48,24l-0.1,0.2l-0.2,0.2l0,0.3l0,0.2l0,0.3l0.1,0.3l0.1,0.2l0.2,0.2l0.2,0.1l0.4,0.1H49h0.4h0.4h0.4l0.3,0.1
				l0.2,0.1l0.1,0.1l0.2,0.2l0.1,0.3l-0.1,0.2l-0.2,0.2l-0.1,0.1h-0.1h-0.2l-0.2-0.1l-0.2-0.2l-0.4-0.3l-0.2,0l-0.1,0l0,0.1v0.1
				l0.2,0.3l0.4,0.5l0.1,0H50l0.3-0.1l0.3-0.2l0.2-0.2l0.2-0.2l0.2-0.3l0.2-0.3l0-0.3v-0.3l0-0.3l-0.1-0.3l-0.2-0.3l-0.2-0.2
				l-0.2-0.1L50.6,25l-0.2-0.1H50h-0.5L49.2,25h-0.4l-0.3-0.1l-0.1,0l-0.1-0.1l-0.1-0.2l0-0.2l0-0.2l0.1-0.2l0.2-0.1h0.2l0.2,0
				l0.2,0.1l0.4,0.2h0.1h0.1l0-0.1v0L49.6,24l-0.4-0.5l0-0.1h0l-0.2,0.1l-0.4,0.2l-0.3,0.3L48,24z M52.7,21.3v-0.1v0l0.1-0.1l0.1,0
				l0-0.1v0l0,0h-0.1h-0.1l-0.7,0.4l-0.7,0.3l0,0v0.1l0,0h0l0.2,0h0l0,0l0.1,0.1l1.2,2.4l0.2,0.3l0.2,0.2l0.2,0.1l0.2,0.1h0.3h0.3
				l0.3-0.1l0.3-0.1l0.3-0.2l0.2-0.2l0.2-0.2l0.1-0.2l0-0.3l0.1-0.2l-0.1-0.2L55.6,23l-1.2-2.5l-0.1-0.1v-0.1l0.1-0.1l0.1-0.1v-0.1
				v0L54.5,20L54.4,20L54,20.3l-0.3,0.1l0,0v0.1l0,0h0l0.2,0l0.2,0l0.1,0.2l1.3,2.4l0.1,0.2l0,0.2v0.2l0,0.2L55.4,24l0,0.1l-0.3,0.2
				l-0.3,0.1h-0.3l-0.2-0.2L54.1,24L52.7,21.3z M58.7,21.3l-2.2-1.9l-0.2-0.1h-0.2l-0.4,0.2l-0.5,0.1l-0.1,0.1v0.1l0,0l0.2,0h0.1
				l0,0l0,0l0.1,0.1l1,3.2l0,0.1l0,0.1l-0.1,0.1l-0.1,0l0,0.1v0.1l0,0.1l0.1,0l0.4-0.2l0.5-0.1l0,0l0.1,0l-0.1-0.1l0,0l-0.2,0h-0.1
				l-0.1,0l-0.1-0.1l0-0.3L56,20.4l3.1,2.6l0.1,0h0.1l0.2,0v-0.1l-1.1-3.5l-0.1-0.2l0.1-0.1V19l0.1,0l0.1-0.1l0,0v-0.1l0-0.1h-0.1
				l-0.4,0.2l-0.5,0.1l-0.1,0v0.1h0.1l0,0h0.2H58l0.1,0.1l0,0.1l0,0.2L58.7,21.3z M60.7,18.9v-0.2l0.1-0.1l0-0.1l0.2-0.1l0-0.1
				l0.1,0l-0.1-0.1h-0.2l-0.8,0.2l-0.7,0.1l-0.2,0.1v0.1l0,0h0l0,0.1h0.2l0,0.1l0,0l0.1,0.2l0.5,3l0.1,0.3l-0.1,0.1l-0.1,0L60,22.6
				l-0.1,0v0l0.1,0.1l0.2,0l0.8-0.2l0.8-0.1h0.2v-0.1v0l0,0h-0.1l-0.2-0.1l-0.1,0l0-0.1L60.7,18.9z M63.9,17.9l0.3,0.1l0.4,0.2
				l0.3,0.2l0.3,0.3l0.2,0.4l0.2,0.5l0.1,0.5v0.5l-0.1,0.4l-0.1,0.4l-0.2,0.3L65,21.9l-0.3,0.2l-0.4,0.1l-0.4,0.1h0V22l0,0l0.2-0.1
				l0.2-0.2l0.1-0.2l0.1-0.3l0.1-0.4v-0.4V20l-0.1-0.5l-0.1-0.4l-0.1-0.3l-0.1-0.3l-0.2-0.2l-0.2-0.2L63.9,17.9L63.9,17.9z
				 M63.4,21.7l0,0.2l0.1,0.1l0.1,0.1l0.1,0l0.1,0v0.3l-1,0l-0.7,0H62v0v-0.1h0l0.1,0l0.2-0.1l0,0v-0.1l-0.2-3.2l0-0.1l-0.1-0.1
				l-0.2,0h-0.2h0v-0.1v0l0-0.1l0.3-0.1l0.5-0.2l0.8-0.1h0.5l0.1,0v0.3l0,0l-0.2,0l-0.2-0.1l-0.2,0.1l-0.1,0l0,0.1v0.1L63.4,21.7z
				 M68.8,19.6l-0.1-0.4l-0.1-0.4l-0.1-0.3l-0.2-0.2l-0.1-0.2l-0.2-0.1l0,0v-0.2h0.1l0.4,0.1l0.3,0.2l0.3,0.3l0.3,0.3l0.2,0.3
				l0.2,0.4l0.1,0.4v0.4l-0.1,0.5l-0.1,0.4l-0.2,0.4l-0.3,0.3l-0.3,0.3l-0.3,0.2l-0.4,0.1l-0.3,0v-0.2h0.1l0.1-0.1l0.1-0.1l0.1-0.2
				l0.2-0.5l0.1-0.6V19.6z M68.1,22.4l-0.1,0l-0.4-0.1l-0.4-0.2l-0.3-0.3l-0.2-0.3l-0.2-0.4l-0.1-0.4l-0.1-0.4V20l0-0.4l0.2-0.4
				l0.2-0.4l0.2-0.3l0.3-0.2l0.4-0.2l0.4-0.1h0.3v0.2l-0.1,0l-0.1,0.1l-0.2,0.2l-0.1,0.2L67.4,19l-0.1,0.6v1l0.1,0.4l0.1,0.3
				l0.1,0.3l0.1,0.3l0.2,0.2l0.2,0h0L68.1,22.4L68.1,22.4z M72,18.3h-0.2l-0.3,0l-0.3,0.1L71,18.7l-0.2,0.2L70.7,19l-0.1,0.3v0.2
				v0.2l0.2,0.3l0.2,0.3l0.3,0.3l0.3,0.3l0.2,0.3l0.2,0.3v0.2V22l-0.1,0.2l-0.2,0.2l-0.2,0.1h-0.3l-0.1,0l-0.1,0l-0.2-0.2L70.7,22
				l-0.1-0.2l-0.1-0.5l-0.1-0.2L70.5,21h-0.1l-0.1,0.1l-0.1,0.3L70,22.1l0.1,0.1l0.1,0.1l0.3,0.2l0.4,0.1l0.2,0.1h0.3h0.3l0.3-0.1
				l0.3-0.1l0.2-0.2l0.2-0.2l0.2-0.3l0.1-0.3v-0.2v-0.2L72.9,21l-0.1-0.2l-0.2-0.3l-0.3-0.3L72,19.9l-0.2-0.3l-0.2-0.3l-0.1-0.2V19
				l0.1-0.2l0.1-0.1l0.2-0.1h0.2l0.2,0.1l0.2,0.2l0.1,0.2l0.1,0.2l0.1,0.4l0.1,0.1l0.1,0H73l0.1,0l0.1-0.2l0.1-0.7v0v0l-0.1-0.1
				l-0.4-0.2l-0.4-0.1L72,18.3z M77.4,20.4V20v0l-0.1,0l-0.6-0.2l-0.6-0.3h-0.1L76,19.4v0l0.1,0.1l0.1,0.1v0v0.1l-0.8,1.7l-0.6,1.3
				l-0.2,0.3h-0.1h-0.1h-0.2h-0.1l-0.1,0v0.1l0.1,0l0.5,0.2l0.5,0.2l0.1,0.1l0.1-0.1v0l-0.1-0.1l-0.2-0.1l-0.1-0.1l-0.1-0.1
				l-0.1-0.1l0.1-0.2l0.6-1.3l0.4-0.8l0.1-0.2l0.1-0.1l0.1,0.1l-0.1,0.2L76,23.6v0.3l0.1,0l0.1,0h0.1h0.1l0.2-0.2l1.8-2.2l0.1-0.1
				l0.1,0v0l-0.1,0.1l-0.1,0.2l-0.8,2l-0.1,0.2l-0.1,0l-0.1,0.1h-0.1H77h-0.1l-0.1,0v0l0.1,0.1l0.8,0.3l0.7,0.3l0.2,0h0.1l0.1,0v0
				v-0.1l-0.2-0.2l-0.1,0l-0.1-0.1l0.1-0.3l1.2-2.9l0.1-0.2l0.1,0h0.2h0.1l0.1,0v-0.1l-0.1,0l-0.6-0.2l-0.6-0.3h0v0l-0.2,0.2
				l-1.5,1.8L77.4,20.4z M81.9,22.7L81.9,22.7l0.3,0.1l0.2,0.2l0.1,0.2v0.2l0.1,0.2l-0.1,0.4V24l0.1,0l0.1,0.1h0.1l0.2-0.1l0.4-0.7
				l0.1-0.1L83.2,23l-1-0.6l-1-0.7L81,21.5h-0.1h-0.1l-0.1,0.1v0l0.1,0.1L81,22v0l-0.1,0.2l-1.7,2.6l-0.1,0.1L79,25l-0.1,0l-0.1,0
				l-0.2-0.1L78.6,25v0l0.1,0.1l1.2,0.7l1.2,0.8l0.1,0h0.1l0.1-0.2l0.2-0.3l0.4-0.6v-0.1l-0.1,0h-0.1l-0.2,0l-0.3,0.2L81,26l-0.2,0
				h-0.3l-0.3-0.2l-0.2-0.1l-0.1,0v-0.1l0.1-0.1l0.9-1.3H81l0.2,0.1l0.1,0.2l0,0.1l0.1,0.1l-0.1,0.1l0,0.3v0.1l0,0l0.1,0l0.1-0.1
				l0.4-0.6l0.4-0.5V24l-0.1,0l-0.1-0.1L82,23.9l-0.2,0.2l-0.1,0h-0.1h-0.1L81.3,24l-0.2-0.1v-0.1L81.9,22.7z M83.5,26l-0.1,0.2
				l-0.2,0.1L82,26.7l-0.2,0h-0.2h-0.2l-0.1,0l-0.1,0l-0.1,0v0.1l0,0l0.3,0.3l0.4,0.4l0.1,0l0.1,0v-0.1v0l-0.1-0.1L82,27.3l0.1-0.1
				l0.1-0.1l0.2-0.1l1-0.4h0.1l-0.1,0.1l-0.3,1l-0.1,0.2l-0.1,0h-0.1l-0.1,0h-0.1h-0.1L82.5,28l0.1,0.1l0.8,0.7l0.3,0.3l0.1,0l0.1,0
				V29v0l-0.1-0.1v-0.1l0.1-0.3l0.6-2v0l0.1,0l1.2-0.4H86h0.2l0.2,0.1h0.1l0.1,0v-0.1l-0.1-0.1l-0.4-0.3l-0.3-0.3l-0.1-0.1h0
				l-0.1,0.1l0.1,0.1l0.1,0.2l-0.1,0.2l-0.2,0.1L84.7,26l-0.2,0l0.1,0l0.2-0.9l0.1-0.3l0.1-0.1l0.1,0.1l0.1,0h0.1v-0.1l-0.1-0.1
				l-0.6-0.5l-0.4-0.4L84,23.6l-0.1,0l0,0l0.1,0.1l0.1,0.1v0.2L83.5,26z M87.4,27.8l0.2-0.1h0.1l0.1,0.1l0.2,0l0.1,0l0.1,0l0.1,0
				L88,27.6L87.6,27l-0.5-0.5l-0.1-0.1h-0.1h-0.1v0v0.1l0.1,0.2v0l-0.1,0.1L86.8,27l-2.4,2l-0.3,0.2H84L84,29.2l-0.2-0.1h-0.1h-0.1
				l-0.1,0.1l0.1,0.1l0.5,0.6l0.5,0.6l0.1,0H85l0.1,0v-0.1l-0.1-0.2l-0.1-0.2l0.1,0l0.1-0.1L87.4,27.8z M90.1,30.7L90.1,30.7
				l0.1-0.2l-0.1-0.3L89.9,30l-0.2-0.2l-0.2-0.3l-0.3-0.2l-0.3-0.2L88.5,29h-0.4l-0.4,0.1l-0.4,0.2l-0.4,0.2l-0.3,0.3l-0.3,0.3
				l-0.2,0.3l-0.2,0.3l-0.1,0.4v0.4l0.1,0.4l0.2,0.4l0.2,0.2l0.3,0.3l0.3,0.2h0.1l0.2,0l0.7-0.4l0.2-0.2v0v-0.1l-0.1,0h-0.1L87,32.4
				l-0.2,0.1h-0.2l-0.2-0.1l-0.2-0.1l-0.1-0.2v-0.2l0.1-0.2l0.1-0.3l0.2-0.2l0.2-0.3l0.3-0.2l0.4-0.3l0.4-0.3l0.4-0.2l0.4-0.1l0.3,0
				l0.2,0l0.2,0l0.1,0l0.1,0.1l0.1,0.1l-0.1,0.2l-0.2,0.4L89.2,31l0,0.2v0.1l0.1,0.1h0.1l0.1-0.1L90.1,30.7z M89.4,33.1v-0.2
				l1.7-0.3h0.2l0.1,0.1l0.2,0.3v0v0l-0.2,0.2L89.4,35v-1.4l0.6-0.6l0.1,0h-0.1L89.4,33.1z M89.4,35l-0.7,0.7l-0.2,0.2V36v0.1v0.1
				v0.1h-0.1l-0.1-0.1l-0.4-0.8l-0.3-0.5v-0.1l0.1,0h0.1h0.1l0.1,0.1l0.1,0.1l0.2,0l0.7-0.6l0.1-0.1L88.7,34l-0.3-0.6l-0.1,0
				l-0.1-0.1l-0.4,0.1l-0.3,0.1l-0.1,0l-0.1,0.1l-0.1,0.1l0.1,0.1v0.2v0l-0.1,0.1h-0.1l-0.1-0.1L87,33.7l-0.3-0.5v-0.1l0.1,0h0.1
				l0.1,0l0.2,0.1h0.2l2-0.4v0.2l-0.5,0.1l-0.1,0v0.1l0.2,0.3l0.1,0.2h0.1l0.2-0.1l0.1-0.1L89.4,35L89.4,35z M91,38.3l1.8-2.3
				l0.1-0.2v-0.2l-0.2-0.4l-0.2-0.5l-0.1-0.1h-0.1l-0.1,0v0l0.1,0.1V35l-0.1,0l-0.1,0.1l-0.1,0l-3.1,1.1h-0.2h-0.1l-0.2-0.1
				l-0.1-0.2h-0.1h-0.1l-0.1,0l0.1,0.1l0.2,0.4l0.2,0.4l0.1,0.1h0.1l0.1-0.1l0.1,0l-0.1-0.2v-0.1v-0.1l0.2-0.1l0.2-0.1l2.5-0.9
				l-2.5,3.2l-0.1,0.1l0.1,0.1l0.1,0.2h0.1l3.5-1.3l0.1,0h0.1l0.1,0l0.1,0l0.1,0.2h0.1h0.1l0.1,0V38l-0.2-0.5l-0.1-0.4L93.2,37h-0.1
				v0L93,37.1l0.1,0.2L93,37.4L93,37.5l-0.2,0.1l-0.2,0L91,38.3z M92.1,39.1h0.4l0.4,0l0.4,0.1l0.3,0.2l0.3,0.3l0.3,0.3l0.1,0.4
				l0.1,0.5l-0.1,0.4l-0.2,0.4L93.9,42l-0.3,0.3l-0.3,0.3l-0.4,0.2l-0.4,0.1l-0.4,0.1h0v-1.2l0.6-0.2l0.4-0.2l0.3-0.2l0.3-0.2
				l0.2-0.2l0.1-0.2v-0.2L94,40.3l-0.2-0.1l-0.2-0.1l-0.2,0h-0.6l-0.5,0.1l-0.2,0.1L92.1,39.1L92.1,39.1z M92.1,41.7v1.2h-0.4
				l-0.4,0l-0.4-0.2l-0.3-0.2l-0.3-0.3L90.1,42l-0.2-0.4l-0.1-0.4l0.1-0.4l0.2-0.4l0.2-0.3l0.3-0.3l0.4-0.2l0.3-0.2l0.4-0.2l0.4,0h0
				v1.2l-0.6,0.2l-0.4,0.2l-0.3,0.2l-0.3,0.2l-0.2,0.2l-0.1,0.2v0.2l0.1,0.2l0.1,0l0.2,0.1l0.2,0h0.6l0.7-0.2L92.1,41.7z M95,44.2
				L94.9,44l-0.1-0.2l-0.2-0.2l-0.2-0.2l-0.2-0.1l-0.3-0.1h-0.3l-0.2,0l-0.2,0.1l-0.3,0.2l-0.2,0.3l-0.2,0.4l-0.2,0.3L92,44.9
				l-0.2,0.2l-0.2,0l-0.2,0h-0.3L91,45.1L90.8,45l-0.1-0.3v-0.2l0.1-0.1l0.1-0.2l0.2-0.2l0.2-0.1l0.4-0.2l0.2,0v-0.1v-0.1l-0.1-0.1
				h-0.4l-0.7,0.1l-0.1,0l-0.1,0.1L90.5,44l0.1,0.4v0.2l0.1,0.3l0.1,0.3l0.2,0.3l0.2,0.2l0.2,0.2l0.3,0.1l0.3,0.1h0.3l0.2-0.1
				l0.2-0.1l0.2-0.1l0.1-0.1l0.3-0.3l0.2-0.3l0.2-0.4l0.2-0.3l0.3-0.3l0.1,0l0.1-0.1h0.2l0.2,0l0.1,0.2l0.1,0.2l-0.1,0.2l-0.1,0.2
				l-0.2,0.1l-0.2,0.2l-0.4,0.2l-0.1,0v0.1v0.1l0.1,0.1h0.3l0.7-0.1h0.1l0.1,0l0.1-0.1l0.1-0.4v-0.4L95,44.2z"/>
		</g>
	</g>
</g>
</svg>
