<?xml version="1.0" encoding="utf-8"?>
<!-- Generator: Adobe Illustrator 24.0.3, SVG Export Plug-In . SVG Version: 6.00 Build 0)  -->
<svg version="1.1" id="Capa_1" xmlns="http://www.w3.org/2000/svg" xmlns:xlink="http://www.w3.org/1999/xlink" x="0px" y="0px"
	 viewBox="0 0 128 128" style="enable-background:new 0 0 128 128;" xml:space="preserve">
<style type="text/css">
	.st0{fill:#24135F;}
	.st1{fill:#44257D;}
	.st2{fill:#FFFFFF;}
	.st3{fill:none;}
	.st4{font-family:'LucidaBright-Demi';}
	.st5{font-size:7.9794px;}
</style>
<g id="Capa_1_2_">
	<g id="Capa_1_1_">
	</g>
</g>
<g id="_x3C_Capa_x3E_">
	<g>
		<circle class="st0" cx="63.83" cy="64.17" r="63.83"/>
		<path class="st1" d="M93.67,55.38c-0.36,0.31-0.79,0.56-1.3,0.74c-0.51,0.19-1.03,0.28-1.57,0.28c-1.11,0-2.04-0.39-2.79-1.18
			c-0.76-0.78-1.15-1.79-1.18-3h9.47c-0.01-1.44-0.4-2.63-1.17-3.6c-1.07-1.36-2.5-2.04-4.3-2.04c-1.75,0-3.13,0.67-4.17,1.99
			c-0.82,1.04-1.23,2.23-1.23,3.57c0,1.42,0.49,2.68,1.46,3.81s2.31,1.69,4.03,1.69c0.78,0,1.47-0.12,2.07-0.35
			c0.61-0.24,1.17-0.58,1.66-1.03s0.93-1.05,1.3-1.78l-1.14-0.6C94.41,54.57,94.03,55.06,93.67,55.38z M88.21,48.86
			c0.74-0.67,1.63-1,2.66-1c0.63,0,1.22,0.13,1.79,0.4c0.57,0.26,1.03,0.61,1.37,1.05c0.35,0.43,0.61,1.01,0.79,1.74h-7.84
			C87.25,50.08,87.66,49.35,88.21,48.86z"/>
		<path class="st1" d="M93.67,55.38c-0.36,0.31-0.79,0.56-1.3,0.74c-0.51,0.19-1.03,0.28-1.57,0.28c-1.11,0-2.04-0.39-2.79-1.18
			c-0.76-0.78-1.15-1.79-1.18-3h9.47c-0.01-1.44-0.4-2.63-1.17-3.6c-1.07-1.36-2.5-2.04-4.3-2.04c-1.75,0-3.13,0.67-4.17,1.99
			c-0.82,1.04-1.23,2.23-1.23,3.57c0,1.42,0.49,2.68,1.46,3.81s2.31,1.69,4.03,1.69c0.78,0,1.47-0.12,2.07-0.35
			c0.61-0.24,1.17-0.58,1.66-1.03s0.93-1.05,1.3-1.78l-1.14-0.6C94.41,54.57,94.03,55.06,93.67,55.38z M88.21,48.86
			c0.74-0.67,1.63-1,2.66-1c0.63,0,1.22,0.13,1.79,0.4c0.57,0.26,1.03,0.61,1.37,1.05c0.35,0.43,0.61,1.01,0.79,1.74h-7.84
			C87.25,50.08,87.66,49.35,88.21,48.86z"/>
		<g>
			<path class="st2" d="M15.4,42.32v1l0.21,0.01c0.73,0.06,1.17,0.18,1.3,0.37c0.14,0.19,0.21,0.76,0.21,1.72V56.8
				c0,1.34-0.12,2.25-0.37,2.75s-0.72,0.75-1.4,0.75c-0.74,0-1.12-0.44-1.16-1.32c-0.01-0.18-0.03-0.38-0.04-0.6l-0.01-0.21h-1.59
				v2.84c0.99,0.22,1.87,0.33,2.63,0.33c1.89,0,3.23-0.44,4.04-1.31c0.8-0.87,1.2-2.31,1.2-4.34V45.42c0-0.96,0.07-1.53,0.21-1.72
				c0.14-0.19,0.58-0.32,1.32-0.37l0.19-0.01v-1L15.4,42.32L15.4,42.32z"/>
		</g>
		<g>
			<path class="st2" d="M36.4,57.17c-0.72-0.05-1.15-0.18-1.3-0.37c-0.14-0.2-0.22-0.78-0.22-1.74v-8.66h-4.89v1l0.19,0.01
				c0.73,0.05,1.17,0.18,1.31,0.37c0.14,0.2,0.22,0.78,0.22,1.74v5.28c-0.42,0.58-0.86,1.01-1.32,1.31
				c-0.46,0.29-0.94,0.44-1.46,0.44c-0.55,0-0.93-0.15-1.15-0.47c-0.22-0.31-0.32-0.88-0.32-1.7v-7.97h-4.89v1l0.2,0.01
				c0.72,0.05,1.16,0.18,1.3,0.37c0.14,0.2,0.22,0.78,0.22,1.74v5.22c0,1.16,0.3,2.06,0.9,2.72s1.43,0.99,2.47,0.99
				c0.87,0,1.64-0.21,2.3-0.62c0.67-0.42,1.25-1.04,1.73-1.87v2.21h4.89v-1L36.4,57.17z"/>
		</g>
		<g>
			<path class="st2" d="M45.92,46.15c-1.54,0-2.78,0.83-3.75,2.48v-2.22h-4.89v1l0.2,0.01c0.72,0.05,1.16,0.18,1.3,0.37
				c0.14,0.2,0.21,0.78,0.21,1.74v5.56c0,0.96-0.07,1.54-0.21,1.74c-0.14,0.19-0.58,0.32-1.3,0.37l-0.2,0.01v1h6.88v-1l-0.2-0.01
				c-0.88-0.06-1.4-0.18-1.56-0.37c-0.16-0.18-0.24-0.76-0.24-1.74v-5.3c0.57-1,1.3-1.5,2.21-1.5c0.31,0,0.49,0.05,0.53,0.16
				c0.04,0.1,0.1,0.55,0.15,1.35l0.01,0.19h1.46v-3.75C46.29,46.17,46.08,46.15,45.92,46.15z"/>
		</g>
		<g>
			<path class="st2" d="M53.83,57.17c-0.72-0.05-1.15-0.18-1.3-0.37c-0.15-0.2-0.22-0.78-0.22-1.74v-8.66h-4.89v1l0.21,0.01
				c0.72,0.05,1.15,0.18,1.3,0.37c0.14,0.2,0.22,0.78,0.22,1.74v5.56c0,0.96-0.07,1.54-0.22,1.74c-0.14,0.19-0.58,0.32-1.3,0.37
				l-0.21,0.01v1h6.6v-1L53.83,57.17z M49.14,41.26v3.17h3.17v-3.17H49.14z"/>
		</g>
		<g>
			<path class="st2" d="M61.64,51.35l-0.97-0.37c-0.9-0.34-1.5-0.64-1.79-0.9c-0.29-0.25-0.43-0.6-0.43-1.05
				c0-0.53,0.2-0.98,0.59-1.35c0.39-0.36,0.87-0.55,1.44-0.55c1.29,0,1.93,0.56,1.93,1.67l0.02,0.52l0.01,0.2h1.46v-2.81
				c-1.27-0.37-2.49-0.56-3.66-0.56c-1.48,0-2.65,0.32-3.52,0.95c-0.87,0.64-1.31,1.49-1.31,2.55c0,1.52,1.13,2.72,3.38,3.61
				l0.98,0.39c1.34,0.53,2,1.19,2,1.98c0,0.51-0.19,0.95-0.57,1.3c-0.38,0.35-0.84,0.53-1.39,0.53c-1.13,0-1.98-0.32-2.55-0.95
				c-0.22-0.25-0.36-0.82-0.4-1.71l-0.01-0.19h-1.45v3.03c1.28,0.54,2.8,0.81,4.58,0.81c1.43,0,2.6-0.35,3.54-1.05
				c0.93-0.7,1.4-1.6,1.4-2.67C64.93,53.31,63.83,52.19,61.64,51.35z"/>
		</g>
		<g>
			<g>
				<path class="st2" d="M93.67,55.38c-0.36,0.31-0.79,0.56-1.3,0.74c-0.51,0.19-1.03,0.28-1.57,0.28c-1.11,0-2.04-0.39-2.79-1.18
					c-0.76-0.78-1.15-1.79-1.18-3h9.47c-0.01-1.44-0.4-2.63-1.17-3.6c-1.07-1.36-2.5-2.04-4.3-2.04c-1.75,0-3.13,0.67-4.17,1.99
					c-0.82,1.04-1.23,2.23-1.23,3.57c0,1.42,0.49,2.68,1.46,3.81s2.31,1.69,4.03,1.69c0.78,0,1.47-0.12,2.07-0.35
					c0.61-0.24,1.17-0.58,1.66-1.03s0.93-1.05,1.3-1.78l-1.14-0.6C94.41,54.57,94.03,55.06,93.67,55.38z M88.21,48.86
					c0.74-0.67,1.63-1,2.66-1c0.63,0,1.22,0.13,1.79,0.4c0.57,0.26,1.03,0.61,1.37,1.05c0.35,0.43,0.61,1.01,0.79,1.74h-7.84
					C87.25,50.08,87.66,49.35,88.21,48.86z"/>
			</g>
		</g>
		<g>
			<path class="st2" d="M106.03,38.23H69.01v24.15h30.95l-4.71-4.96c-1.19,0.99-2.71,1.57-4.38,1.57c-3.8,0-6.88-3.08-6.88-6.88
				s3.08-6.88,6.88-6.88c3.8,0,6.88,3.08,6.88,6.88c0,1.74-0.64,3.32-1.71,4.53l6.13,5.75h12.1v-14.2v-2.75L106.03,38.23z
				 M83.93,58.18h-9.46V41.22h2.21v15.12h7.25L83.93,58.18L83.93,58.18z M107.08,58.18l-1.82-2.74c-0.48-0.71-0.88-1.39-1.31-2.11
				h-0.05c-0.4,0.73-0.81,1.39-1.29,2.11l-1.77,2.74h-2.43l4.33-6.21L98.63,46h2.46l1.74,2.61c0.48,0.68,0.86,1.29,1.26,1.96h0.05
				c0.4-0.71,0.81-1.34,1.24-1.98l1.69-2.59h2.41l-4.15,5.88l4.25,6.28L107.08,58.18L107.08,58.18z"/>
		</g>
		<rect x="12.55" y="80.73" class="st3" width="101.9" height="18.48"/>
		<text transform="matrix(1 0 0 1 16.9307 86.8809)" class="st2 st4 st5">Sistema de Consulta de </text>
		<text transform="matrix(1 0 0 1 14.7661 96.4551)" class="st2 st4 st5">Tesis por Ordenamiento</text>
	</g>
</g>
</svg>
